<?xml version="1.0" encoding="utf-8"?>
<!-- Generator: Adobe Illustrator 23.0.1, SVG Export Plug-In . SVG Version: 6.00 Build 0)  -->
<svg version="1.1" id="Camada_1" xmlns="http://www.w3.org/2000/svg" xmlns:xlink="http://www.w3.org/1999/xlink" x="0px" y="0px"
	 viewBox="0 0 123.32 123.32" style="enable-background:new 0 0 123.32 123.32;" xml:space="preserve">
<style type="text/css">
	.st0{fill:#FFFBCA;}
	.st1{fill:none;stroke:#004892;stroke-width:1.323;stroke-linecap:round;stroke-linejoin:round;stroke-miterlimit:10;}
	.st2{fill:#662D91;}
	.st3{fill:none;stroke:#662D91;stroke-width:4.821;stroke-miterlimit:10;}
</style>
<path class="st0" d="M105.46,118.94H17.87c-6.78,0-12.28-5.5-12.28-12.28V19.07c0-6.78,5.5-12.28,12.28-12.28h87.59
	c6.78,0,12.28,5.5,12.28,12.28v87.59C117.74,113.44,112.24,118.94,105.46,118.94"/>
<path class="st1" d="M103.94,122.64l-91.2-5.18c-7.06-0.4-12.46-6.45-12.06-13.51l5.18-91.2c0.4-7.06,6.45-12.46,13.52-12.06
	l91.2,5.18c7.06,0.4,12.46,6.45,12.06,13.51l-5.18,91.2C117.06,117.64,111.01,123.04,103.94,122.64z"/>
<path class="st2" d="M61.76,53.25c-3.03,0-5.49-2.46-5.49-5.49v-1c0-3.03,2.46-5.49,5.49-5.49c3.03,0,5.49,2.46,5.49,5.49v1
	C67.26,50.79,64.79,53.25,61.76,53.25 M61.76,44.23c-1.39,0-2.53,1.14-2.53,2.53v1c0,1.39,1.13,2.53,2.53,2.53
	c1.39,0,2.53-1.13,2.53-2.53v-1C64.29,45.37,63.16,44.23,61.76,44.23"/>
<path class="st2" d="M53.12,76.85c-0.94,0-1.69-0.76-1.69-1.69V60.19c0-2,0.94-3.85,2.52-4.96c0.32-0.23,0.98-0.67,1.56-1.05
	c0.78-0.52,1.83-0.3,2.35,0.48c0.52,0.78,0.3,1.83-0.48,2.35c-0.55,0.36-1.17,0.78-1.48,0.99c-0.68,0.48-1.08,1.29-1.08,2.19v14.97
	C54.82,76.09,54.06,76.85,53.12,76.85"/>
<path class="st2" d="M58.19,99.79c-0.94,0-1.69-0.76-1.69-1.69V75.98c0-0.93,0.76-1.7,1.69-1.7c0.94,0,1.69,0.76,1.69,1.7v22.11
	C59.89,99.03,59.13,99.79,58.19,99.79"/>
<path class="st2" d="M70.41,76.85c-0.94,0-1.69-0.76-1.69-1.69V60.19c0-0.9-0.41-1.71-1.08-2.19c-0.3-0.21-0.93-0.63-1.47-0.99
	c-0.78-0.51-1-1.57-0.48-2.35c0.52-0.78,1.57-1,2.35-0.48c0.58,0.38,1.23,0.82,1.56,1.05c1.58,1.11,2.52,2.97,2.52,4.96v14.97
	C72.1,76.09,71.34,76.85,70.41,76.85"/>
<path class="st2" d="M65.34,99.79c-0.94,0-1.7-0.76-1.7-1.69V75.98c0-0.93,0.76-1.7,1.7-1.7c0.94,0,1.69,0.76,1.69,1.7v22.11
	C67.03,99.03,66.27,99.79,65.34,99.79"/>
<path class="st2" d="M49.82,49.01c-3.03,0-5.49-2.46-5.49-5.49v-1c0-3.03,2.46-5.49,5.49-5.49c3.03,0,5.49,2.46,5.49,5.49v1
	C55.31,46.54,52.84,49.01,49.82,49.01 M49.82,39.99c-1.39,0-2.53,1.14-2.53,2.53v1c0,1.39,1.13,2.53,2.53,2.53
	c1.39,0,2.53-1.14,2.53-2.53v-1C52.34,41.13,51.21,39.99,49.82,39.99"/>
<path class="st2" d="M41.17,72.61c-0.94,0-1.69-0.76-1.69-1.69V55.95c0-2,0.94-3.85,2.52-4.96c0.32-0.23,0.98-0.66,1.55-1.05
	c0.78-0.52,1.83-0.3,2.35,0.48c0.52,0.78,0.3,1.83-0.48,2.35c-0.54,0.36-1.17,0.78-1.47,0.99c-0.68,0.48-1.08,1.29-1.08,2.19v14.97
	C42.87,71.85,42.11,72.61,41.17,72.61"/>
<path class="st2" d="M46.24,95.55c-0.94,0-1.69-0.76-1.69-1.69V71.74c0-0.93,0.76-1.69,1.69-1.69c0.94,0,1.69,0.76,1.69,1.69v22.11
	C47.94,94.79,47.18,95.55,46.24,95.55"/>
<path class="st2" d="M37.87,44.84c-3.03,0-5.49-2.46-5.49-5.49v-1c0-3.03,2.46-5.49,5.49-5.49c3.03,0,5.49,2.46,5.49,5.49v1
	C43.36,42.38,40.9,44.84,37.87,44.84 M37.87,35.83c-1.39,0-2.53,1.14-2.53,2.53v1c0,1.39,1.13,2.53,2.53,2.53
	c1.39,0,2.53-1.13,2.53-2.53v-1C40.39,36.96,39.26,35.83,37.87,35.83"/>
<path class="st2" d="M29.22,68.44c-0.94,0-1.69-0.76-1.69-1.69V51.79c0-2,0.94-3.85,2.52-4.96c0.32-0.23,0.98-0.66,1.56-1.04
	c0.78-0.52,1.83-0.3,2.35,0.48c0.52,0.78,0.3,1.83-0.48,2.35c-0.54,0.36-1.17,0.78-1.47,0.99c-0.68,0.48-1.08,1.29-1.08,2.19v14.97
	C30.92,67.69,30.16,68.44,29.22,68.44"/>
<path class="st2" d="M34.3,91.38c-0.94,0-1.69-0.76-1.69-1.69V67.58c0-0.93,0.76-1.7,1.69-1.7c0.94,0,1.69,0.76,1.69,1.7v22.11
	C35.99,90.62,35.23,91.38,34.3,91.38"/>
<path class="st2" d="M73.71,49.01c-3.03,0-5.49-2.46-5.49-5.49v-1c0-3.03,2.46-5.49,5.49-5.49c3.03,0,5.49,2.46,5.49,5.49v1
	C79.21,46.54,76.74,49.01,73.71,49.01 M73.71,39.99c-1.39,0-2.53,1.14-2.53,2.53v1c0,1.39,1.13,2.53,2.53,2.53
	c1.39,0,2.53-1.14,2.53-2.53v-1C76.24,41.13,75.11,39.99,73.71,39.99"/>
<path class="st2" d="M61.76,40.34c-3.03,0-5.49-2.46-5.49-5.49v-1c0-3.03,2.46-5.49,5.49-5.49c3.03,0,5.49,2.46,5.49,5.49v1
	C67.26,37.87,64.79,40.34,61.76,40.34 M61.76,31.32c-1.39,0-2.53,1.14-2.53,2.53v1c0,1.39,1.13,2.53,2.53,2.53
	c1.39,0,2.53-1.14,2.53-2.53v-1C64.29,32.45,63.16,31.32,61.76,31.32"/>
<path class="st2" d="M49.82,36.09c-3.03,0-5.49-2.46-5.49-5.49v-1c0-3.03,2.46-5.49,5.49-5.49c3.03,0,5.49,2.46,5.49,5.49v1
	C55.31,33.63,52.84,36.09,49.82,36.09 M49.82,27.08c-1.39,0-2.53,1.13-2.53,2.53v1c0,1.39,1.13,2.53,2.53,2.53
	c1.39,0,2.53-1.14,2.53-2.53v-1C52.34,28.21,51.21,27.08,49.82,27.08"/>
<path class="st2" d="M73.71,36.09c-3.03,0-5.49-2.46-5.49-5.49v-1c0-3.03,2.46-5.49,5.49-5.49c3.03,0,5.49,2.46,5.49,5.49v1
	C79.21,33.63,76.74,36.09,73.71,36.09 M73.71,27.08c-1.39,0-2.53,1.13-2.53,2.53v1c0,1.39,1.13,2.53,2.53,2.53
	c1.39,0,2.53-1.14,2.53-2.53v-1C76.24,28.21,75.11,27.08,73.71,27.08"/>
<path class="st2" d="M82.36,72.61c-0.94,0-1.69-0.76-1.69-1.69V55.95c0-0.9-0.41-1.71-1.08-2.19c-0.31-0.21-0.93-0.63-1.47-0.99
	c-0.78-0.51-0.99-1.57-0.48-2.35s1.57-1,2.35-0.48c0.58,0.38,1.23,0.82,1.56,1.05c1.58,1.11,2.52,2.96,2.52,4.96v14.97
	C84.05,71.85,83.29,72.61,82.36,72.61"/>
<path class="st2" d="M77.29,95.55c-0.94,0-1.69-0.76-1.69-1.69V71.74c0-0.93,0.76-1.69,1.69-1.69c0.94,0,1.69,0.76,1.69,1.69v22.11
	C78.98,94.79,78.22,95.55,77.29,95.55"/>
<path class="st2" d="M85.66,44.84c-3.03,0-5.49-2.46-5.49-5.49v-1c0-3.03,2.46-5.49,5.49-5.49c3.03,0,5.49,2.46,5.49,5.49v1
	C91.15,42.38,88.69,44.84,85.66,44.84 M85.66,35.83c-1.39,0-2.53,1.14-2.53,2.53v1c0,1.39,1.13,2.53,2.53,2.53
	c1.39,0,2.53-1.13,2.53-2.53v-1C88.19,36.96,87.06,35.83,85.66,35.83"/>
<path class="st2" d="M94.31,68.44c-0.94,0-1.7-0.76-1.7-1.69V51.79c0-0.9-0.41-1.71-1.08-2.19c-0.31-0.21-0.93-0.63-1.47-0.99
	c-0.78-0.51-0.99-1.56-0.48-2.35c0.52-0.78,1.57-1,2.35-0.48c0.58,0.38,1.23,0.82,1.56,1.04c1.58,1.11,2.52,2.97,2.52,4.96v14.97
	C96,67.69,95.24,68.44,94.31,68.44"/>
<path class="st2" d="M89.23,91.38c-0.94,0-1.69-0.76-1.69-1.69V67.58c0-0.93,0.76-1.7,1.69-1.7c0.94,0,1.69,0.76,1.69,1.7v22.11
	C90.93,90.62,90.17,91.38,89.23,91.38"/>
<line class="st3" x1="101.25" y1="23.41" x2="23.75" y2="100.91"/>
</svg>
