<?xml version="1.0" encoding="utf-8"?>
<!-- Generator: Adobe Illustrator 23.0.1, SVG Export Plug-In . SVG Version: 6.00 Build 0)  -->
<svg version="1.1" id="Camada_1" xmlns="http://www.w3.org/2000/svg" xmlns:xlink="http://www.w3.org/1999/xlink" x="0px" y="0px"
	 viewBox="0 0 88.17 112" style="enable-background:new 0 0 88.17 112;" xml:space="preserve">
<style type="text/css">
	.st0{fill:none;}
	.st1{fill:none;stroke:#662D91;stroke-width:4;stroke-miterlimit:10;}
</style>
<path class="st0" d="M0,89.38"/>
<path class="st1" d="M86.17,110v-9.3c0-2.59-2.1-4.7-4.7-4.7h-4.3V77.18L56.92,56l20.25-21.18V16h4.3c2.59,0,4.7-2.1,4.7-4.7V2h-70
	v9.3c0,2.59,2.1,4.7,4.7,4.7h4.3v18.82L45.42,56L25.17,77.18V96h-4.3c-2.59,0-4.7,2.1-4.7,4.7v9.3H86.17z"/>
<line class="st1" x1="25.17" y1="16" x2="77.17" y2="16"/>
<line class="st1" x1="25.17" y1="96" x2="77.17" y2="96"/>
<polyline class="st1" points="68.17,95 68.17,81.09 54.02,67 49.31,67 35.17,81.09 35.17,95 "/>
<polyline class="st1" points="32.17,21 32.17,29.93 46.25,44.02 "/>
</svg>
