<?xml version="1.0" encoding="utf-8"?>
<!-- Generator: Adobe Illustrator 23.0.1, SVG Export Plug-In . SVG Version: 6.00 Build 0)  -->
<svg version="1.1" id="Camada_1" xmlns="http://www.w3.org/2000/svg" xmlns:xlink="http://www.w3.org/1999/xlink" x="0px" y="0px"
	 viewBox="0 0 246 221.41" style="enable-background:new 0 0 246 221.41;" xml:space="preserve">
<style type="text/css">
	.st0{fill:#FFF5D9;}
	.st1{fill:none;stroke:#662D91;stroke-width:8;stroke-linecap:round;stroke-linejoin:round;stroke-miterlimit:10;}
</style>
<path class="st0" d="M113.19,11.34L17.48,167.38c-9.53,15.54,1.27,35.58,19.49,36.17l181.38,5.87c18.23,0.59,30.3-18.74,21.77-34.86
	L154.45,12.65C145.84-3.62,122.81-4.35,113.19,11.34"/>
<path class="st1" d="M176.74,86.89h-5.81c-14.87,0-28.07,9.52-32.78,23.62l-1.53,4.58c-1.31,3.92-4.61,6.84-8.67,7.65l-2.4,0.48
	c-5.81,1.16-9.79,6.54-9.2,12.44l0.73,7.26c1.18,11.77,11.09,20.74,22.92,20.74h2.19c12.72,0,23.03,10.31,23.03,23.03v7.68"/>
<path class="st1" d="M149.87,117.6c0-4.24,3.44-7.68,7.68-7.68c4.24,0,7.68,3.44,7.68,7.68"/>
<path class="st1" d="M176.74,94.57V63.86c0,0,65.26,23.03,65.26,92.13"/>
<path class="st1" d="M61.58,63.86c0-4.24,3.44-7.68,7.68-7.68c4.24,0,7.68,3.44,7.68,7.68"/>
<path class="st1" d="M142.19,44.67c0,0-15.35-19.19-42.23-19.19c-14.65,0-25.87,1.14-33.05,2.18c-5.57,0.8-10.25,4.55-12.23,9.81
	l-5.7,15.2c-1.73,4.62-5.58,8.12-10.34,9.42L4,71.54l7.15,28.62c2.56,10.25,11.78,17.45,22.34,17.45h39.6"/>
<path class="st1" d="M27.03,67.7v3.84c0,8.48-6.88,15.35-15.35,15.35H7.84"/>
<path class="st1" d="M99.97,60.02c-1.33,12.08-4.45,24.14-10.9,34.44c-6.04,9.65-14.92,18-17.37,29.11
	c-1.3,5.9-0.61,12.16,1.56,17.81c1.33,3.46,3.22,6.74,5.85,9.35c5.46,5.41,13.37,7.38,20.86,9.09"/>
<path class="st1" d="M84.61,155.99v23.28c0,9.85,2.92,19.48,8.38,27.68l6.97,10.46"/>
</svg>
