<?xml version="1.0" encoding="utf-8"?>
<!-- Generator: Adobe Illustrator 23.0.1, SVG Export Plug-In . SVG Version: 6.00 Build 0)  -->
<svg version="1.1" id="Camada_1" xmlns="http://www.w3.org/2000/svg" xmlns:xlink="http://www.w3.org/1999/xlink" x="0px" y="0px"
	 viewBox="0 0 178.64 147.88" style="enable-background:new 0 0 178.64 147.88;" xml:space="preserve">
<style type="text/css">
	.st0{fill:#FFF799;}
	.st1{fill:none;stroke:#662D91;stroke-width:1.631;stroke-linecap:round;stroke-linejoin:round;stroke-miterlimit:10;}
	.st2{fill:#662D91;}
</style>
<path class="st0" d="M82.06,13.11l-57.72,94.1c-5.75,9.37,0.76,21.46,11.75,21.81l109.38,3.54c11,0.36,18.27-11.3,13.13-21.02
	L106.94,13.9C101.75,4.1,87.86,3.65,82.06,13.11"/>
<path class="st1" d="M78.84,8.5L20,108.67c-6.76,11.51,1.54,26,14.88,26h114.77c13.34,0,21.64-14.49,14.88-26L105.69,8.5
	C99.68-1.75,84.86-1.75,78.84,8.5z"/>
<path class="st1" d="M26.01,85.8c0,1.94-1.56,3.52-3.48,3.52c-1.92,0-3.48-1.58-3.48-3.52c0-1.94,1.56-3.52,3.48-3.52
	C24.45,82.28,26.01,83.86,26.01,85.8z"/>
<path class="st1" d="M21.17,88.92c0,1.19-0.95,2.15-2.12,2.15c-1.17,0-2.12-0.96-2.12-2.15c0-1.19,0.95-2.15,2.12-2.15
	C20.22,86.78,21.17,87.74,21.17,88.92z"/>
<path class="st1" d="M148.55,53.39c0,1.95-1.56,3.52-3.48,3.52c-1.92,0-3.48-1.58-3.48-3.52c0-1.94,1.56-3.52,3.48-3.52
	C146.99,49.87,148.55,51.45,148.55,53.39z"/>
<path class="st1" d="M60.31,18.95c0,1.94-1.56,3.52-3.48,3.52c-1.92,0-3.48-1.58-3.48-3.52c0-1.94,1.56-3.52,3.48-3.52
	C58.75,15.43,60.31,17,60.31,18.95z"/>
<line class="st1" x1="49.25" y1="67.65" x2="17.86" y2="67.65"/>
<line class="st1" x1="25.49" y1="71.07" x2="0.82" y2="71.07"/>
<line class="st1" x1="161.47" y1="43.39" x2="177.82" y2="43.39"/>
<line class="st1" x1="153.89" y1="43.39" x2="158.98" y2="43.39"/>
<line class="st1" x1="139.24" y1="43.39" x2="150.89" y2="43.39"/>
<line class="st1" x1="139.34" y1="46.26" x2="155.69" y2="46.26"/>
<line class="st1" x1="131.76" y1="46.26" x2="136.85" y2="46.26"/>
<line class="st1" x1="117.11" y1="46.26" x2="128.76" y2="46.26"/>
<line class="st1" x1="47.17" y1="138.61" x2="10.28" y2="138.61"/>
<line class="st1" x1="56.83" y1="138.61" x2="51.74" y2="138.61"/>
<line class="st1" x1="113.58" y1="139.74" x2="150.47" y2="139.74"/>
<line class="st1" x1="103" y1="139.74" x2="108.09" y2="139.74"/>
<line class="st1" x1="122.65" y1="147.06" x2="139" y2="147.06"/>
<line class="st1" x1="115.07" y1="147.06" x2="120.16" y2="147.06"/>
<line class="st1" x1="100.42" y1="147.06" x2="112.07" y2="147.06"/>
<path class="st2" d="M80.82,115.68v-3.41c0-5.18,4.36-7.63,12.95-7.63c8.72,0,13.09,2.45,13.09,7.63v3.41
	c0,5.32-4.36,7.64-13.09,7.64C85.18,123.31,80.82,120.99,80.82,115.68 M85.59,96.87c-3.55-17.72-4.5-34.76-4.5-46.62V27.9h25.49
	v22.35c0,11.86-1.09,28.9-4.63,46.62H85.59z"/>
</svg>
