<?xml version="1.0" encoding="utf-8"?>
<!-- Generator: Adobe Illustrator 23.0.1, SVG Export Plug-In . SVG Version: 6.00 Build 0)  -->
<svg version="1.1" id="Camada_1" xmlns="http://www.w3.org/2000/svg" xmlns:xlink="http://www.w3.org/1999/xlink" x="0px" y="0px"
	 viewBox="0 0 228.97 209.44" style="enable-background:new 0 0 228.97 209.44;" xml:space="preserve">
<style type="text/css">
	.st0{fill:#FFDCDC;}
	.st1{fill:#662D91;}
</style>
<path class="st0" d="M99.25,11.34L3.54,167.38c-9.53,15.54,1.27,35.58,19.49,36.17l181.38,5.87c18.24,0.59,30.3-18.74,21.77-34.86
	L140.51,12.65C131.9-3.62,108.87-4.35,99.25,11.34"/>
<path class="st1" d="M152.2,122.07c18.68,0,33.91-15.2,33.91-33.87c0-18.69-15.22-33.89-33.91-33.89
	c-18.66,0-33.88,15.2-33.88,33.89C118.31,106.87,133.53,122.07,152.2,122.07 M152.2,105.93c-9.79,0-17.74-7.95-17.74-17.73
	c0-9.79,7.96-17.74,17.74-17.74c9.8,0,17.77,7.96,17.77,17.74C169.97,97.97,162,105.93,152.2,105.93"/>
<path class="st1" d="M152.2,46.52c-4.45,0-8.05-3.61-8.05-8.07v-6.21c0-4.45,3.6-8.07,8.05-8.07c4.47,0,8.09,3.62,8.09,8.07v6.21
	C160.28,42.91,156.66,46.52,152.2,46.52"/>
<path class="st1" d="M152.2,152.19c-4.45,0-8.05-3.61-8.05-8.07v-6.21c0-4.46,3.6-8.07,8.05-8.07c4.47,0,8.09,3.61,8.09,8.07v6.21
	C160.28,148.58,156.66,152.19,152.2,152.19"/>
<path class="st1" d="M193.87,88.18c0-4.46,3.62-8.07,8.07-8.07h6.2c4.45,0,8.07,3.61,8.07,8.07c0,4.45-3.62,8.06-8.07,8.06h-6.2
	C197.49,96.24,193.87,92.63,193.87,88.18"/>
<path class="st1" d="M110.55,88.18c0,4.45-3.61,8.06-8.07,8.06h-6.2c-4.45,0-8.07-3.61-8.07-8.06c0-4.46,3.62-8.07,8.07-8.07h6.2
	C106.94,80.11,110.55,83.72,110.55,88.18"/>
<path class="st1" d="M193.07,58.73c-1.58,1.58-3.64,2.37-5.7,2.37c-2.08,0-4.12-0.79-5.7-2.37c-3.17-3.15-3.17-8.26,0-11.4l4.39-4.4
	c3.15-3.15,8.27-3.15,11.41,0c3.15,3.15,3.15,8.26,0,11.41L193.07,58.73z"/>
<path class="st1" d="M122.77,117.63c3.15,3.16,3.15,8.26,0,11.41l-4.42,4.4c-1.58,1.57-3.64,2.35-5.7,2.35s-4.14-0.79-5.7-2.37
	c-3.15-3.16-3.15-8.27,0-11.42l4.42-4.38C114.53,114.47,119.62,114.48,122.77,117.63"/>
<path class="st1" d="M193.07,117.63l4.4,4.41c3.15,3.15,3.15,8.25,0,11.41c-1.56,1.57-3.64,2.36-5.69,2.36
	c-2.08,0-4.13-0.79-5.72-2.36l-4.39-4.41c-3.17-3.15-3.17-8.25,0-11.41C184.82,114.48,189.9,114.48,193.07,117.63"/>
<path class="st1" d="M117.05,61.1c-2.06,0-4.1-0.79-5.69-2.36l-4.42-4.39c-3.15-3.15-3.15-8.25,0-11.41
	c3.15-3.15,8.26-3.16,11.41-0.02l4.42,4.39c3.15,3.15,3.15,8.25,0,11.41C121.18,60.3,119.13,61.1,117.05,61.1"/>
<path class="st1" d="M56.54,118.15c2.1,0,4.21,0.23,6.49,0.72c2.94-10.97,9.26-20.24,17.57-27.01c1.34,5.64,5.64,10.1,11.16,11.73
	c-6.58,4.96-11.46,12.11-13.44,20.64l-3.36,14.25l-14.21-3.57c-1.66-0.42-3-0.61-4.21-0.61c-9.51,0-17.27,7.75-17.27,17.28
	c0,9.54,7.75,17.29,17.27,17.29h57.08c11.09,0,20.92-5.12,27.58-13c2.9,2.71,6.73,4.39,10.99,4.39c2.45,0,4.73-0.57,6.79-1.54
	c-9.07,15.69-26,26.28-45.36,26.28H56.54c-18.41,0-33.41-14.99-33.41-33.42C23.14,133.14,38.13,118.15,56.54,118.15"/>
</svg>
