<?xml version="1.0" encoding="utf-8"?>
<!-- Generator: Adobe Illustrator 23.0.1, SVG Export Plug-In . SVG Version: 6.00 Build 0)  -->
<svg version="1.1" id="Camada_1" xmlns="http://www.w3.org/2000/svg" xmlns:xlink="http://www.w3.org/1999/xlink" x="0px" y="0px"
	 viewBox="0 0 255.59 249.26" style="enable-background:new 0 0 255.59 249.26;" xml:space="preserve">
<style type="text/css">
	.st0{fill:none;}
	.st1{fill:#D2F4FF;}
	.st2{fill-rule:evenodd;clip-rule:evenodd;fill:#D2F4FF;}
	.st3{fill-rule:evenodd;clip-rule:evenodd;fill:#FFFFFF;}
	.st4{fill:#662D91;}
</style>
<path class="st0" d="M255.59,249.26"/>
<path class="st1" d="M245.77,221.35c2.15-2.57,3.12-5.93,3.58-9.24c1.23-8.82-0.85-18.07-5.75-25.51c-2.83-4.3-6.59-8.08-8.39-12.91
	c-1.51-4.03-1.51-8.44-1.77-12.73c-0.38-6.16-1.42-12.49-4.8-17.66c-3.37-5.17-9.56-8.89-15.63-7.78c-3.27,0.59-6.18,2.5-8.54,4.85
	c-6.53,6.53-8.88,16.1-10.23,25.24c-1.34,9.14-2.04,18.63-6.21,26.88c-1.96,3.86-4.63,7.33-6.46,11.25
	c-1.83,3.92-2.76,8.57-1.04,12.54c1.91,4.4,6.67,6.96,11.38,7.88c5.52,1.08,11.2,0.32,16.74,1.15c4.42,0.66,8.25,2.86,12.54,3.82
	C228.49,230.76,240.91,227.16,245.77,221.35"/>
<path class="st1" d="M56.12,225.46c-10.14,3.8-21.17,4.31-32,4.56c-3.31,0.08-6.96,0.01-9.45-2.17c-2.07-1.81-2.83-4.67-3.23-7.38
	c-1.16-7.87-0.09-16.05,3.07-23.35c2.41-5.58,6.04-10.76,7.05-16.76c1.47-8.84-2.95-18.43,0.72-26.61
	c3.61-8.04,13.63-11.09,22.44-10.82c3.99,0.12,8.37,0.94,10.86,4.06c1.24,1.55,1.86,3.5,2.32,5.44c1.61,6.78,1.54,13.88,3.3,20.62
	c1.52,5.81,4.35,11.19,7.71,16.17c2.29,3.39,4.86,6.68,6.08,10.58c0.95,3.05,1.03,6.29,1.09,9.48c0.05,2.58,0.09,5.24-0.83,7.65
	c-1.2,3.14-3.61,4.47-6.62,5.1C64.23,222.93,60.39,223.86,56.12,225.46"/>
<path class="st2" d="M147.83,63.5c0-5.49-4.46-9.95-9.95-9.95c-2.75,0-5.24-1.11-7.04-2.91c-1.8-1.8-2.91-4.29-2.91-7.04
	c0-5.5-4.46-9.95-9.95-9.95c-5.5,0-9.95,4.46-9.95,9.95c0,8.24,3.34,15.71,8.75,21.11c5.4,5.4,12.87,8.75,21.11,8.75
	C143.38,73.46,147.83,69,147.83,63.5"/>
<path class="st3" d="M147.83,63.5c0,5.5-4.46,9.95-9.95,9.95c-8.24,0-15.71-3.34-21.11-8.75c-5.4-5.4-8.75-12.87-8.75-21.11
	c0-5.5,4.46-9.95,9.95-9.95c5.49,0,9.95,4.46,9.95,9.95c0,2.75,1.11,5.23,2.91,7.04c1.8,1.8,4.29,2.91,7.04,2.91
	C143.38,53.55,147.83,58.01,147.83,63.5 M161.46,19.39c-19.3-19.3-50.59-19.3-69.89,0c-19.3,19.3-19.3,50.59,0,69.89
	c6.68,6.68,14.81,11.05,23.38,13.1c2.74,4.74,5.47,9.49,8.21,14.23c1.43,2.56,5.17,2.65,6.68,0.05c2.75-4.76,5.49-9.52,8.24-14.28
	c8.57-2.05,16.69-6.42,23.37-13.1C180.76,69.99,180.76,38.69,161.46,19.39"/>
<path class="st4" d="M59.29,181.27c1.72-3.3,2.7-7.04,2.7-11.01v-9.47c0-13.17-10.72-23.89-23.89-23.89
	c-13.17,0-23.89,10.72-23.89,23.89v9.47c0,3.97,0.98,7.71,2.7,11C6.37,188.31,0,200.04,0,212.89v9.47c0,2.73,2.21,4.94,4.94,4.94
	h10.92c2.73,0,4.94-2.21,4.94-4.94c0-2.73-2.21-4.94-4.94-4.94H9.88v-4.53c0-9.85,5.06-18.79,13.35-23.95
	c4.08,3.26,9.25,5.21,14.86,5.21c5.61,0,10.78-1.95,14.86-5.21c8.3,5.15,13.35,14.1,13.35,23.95v4.53h-5.98
	c-2.73,0-4.94,2.21-4.94,4.94s2.22,4.94,4.94,4.94h10.92c2.73,0,4.94-2.21,4.94-4.94v-9.47C76.2,200.04,69.82,188.31,59.29,181.27
	 M38.1,184.27c-7.73,0-14.01-6.28-14.01-14.01v-9.47c0-7.72,6.28-14,14.01-14c7.72,0,14,6.28,14,14v9.47
	C52.1,177.99,45.82,184.27,38.1,184.27"/>
<path class="st4" d="M236.13,181.27c1.72-3.3,2.69-7.04,2.69-11.01v-9.48c0-13.17-10.72-23.88-23.89-23.88
	c-13.17,0-23.89,10.71-23.89,23.88v9.48c0,3.97,0.98,7.71,2.7,11c-10.54,7.05-16.91,18.77-16.91,31.63v9.47
	c0,2.73,2.21,4.94,4.94,4.94h66.31c2.73,0,4.94-2.21,4.94-4.94v-9.47C253.03,200.04,246.66,188.31,236.13,181.27 M200.93,160.79
	c0-7.72,6.28-14,14.01-14c7.72,0,14,6.29,14,14v9.48c0,7.72-6.28,14.01-14,14.01c-7.72,0-14.01-6.28-14.01-14.01V160.79z
	 M243.15,217.42h-56.43v-4.53c0-9.85,5.05-18.79,13.35-23.95c4.08,3.26,9.25,5.21,14.86,5.21c5.62,0,10.78-1.95,14.86-5.21
	c8.3,5.16,13.35,14.11,13.35,23.95V217.42z"/>
<path class="st4" d="M155.28,138.39c-2.8-2.8-6.52-4.34-10.48-4.34c-3.96,0-7.68,1.54-10.48,4.34c-3.37,3.38-4.8,7.93-4.26,12.31
	H91.59c-8.17,0-14.83,6.65-14.83,14.83c0,8.17,6.65,14.82,14.83,14.82h38.47c-0.55,4.38,0.88,8.93,4.26,12.31
	c2.89,2.89,6.69,4.33,10.48,4.33c3.8,0,7.59-1.45,10.48-4.33l16.65-16.65c2.8-2.8,4.34-6.52,4.34-10.48c0-3.96-1.54-7.68-4.34-10.49
	L155.28,138.39z M164.94,169.02l-16.65,16.65c-1.93,1.92-5.06,1.92-6.99,0c-1.9-1.9-1.95-4.92-0.11-6.87
	c1.35-1.43,1.72-3.54,0.93-5.34c-0.78-1.81-2.56-2.98-4.54-2.98h-46c-2.73,0-4.94-2.22-4.94-4.94c0-2.73,2.22-4.94,4.94-4.94h46
	c1.97,0,3.75-1.17,4.54-2.98c0.78-1.81,0.42-3.91-0.93-5.35c-1.84-1.95-1.79-4.97,0.11-6.87c0.93-0.93,2.17-1.44,3.49-1.44
	c1.32,0,2.56,0.51,3.49,1.44l16.65,16.65c0.93,0.93,1.45,2.17,1.45,3.49C166.38,166.84,165.87,168.09,164.94,169.02"/>
<path class="st4" d="M111.7,106.65l7.17,12.42c1.54,2.72,4.45,4.43,7.59,4.45h0.07c3.16,0,6-1.63,7.6-4.38
	c2.4-4.17,4.81-8.33,7.21-12.49c8.9-2.52,17.04-7.29,23.62-13.87c10.27-10.27,15.92-23.92,15.92-38.44
	c0-14.52-5.65-28.17-15.92-38.44c-21.2-21.2-55.68-21.2-76.88,0c-21.2,21.19-21.2,55.68,0,76.88
	C94.67,99.37,102.8,104.13,111.7,106.65 M95.06,22.89c8.67-8.67,20.06-13.01,31.45-13.01c11.39,0,22.78,4.34,31.45,13.01
	c8.4,8.4,13.03,19.57,13.03,31.45s-4.63,23.05-13.03,31.45c-5.81,5.81-13.09,9.89-21.03,11.79c-1.32,0.32-2.45,1.16-3.13,2.34
	c-2.43,4.21-4.86,8.42-7.29,12.63l-7.29-12.63c-0.68-1.17-1.81-2.02-3.13-2.33c-7.95-1.91-15.23-5.98-21.04-11.8
	C77.72,68.45,77.72,40.23,95.06,22.89"/>
<path class="st4" d="M101.81,47.51h1.5c0.3,2.73,0.92,5.39,1.84,7.93l-1.63,0.94c-2.36,1.37-3.17,4.39-1.81,6.75
	c0.91,1.59,2.57,2.47,4.28,2.47c0.84,0,1.69-0.22,2.47-0.66l1.35-0.78c1.04,1.42,2.2,2.77,3.47,4.04c0.66,0.67,1.36,1.29,2.06,1.89
	l-0.97,1.68c-1.36,2.36-0.56,5.39,1.81,6.75c0.78,0.45,1.63,0.66,2.47,0.66c1.71,0,3.37-0.89,4.28-2.47l0.77-1.33
	c2.48,1.11,5.08,1.92,7.77,2.42v1.87c0,2.73,2.21,4.94,4.94,4.94c2.73,0,4.94-2.21,4.94-4.94v-1.69c1.91-0.46,3.68-1.28,5.23-2.4
	l2.18,1.26c0.78,0.45,1.63,0.66,2.46,0.66c1.71,0,3.37-0.89,4.28-2.47c1.37-2.37,0.56-5.39-1.81-6.75l-1.46-0.84
	c0.34-1.25,0.53-2.57,0.53-3.94c0-1.95-0.38-3.81-1.06-5.51l1.92-1.92c1.93-1.93,1.93-5.06,0-6.99c-1.93-1.93-5.06-1.93-6.99,0
	l-1.45,1.45c-2.16-1.22-4.65-1.92-7.31-1.92c-1.34,0-2.6-0.52-3.54-1.47c-0.95-0.94-1.47-2.2-1.47-3.54c0-1.71-0.29-3.35-0.82-4.87
	l2.12-2.12c1.93-1.93,1.93-5.06,0-6.99c-1.93-1.93-5.06-1.93-6.99,0l-1.34,1.33c-2.28-1.42-4.98-2.25-7.86-2.25
	c-0.45,0-0.89,0.02-1.32,0.06l-1.29-2.24c-1.36-2.37-4.39-3.17-6.75-1.81c-2.37,1.37-3.17,4.39-1.81,6.75l0.82,1.43
	c-1.38,1.34-2.51,2.94-3.29,4.73h-2.53c-2.73,0-4.94,2.21-4.94,4.94C96.86,45.3,99.08,47.51,101.81,47.51 M122.98,43.6
	c0,3.98,1.55,7.72,4.36,10.53c2.81,2.81,6.55,4.36,10.53,4.36c2.76,0,5.01,2.25,5.01,5.01c0,2.76-2.25,5.01-5.01,5.01
	c-6.65,0-12.91-2.59-17.62-7.3c-4.71-4.71-7.3-10.96-7.3-17.62c0-2.77,2.25-5.01,5.01-5.01C120.74,38.59,122.98,40.84,122.98,43.6"
	/>
<path class="st4" d="M38.1,217.42L38.1,217.42c-2.73,0-4.94,2.22-4.94,4.94c0,2.73,2.21,4.94,4.94,4.94c2.73,0,4.94-2.21,4.94-4.94
	C43.04,219.64,40.83,217.42,38.1,217.42"/>
</svg>
