<?xml version="1.0" encoding="utf-8"?>
<!-- Generator: Adobe Illustrator 23.0.1, SVG Export Plug-In . SVG Version: 6.00 Build 0)  -->
<svg version="1.1" id="Camada_1" xmlns="http://www.w3.org/2000/svg" xmlns:xlink="http://www.w3.org/1999/xlink" x="0px" y="0px"
	 viewBox="0 0 316.89 117.24" style="enable-background:new 0 0 316.89 117.24;" xml:space="preserve">
<style type="text/css">
	.st0{fill:#662D91;}
	.st1{font-family:'GeonHeavy';}
	.st2{font-size:36.4588px;}
</style>
<text transform="matrix(1 0 0 1 127.9877 42.3129)" class="st0 st1 st2">2 m</text>
<path class="st0" d="M41.45,48.03c-12.14,0-22.02-9.88-22.02-22.02v-3.99C19.43,9.88,29.3,0,41.45,0c12.14,0,22.02,9.88,22.02,22.02
	v3.99C63.47,38.15,53.59,48.03,41.45,48.03 M41.45,11.89c-5.59,0-10.13,4.55-10.13,10.13v3.99c0,5.59,4.54,10.13,10.13,10.13
	c5.59,0,10.13-4.54,10.13-10.13v-3.99C51.58,16.43,47.03,11.89,41.45,11.89"/>
<path class="st0" d="M76.1,117.24H6.79c-3.75,0-6.79-3.04-6.79-6.79v-36.6c0-8.01,3.78-15.45,10.11-19.9
	c1.29-0.91,3.93-2.67,6.23-4.19c3.13-2.07,7.35-1.21,9.41,1.92c2.07,3.13,1.21,7.35-1.92,9.41c-2.19,1.44-4.68,3.11-5.91,3.97
	c-2.72,1.91-4.34,5.19-4.34,8.78v29.81h55.72V73.84c0-3.59-1.62-6.87-4.34-8.78c-1.22-0.86-3.72-2.52-5.91-3.97
	c-3.13-2.07-3.99-6.28-1.92-9.41c2.07-3.13,6.28-3.99,9.41-1.92c2.3,1.52,4.94,3.28,6.23,4.19c6.33,4.45,10.12,11.89,10.12,19.9
	v36.6C82.89,114.2,79.85,117.24,76.1,117.24"/>
<path class="st0" d="M275.45,48.03c-12.14,0-22.02-9.88-22.02-22.02v-3.99C253.43,9.88,263.3,0,275.45,0
	c12.14,0,22.02,9.88,22.02,22.02v3.99C297.47,38.15,287.59,48.03,275.45,48.03 M275.45,11.89c-5.59,0-10.13,4.55-10.13,10.13v3.99
	c0,5.59,4.54,10.13,10.13,10.13c5.59,0,10.13-4.54,10.13-10.13v-3.99C285.58,16.43,281.03,11.89,275.45,11.89"/>
<path class="st0" d="M310.1,117.24h-69.31c-3.75,0-6.79-3.04-6.79-6.79v-36.6c0-8.01,3.78-15.45,10.11-19.9
	c1.29-0.91,3.93-2.67,6.23-4.19c3.13-2.07,7.35-1.21,9.41,1.92c2.07,3.13,1.21,7.35-1.92,9.41c-2.19,1.44-4.68,3.11-5.91,3.97
	c-2.72,1.91-4.34,5.19-4.34,8.78v29.81h55.72V73.84c0-3.59-1.62-6.87-4.34-8.78c-1.22-0.86-3.72-2.52-5.91-3.97
	c-3.13-2.07-3.99-6.28-1.92-9.41c2.07-3.13,6.28-3.99,9.41-1.92c2.3,1.52,4.94,3.28,6.23,4.19c6.33,4.45,10.12,11.89,10.12,19.9
	v36.6C316.89,114.2,313.85,117.24,310.1,117.24"/>
<rect x="107.89" y="60.24" class="st0" width="103" height="10"/>
<polygon class="st0" points="227.89,65.24 200.89,49.65 200.89,80.83 "/>
<polygon class="st0" points="92.89,65.24 119.89,80.83 119.89,49.65 "/>
</svg>
