<?xml version="1.0" encoding="utf-8"?>
<!-- Generator: Adobe Illustrator 23.0.1, SVG Export Plug-In . SVG Version: 6.00 Build 0)  -->
<svg version="1.1" id="Camada_1" xmlns="http://www.w3.org/2000/svg" xmlns:xlink="http://www.w3.org/1999/xlink" x="0px" y="0px"
	 viewBox="0 0 308.34 380.7" style="enable-background:new 0 0 308.34 380.7;" xml:space="preserve">
<style type="text/css">
	.st0{fill:#633B38;}
	.st1{fill:#452A31;}
	.st2{fill:#FEC296;}
	.st3{fill:#E79C78;}
	.st4{fill:#92BDB4;}
	.st5{fill:#79A4A3;}
	.st6{fill:#B1755C;}
	.st7{fill:#9C6251;}
	.st8{fill:#5E8E94;}
	.st9{fill:#FFFFFF;}
	.st10{fill:#B5CFC3;}
</style>
<polyline class="st0" points="255.66,380.7 253.52,312.7 216.73,314.58 221.41,380.7 "/>
<path class="st0" d="M197.04,379.75c0.01-3.14,0.12-6.24,0.18-9.26c0.09-3.03,0.09-5.98,0.26-8.87c0.13-2.89,0.26-5.69,0.39-8.41
	c0.12-2.71,0.23-5.34,0.43-7.83c0.35-4.99,0.66-9.56,0.94-13.61c0.37-4.17,0.7-7.81,0.97-10.81c0.55-6,0.86-9.44,0.86-9.44
	l-36.07-2.63c0,0-0.22,2.53-0.56,8.55c-0.17,3.02,0.16,7.59-0.07,11.79c-0.15,4.33-0.33,9.23-0.52,14.56
	c-0.12,2.67-0.14,5.43-0.17,8.28s-0.07,5.81-0.11,8.84c-0.07,3.03,0.03,6.16,0.05,9.35c0.05,3.19,0.04,6.45,0.15,9.77"/>
<path class="st1" d="M197.04,379.75c0.01-3.14,0.12-6.24,0.18-9.26c0.09-3.03,0.09-5.98,0.25-8.87c0.3-5.76,0.45-11.25,0.81-16.23
	c0.35-4.99,0.66-9.56,0.94-13.61c0.38-4.17,0.7-7.81,0.97-10.81c0.01-0.16,0.1-1.15,0.1-1.15l-7.46-0.49c0,0-4.37,29.62-14.88,61.37
	"/>
<path class="st2" d="M273.56,157.98c0,0,0.41,0.54,1.18,1.55c0.38,0.51,0.85,1.13,1.41,1.86c0.28,0.37,0.58,0.76,0.9,1.18
	c0.33,0.45,0.72,1.05,1.11,1.62c0.78,1.17,1.64,2.47,2.58,3.88c0.89,1.41,1.68,2.88,2.62,4.48c0.95,1.58,1.79,3.33,2.7,5.17
	c0.45,0.92,0.94,1.85,1.38,2.83c0.42,0.98,0.85,1.99,1.29,3.01c0.43,1.03,0.9,2.07,1.32,3.15c0.4,1.08,0.8,2.18,1.21,3.31
	c0.87,2.23,1.55,4.58,2.3,6.99c0.18,0.6,0.37,1.21,0.56,1.82c0.16,0.61,0.32,1.23,0.48,1.85c0.32,1.24,0.65,2.5,0.98,3.77
	c0.32,1.27,0.57,2.57,0.86,3.87c0.27,1.31,0.6,2.62,0.81,3.95c0.45,2.66,0.98,5.36,1.31,8.11c0.18,1.37,0.36,2.75,0.55,4.13
	c0.14,1.39,0.28,2.78,0.42,4.17l0.21,2.1l0.14,2.11c0.09,1.41,0.19,2.81,0.28,4.23c0.05,1.41,0.1,2.82,0.16,4.24
	c0.06,1.41,0.1,2.83,0.1,4.24c0.12,5.65-0.11,11.28-0.37,16.8c-0.36,5.51-0.78,10.93-1.43,16.13c-0.28,2.61-0.68,5.15-1.01,7.65
	c-0.4,2.49-0.74,4.93-1.18,7.29c-0.8,4.73-1.75,9.18-2.65,13.27c-0.95,4.09-1.89,7.83-2.83,11.14c-0.46,1.65-0.91,3.2-1.37,4.63
	c-0.42,1.43-0.87,2.74-1.27,3.93c-0.38,1.18-0.78,2.25-1.12,3.17c-0.33,0.92-0.63,1.71-0.89,2.36c-0.52,1.29-0.79,1.97-0.79,1.97
	c-1.59,3.97-6.1,5.9-10.07,4.31c-3.86-1.55-5.79-5.85-4.44-9.73l0.11-0.32c0,0,0.2-0.58,0.58-1.67c0.2-0.53,0.42-1.22,0.67-2.04
	c0.26-0.81,0.56-1.74,0.86-2.83c0.31-1.07,0.66-2.26,0.99-3.58c0.35-1.31,0.71-2.74,1.07-4.28c0.74-3.07,1.46-6.59,2.18-10.43
	c0.68-3.86,1.39-8.05,1.95-12.52c0.32-2.23,0.54-4.53,0.82-6.87c0.21-2.35,0.48-4.75,0.63-7.2c0.4-4.89,0.57-9.94,0.69-15.07
	c0.02-5.12,0.01-10.32-0.33-15.48c-0.05-1.29-0.14-2.58-0.25-3.86c-0.1-1.28-0.2-2.57-0.31-3.85c-0.14-1.27-0.28-2.54-0.42-3.81
	l-0.21-1.89l-0.27-1.87c-0.18-1.25-0.36-2.49-0.53-3.72c-0.22-1.22-0.43-2.44-0.65-3.65c-0.39-2.43-0.97-4.77-1.46-7.09
	c-0.24-1.16-0.58-2.28-0.86-3.41c-0.3-1.12-0.56-2.24-0.89-3.32c-0.33-1.08-0.66-2.14-0.98-3.2c-0.16-0.53-0.32-1.05-0.48-1.57
	c-0.18-0.51-0.36-1.02-0.54-1.52c-0.73-2-1.38-3.97-2.19-5.79c-0.38-0.92-0.76-1.82-1.12-2.71c-0.38-0.88-0.81-1.7-1.2-2.53
	c-0.39-0.82-0.78-1.63-1.15-2.42c-0.39-0.78-0.82-1.5-1.21-2.23c-0.8-1.44-1.52-2.84-2.34-4.04c-0.79-1.21-1.5-2.43-2.18-3.4
	c-0.68-0.94-1.3-1.8-1.87-2.57c-0.29-0.4-0.51-0.74-0.82-1.13c-0.34-0.41-0.65-0.79-0.94-1.14c-0.59-0.71-1.09-1.31-1.49-1.8
	c-0.81-0.98-1.24-1.5-1.24-1.5l0,0c-4.04-4.87-3.36-12.09,1.51-16.13c4.87-4.03,12.09-3.35,16.13,1.52
	C273.35,157.72,273.47,157.87,273.56,157.98"/>
<path class="st2" d="M189.78,167.53c0,0-0.27,0.75-0.78,2.16c-0.53,1.43-1.33,3.48-2.4,6.01c-2.14,5.06-5.38,12-9.63,20.05
	c-4.25,8.06-9.46,17.24-15.67,26.86c-3.12,4.81-6.48,9.72-10.33,14.67c-1.95,2.48-3.99,4.96-6.46,7.49
	c-1.25,1.27-2.57,2.55-4.28,3.89c-0.87,0.67-1.79,1.36-3.03,2.07c-1.25,0.7-2.69,1.48-5.12,2.02c-0.67,0.12-1.24,0.23-2.06,0.27
	c-0.39,0.02-0.75,0.03-1.17,0.02c-0.43-0.02-0.87-0.05-1.3-0.1c-0.41-0.04-0.91-0.15-1.37-0.25c-0.46-0.12-0.91-0.23-1.38-0.42
	c-0.94-0.34-1.81-0.78-2.61-1.31c-0.42-0.27-0.77-0.54-1.11-0.82c-0.33-0.28-0.69-0.59-0.97-0.88c-0.53-0.55-1.1-1.21-1.44-1.73
	c-0.19-0.28-0.38-0.56-0.56-0.84c-0.15-0.26-0.28-0.5-0.42-0.76c-0.13-0.25-0.27-0.52-0.37-0.75l-0.28-0.67
	c-0.7-1.78-0.96-3.15-1.17-4.4c-0.18-1.21-0.26-2.31-0.29-3.32c-0.12-4.02,0.27-7.25,0.69-10.45c0.9-6.32,2.19-12.08,3.52-17.63
	c1.34-5.53,2.77-10.78,4.18-15.73c1.41-4.95,2.8-9.58,4.12-13.85c2.63-8.52,4.95-15.56,6.58-20.48c1.65-4.91,2.59-7.72,2.59-7.72
	c1.61-4.79,6.79-7.37,11.58-5.76c4.71,1.58,7.29,6.63,5.83,11.36l-0.02,0.07c0,0-0.86,2.79-2.37,7.67
	c-1.49,4.88-3.6,11.86-5.96,20.25c-2.35,8.38-5.01,18.19-7.29,28.62c-1.12,5.19-2.17,10.59-2.76,15.75
	c-0.29,2.53-0.46,5.14-0.34,6.97c0.03,0.45,0.08,0.81,0.12,1.05c0.04,0.19,0.1,0.26-0.05-0.15c-0.02-0.06-0.05-0.11-0.07-0.17
	l-0.12-0.26c-0.05-0.09-0.1-0.17-0.16-0.27c-0.08-0.13-0.16-0.26-0.25-0.39c-0.15-0.2-0.45-0.61-0.74-0.88
	c-0.15-0.15-0.36-0.36-0.56-0.52c-0.2-0.16-0.41-0.31-0.67-0.49c-0.49-0.32-1.04-0.6-1.63-0.82c-0.3-0.1-0.57-0.19-0.85-0.26
	c-0.28-0.07-0.59-0.11-0.82-0.15c-0.25-0.04-0.5-0.06-0.75-0.06c-0.23,0-0.41-0.01-0.61,0c-0.45,0.04-0.66,0.05-0.97,0.13
	c-0.99,0.23-1.08,0.36-1.07,0.32c0.04-0.03,0.3-0.22,0.58-0.46c0.59-0.48,1.38-1.26,2.15-2.09c1.58-1.7,3.22-3.76,4.79-5.87
	c3.16-4.26,6.13-8.83,8.9-13.34c5.53-9.04,10.27-17.89,14.06-25.52c3.8-7.64,6.62-14.11,8.38-18.57c0.88-2.23,1.51-3.96,1.91-5.13
	c0.4-1.19,0.61-1.83,0.61-1.83l0.03-0.1c2-6,8.48-9.25,14.48-7.25c6,2,9.24,8.48,7.25,14.48
	C189.85,167.33,189.8,167.46,189.78,167.53"/>
<path class="st3" d="M293.83,198.41c-1.14-4.2-2.31-8.14-3.45-11.8c-8.68-2.79-17.3-5.83-26.17-7.91c0.41,1.02,0.82,2.08,1.27,3.21
	c1.19,3.05,2.52,6.5,3.87,10.27c1.38,3.77,2.78,7.86,4.16,12.19c1.39,4.33,2.71,8.91,3.89,13.65c0.81,3.18,1.49,6.43,2.09,9.71
	c6.56-2.75,12.98-5.72,18.86-9.59c-0.28-1.57-0.57-3.12-0.89-4.64C296.36,208.2,295.12,203.14,293.83,198.41"/>
<path class="st3" d="M251.6,291.02c-0.9-1.5-1.64-3.13-2.25-4.82c-0.57,1.22-0.84,2.59-0.69,4.02c0.14,1.32,0.6,2.52,1.29,3.55
	C250.4,292.81,250.95,291.89,251.6,291.02"/>
<path class="st3" d="M182.62,152.83c-6-2.01-12.49,1.23-14.49,7.23l0,0.01c0,0-0.23,0.7-0.67,2c-0.2,0.56-0.44,1.24-0.73,2.04
	c-0.33,0.86-0.71,1.85-1.14,2.96c-1.76,4.46-4.57,10.92-8.37,18.56c-3.79,7.63-8.53,16.48-14.06,25.52
	c-0.84,1.37-4.78,7.31-5.66,8.68c3.38,10.3,1.79,18.38-1.8,21.8c-13.39,12.75-19.98-2.89-20.06-8.62c-0.05,1.19-0.09,2.43-0.05,3.77
	c0,0.94,0.16,2.19,0.28,3.3c0.11,0.65,0.26,1.36,0.41,2.03l0.12,0.51l0.2,0.63c0.14,0.43,0.3,0.85,0.46,1.28l0.25,0.63
	c0.08,0.21,0.26,0.53,0.4,0.79c0.3,0.54,0.63,1.08,0.97,1.59c0.27,0.45,0.92,1.19,1.49,1.75c0.3,0.3,0.61,0.58,0.93,0.85
	c0.31,0.27,0.63,0.53,1.07,0.79c0.82,0.52,1.72,0.97,2.62,1.32c0.9,0.35,1.76,0.5,2.68,0.64c0.45,0.06,0.91,0.11,1.36,0.13
	c0.41,0.01,0.73-0.01,1.09-0.03c0.71-0.05,1.43-0.14,2.12-0.26c0.6-0.13,1.04-0.27,1.57-0.43c0.48-0.16,1.06-0.35,1.43-0.52
	c0.72-0.33,1.49-0.7,2.13-1.07c0.56-0.34,1.11-0.69,1.65-1.05c0.49-0.34,0.91-0.67,1.36-1.02c1.7-1.34,3.06-2.63,4.29-3.9
	c2.46-2.53,4.52-5.01,6.46-7.49c3.87-4.95,7.21-9.86,10.34-14.67c6.21-9.62,11.42-18.8,15.67-26.86c4.25-8.05,7.49-14.99,9.63-20.05
	c0.53-1.28,1-2.42,1.41-3.41c0.41-1.07,0.76-1.97,1.04-2.71c0.47-1.3,0.72-1.99,0.72-1.99c0.03-0.07,0.07-0.19,0.09-0.27
	C191.86,161.32,188.62,154.84,182.62,152.83"/>
<path class="st4" d="M164.53,316l89.14,5.88l3.99-60.44l14.04-105.88c-32.46-13.91-65.68-16.1-99.68-6.57l-3.67,109.21L164.53,316z"
	/>
<path class="st5" d="M263.93,175.1l-6.31,14.97c-7.07,16.79-24.32,26.95-42.43,25.01l-45.25-4.85l-1.25,47.99l-3.81,57.81
	l89.14,5.88l3.99-60.44l8.82-66.51L263.93,175.1z"/>
<path class="st0" d="M166.3,289.17l-1.87,28.28l89.14,5.88l1.87-28.28C219.11,303.76,189.54,301.57,166.3,289.17"/>
<path class="st2" d="M207.19,143.3c0.05,5.32,1.75,10.31,5.72,14.86c6.76-3.72,12.58-8.45,17.75-13.89l1.91-28.95l-23.43-1.54
	L207.19,143.3z"/>
<path class="st3" d="M231.35,133.81l0.58-8.86l-23.43-1.54l-0.58,8.86c-0.43,6.47,4.47,12.06,10.95,12.49
	C225.33,145.19,230.92,140.29,231.35,133.81"/>
<path class="st2" d="M183.73,40.85l72.26,4.77l-3.9,59.1c-1.11,16.87-15.69,29.64-32.55,28.52l-20.53-1.35
	c-11.7-0.77-20.57-10.88-19.79-22.59L183.73,40.85z"/>
<path class="st6" d="M198.92,0.54c-1.06,0.63-1.72,1.76-2.21,2.9c-1.94,4.45-2.02,9.68-0.23,14.19c-8.41-2.19-17.82-4.27-25.4-0.01
	c-5.45,3.06-8.93,9.33-8.66,15.57c0.25,5.62,3.23,10.72,6.37,15.38c-5.83,3.6-10.07,11.26-6.91,17.34c1.08,2.08,2.87,3.69,4.62,5.25
	c4.81,4.29,14.44,12.86,14.44,12.86l2.43-34.38l59.92,4.37c-2.47,8.11-4.94,16.85-2.27,24.9c2.02,6.09,6.72,10.86,11.27,15.39
	c5.31-11.5,8.64-23.9,9.83-36.5c0.38-3.99,0.51-8.14-0.89-11.9c-2.39-6.4-9.52-10.65-16.28-9.72c-9.18-15.5-23.36-27.98-39.89-35.13
	C203.1,0.21,200.76-0.55,198.92,0.54"/>
<path class="st7" d="M255.09,38.53c-3-1.9-6.61-2.83-10.14-2.34c-3.64-6.14-8.07-11.79-13.11-16.84c-0.73-0.03-1.45-0.07-2.18-0.07
	c-5.74,0.06-7.52,2.37-6.17,7.97c0.28,1.17,0.32,2.52-0.44,3.45c-1.19,1.46-3.47,1.05-5.28,0.54c-3.95-1.13-7.96-2.2-12.07-2.33
	c-0.7-0.02-1.42-0.01-2.04,0.32c-0.8,0.43-1.26,1.32-1.44,2.21c-0.55,2.75,1.05,5.45,2.74,7.69c2.44,3.24,5.26,6.1,8.7,8.29
	c3.76,2.4,7.76,3.97,11.87,5.31c6.54,0.48,12.77,0.93,17.75,1.29c-0.22,0.74-0.45,1.48-0.67,2.23
	C247.02,55.82,264.54,47.7,255.09,38.53"/>
<path class="st7" d="M211.43,25.28c-1.05-4.81-0.54-9.85,3.2-13.31c1.42-1.31,2.98-2.31,4.63-3.06c-4.47-3.05-9.23-5.69-14.2-7.84
	c-1.96-0.85-4.31-1.6-6.15-0.51c-1.06,0.63-1.72,1.76-2.21,2.9c-1.94,4.45-2.02,9.68-0.23,14.19c-8.41-2.19-17.82-4.27-25.4-0.01
	c-5.45,3.06-8.93,9.33-8.66,15.57c0.25,5.62,3.23,10.72,6.37,15.38c-5.83,3.6-10.07,11.26-6.91,17.34c1.08,2.08,2.87,3.69,4.62,5.25
	c4.81,4.29,14.44,12.86,14.44,12.86l2.43-34.38c0,0,6.05,0.44,14.6,1.06C197.06,50.64,171.22,12.57,211.43,25.28"/>
<path class="st7" d="M239.91,70.11c-0.12,2.98,0.17,5.94,1.12,8.8c2.02,6.09,6.72,10.86,11.27,15.39
	c4.98-10.79,8.2-22.38,9.56-34.19C260.06,63.92,251.67,72.39,239.91,70.11"/>
<path class="st2" d="M245.03,93.22c-1.52,6.3,0.82,12.28,5.24,13.35c4.42,1.07,9.24-3.18,10.76-9.48c1.52-6.3-0.82-12.28-5.24-13.35
	C251.37,82.68,246.56,86.92,245.03,93.22"/>
<path class="st0" d="M220.67,84.52c-0.28,4.23,2.17,7.84,5.48,8.06c3.3,0.22,6.21-3.04,6.49-7.27c0.28-4.23-2.17-7.84-5.48-8.06
	C223.85,77.04,220.95,80.29,220.67,84.52"/>
<path class="st0" d="M197.76,87.23c0.7-1.17,1.16-2.58,1.26-4.13c0.28-4.23-2.17-7.84-5.48-8.06c-3.3-0.22-6.21,3.04-6.49,7.27
	c-0.1,1.55,0.17,3.01,0.71,4.26L197.76,87.23z"/>
<path class="st4" d="M167.06,216.05l12.89-25.94l-7.94-41.13c-6.96,4.13-14.29,24.07-27.28,49.46L167.06,216.05z"/>
<path class="st4" d="M274.56,218.75l-12.18-29.05l9.31-34.14c5.78,3.66,23.86,20.71,36.64,46.02L274.56,218.75z"/>
<path class="st5" d="M156.09,207.41l10.96,8.65l2.89-5.82l0.82-24.25C166.97,193.08,156.82,206.09,156.09,207.41"/>
<path class="st5" d="M264.77,180.95l-2.39,8.75l12.18,29.05l15.05-7.65C288.07,208.58,271.91,188.17,264.77,180.95"/>
<path class="st8" d="M235.28,150.47c0.05-0.73,0.08-1.15,0.08-1.15s-0.05,0.42-0.14,1.15c-0.05,0.36-0.07,0.81-0.19,1.31
	c-0.11,0.5-0.23,1.06-0.36,1.68c-0.17,0.6-0.37,1.25-0.57,1.94c-0.26,0.67-0.48,1.4-0.79,2.11c-0.61,1.44-1.34,2.95-2.19,4.38
	c-1.67,2.88-3.77,5.49-5.49,7.27c-0.86,0.89-1.63,1.58-2.16,2c-0.25,0.22-0.17,0.16-0.54,0.41l-10.03-13.4l-9.84,11.95
	c-0.03-0.05-0.06-0.09-0.09-0.15c-0.24-0.46-0.54-1.12-0.83-2.01c-0.57-1.77-1-4.27-1.1-6.82c-0.13-2.54,0.03-5.1,0.23-7.01
	c0.2-1.91,0.43-3.17,0.43-3.17s-1.3,4.99-1.39,10.19c-0.08,2.59,0.16,5.2,0.65,7.14c0.24,0.95,0.55,1.79,0.79,2.34
	c0.16,0.33,0.39,0.79,0.39,0.79l0,0l10.25-5.49l11.01,7.05l0.03,0.01c0,0,0.61-0.47,0.9-0.75c0.6-0.53,1.35-1.29,2.2-2.26
	c1.68-1.94,3.67-4.72,5.22-7.75c0.79-1.5,1.45-3.07,1.98-4.56c0.28-0.74,0.47-1.49,0.69-2.18c0.16-0.71,0.32-1.38,0.46-1.99
	c0.1-0.63,0.19-1.2,0.26-1.71C235.25,151.28,235.24,150.83,235.28,150.47"/>
<path class="st9" d="M209.16,176.45c-0.12,1.78,1.23,3.32,3.01,3.44c1.78,0.12,3.32-1.23,3.43-3.01c0.12-1.78-1.23-3.32-3.01-3.44
	C210.81,173.32,209.27,174.67,209.16,176.45"/>
<path class="st9" d="M208.15,191.68c-0.12,1.78,1.23,3.32,3.01,3.44c1.78,0.12,3.32-1.23,3.43-3.01c0.12-1.78-1.23-3.32-3.01-3.44
	C209.81,188.56,208.27,189.9,208.15,191.68"/>
<path class="st2" d="M169.32,130.75l-9.38-9.07c-1.8-1.74-4.72-1.66-6.35,0.24c-8.1,9.46-14.73,22.68-19.9,39.57l23.76-8.45
	c6.08-2.16,11-6.74,13.58-12.66l0.13-0.31C172.56,136.9,171.82,133.18,169.32,130.75"/>
<path class="st3" d="M257.07,87.94c-2.3-1.3-4.51,0.94-5.99,2.53c-1.78,1.92-3.89,5.04-3.81,7.77c0.02,0.58,0.86,1.01,1.18,0.38
	c0.83-1.61,1.22-3.42,2.03-5.07c0.82-1.68,3.83-6.05,6.13-4.91C257.09,88.88,257.55,88.21,257.07,87.94"/>
<path class="st3" d="M248.16,95.47c-0.77,0.46-0.62,1.71,0.36,1.77c1.53,0.09,4.2-1.01,3.65,1.77c-0.37,1.86-2.15,2.98-3.85,3.44
	c-0.37,0.1-0.33,0.61,0.05,0.65c2.71,0.33,4.86-2.02,5.22-4.54C254.02,95.59,250.51,94.07,248.16,95.47"/>
<path class="st3" d="M232.5,92.51c-0.89-1.8-3.07-1.35-4.81-1.22c-2.83,0.22-5.82,0.41-8.42,1.59c-0.32,0.14-0.19,0.61,0.13,0.64
	c2.17,0.18,4.37-0.13,6.55-0.2c1.97-0.06,3.92,0.27,5.87,0.23C232.34,93.54,232.75,93.02,232.5,92.51"/>
<path class="st3" d="M207.11,108.78c-1.05-4.4-7.38-7.9-11.67-6.61c-0.97,0.29-0.85,1.54,0.12,1.71c2.06,0.36,3.94,0.64,5.78,1.72
	c1.77,1.04,2.61,2.64,3.88,4.13C205.92,110.55,207.36,109.84,207.11,108.78"/>
<path class="st7" d="M200.59,63.91c-2.85-3.38-6.65-5.03-11.05-4.32c-3.11,0.5-6.35,4.03-6.3,7.23c0.01,0.91,1.04,1.51,1.78,0.86
	c1.6-1.41,2.52-2.39,4.69-2.89c2.9-0.67,4.78,0.94,6.61,2.93C198.83,70.43,202.97,66.72,200.59,63.91"/>
<path class="st7" d="M235.21,70.54c-2.56,0.04-5.12,0.26-7.68,0.14c-1.72-0.08-3.39-0.34-5.07-0.71c-0.76-0.17-1.52-0.36-2.27-0.57
	c-0.19-0.08-0.35-0.14-0.49-0.19c-1.09-1.3-3.54-1.4-4.43,0.23c-0.06,0.11-0.12,0.23-0.19,0.34c-0.58,1.07-0.68,2.52,0.27,3.45
	c2.26,2.22,6.57,2.38,9.56,2.66c4.01,0.38,8.18-0.26,11.03-3.25C236.61,71.95,236.36,70.52,235.21,70.54"/>
<path class="st2" d="M186.61,115.53c3.13-7.94-12-1.32-14.3-0.22c-4.49,2.13-9.19,3.82-14.02,5.03c-0.35,0.09-0.72,0.18-1.01,0.4
	c-0.76,0.56-0.72,1.8-0.15,2.55c0.57,0.76,1.5,1.14,2.4,1.44C168.57,127.75,182.65,125.54,186.61,115.53"/>
<path class="st2" d="M171.01,131.33c1.55-0.69,3.47-0.63,4.16,1c0.53,1.26,0.4,2.7,0.2,4.05c-0.17,1.17-0.4,2.36-0.93,3.42
	s-1.41,2-2.54,2.36c-1.13,0.36-2.51,0.04-3.19-0.94c-1.41-2.04-0.77-6.23,0.33-8.24C169.42,132.3,170.16,131.7,171.01,131.33"/>
<path class="st3" d="M185.94,115.1c-0.26-1.77-1.74-3.52-3.65-2.76c-0.25,0.1-0.16,0.52,0.11,0.52c2.84-0.01,2.93,2.83,1.85,4.8
	c-0.66,1.21-1.77,2.01-2.51,3.14c-0.25,0.39,0.18,0.85,0.59,0.66C184.35,120.51,186.28,117.37,185.94,115.1"/>
<path class="st3" d="M170.35,130.93c-0.93-1.19-2.45-1.96-3.69-2.78c-2.27-1.5-4.03-3.5-5.94-5.4c-0.18-0.18-0.5,0.01-0.38,0.26
	c1.13,2.28,2.85,4.02,4.78,5.65c3.3,2.79,7.15,4.7,5.52,9.85c-0.22,0.69,0.84,1.03,1.06,0.34
	C172.61,136.05,172.17,133.26,170.35,130.93"/>
<path class="st3" d="M169.34,136.88c-2.91-3.01-7.07-4.01-9.45-7.75c-0.87-1.37-2.77-0.08-1.83,1.24c1.41,1.96,3.28,3.28,5.39,4.42
	c1.27,0.69,2.53,1.38,3.77,2.12c2.97,1.79,2.52,4.54,1.01,7.19c-0.2,0.35,0.27,0.63,0.51,0.33
	C170.78,142.01,171.76,139.37,169.34,136.88"/>
<path class="st3" d="M167.59,143.27c-0.73-1.51-3.4-2.6-4.81-3.26c-2.17-1.02-4.24-2.62-6.44-3.45c-0.63-0.24-1.31,0.52-0.96,1.12
	c1.19,2.08,4.04,2.92,6.16,3.78c1.54,0.62,3.04,1.25,4.45,2.15c2.78,1.78-2.13,5.06-3.23,5.82c-0.24,0.17-0.01,0.53,0.24,0.48
	C165.82,149.34,169.07,146.34,167.59,143.27"/>
<path class="st3" d="M160.72,146.79c-0.77-0.34-1.53-0.69-2.31-1.02c-0.75-0.32-1.61-0.77-2.42-0.52c-0.44,0.14-0.71,0.67-0.35,1.06
	c0.57,0.62,1.37,0.65,2.17,0.79c0.92,0.16,1.87,0.2,2.8,0.3C160.99,147.44,161.03,146.92,160.72,146.79"/>
<path class="st3" d="M155.81,144.84c-0.39-0.4-1,0.15-0.65,0.58c2.29,2.75,2.04,6.54-0.49,9c-2.18,2.11-5.58,1.7-8.18,0.85
	c-1.3-0.43-1.93,1.55-0.65,2.01c3.55,1.28,8.2,1.08,10.64-2.21C158.94,151.75,158.62,147.79,155.81,144.84"/>
<path class="st3" d="M176.56,134.13c0.04-3.94-4.1-4.77-6.8-2.69c-0.22,0.17-0.01,0.47,0.22,0.44c1.49-0.21,3.04-0.62,4.31,0.47
	c1.04,0.9,0.31,3.84,0.05,4.93c-0.31,1.29-1.04,2.39-2.16,3.1c-0.85,0.55-1.61,0.23-2.3,0.98c-0.22,0.24-0.23,0.51-0.04,0.77
	l0.26,0.37c0.21,0.31,0.64,0.36,0.97,0.32C175.42,142.33,176.52,137.83,176.56,134.13"/>
<path class="st9" d="M193.62,76.47c-0.73,0.41-0.73,1.81,0,3.12c0.74,1.31,1.93,2.05,2.66,1.64c0.73-0.41,0.73-1.81,0-3.12
	C195.55,76.79,194.35,76.06,193.62,76.47"/>
<path class="st9" d="M227.54,78.71c-0.73,0.41-0.73,1.81,0,3.12c0.74,1.31,1.93,2.05,2.66,1.64c0.73-0.41,0.73-1.81,0-3.12
	C229.46,79.03,228.27,78.3,227.54,78.71"/>
<path class="st3" d="M210.74,133.68c-2.08-1.08-4.63-1.12-6.92-1.38c-3.26-0.36-6.52-0.68-9.71-1.51c-2.28-0.6-4.43-1.59-6.4-2.88
	c-1.75-1.15-5.89-4.83-4.9-7.38c0.15-0.38-0.38-0.56-0.6-0.28c-1.17,1.44,0.18,3.77,1.07,5.05c1.66,2.4,3.92,4.1,6.52,5.39
	c2.77,1.38,5.81,1.98,8.85,2.43c1.97,0.29,3.95,0.46,5.93,0.68c1.94,0.21,3.95,0.75,5.9,0.64
	C210.85,134.42,211.15,133.89,210.74,133.68"/>
<path class="st3" d="M252.1,106.83c-1.22,2.93-1.63,6.18-2.9,9.14c-1.33,3.1-3.39,5.77-5.83,8.09c-4.5,4.28-10.23,7-15.65,9.87
	c-0.24,0.13-0.06,0.48,0.19,0.38c6-2.49,11.99-5.36,16.77-9.85c2.21-2.08,4.08-4.63,5.36-7.39c1.39-3.01,2.91-6.71,2.97-10.07
	C253,106.46,252.29,106.35,252.1,106.83"/>
<path class="st3" d="M256.74,83.52c-0.62-0.29-1.14,0.79-0.52,1.09c4.86,2.4,4.58,9.94,3.3,14.33c-1.47,5.06-5.91,8.53-11.26,7.27
	c-0.24-0.06-0.44,0.28-0.2,0.42c5.35,3.15,10.57-1.92,12.41-6.66C262.4,95.03,262.31,86.13,256.74,83.52"/>
<path class="st2" d="M283.25,359.73c1.94-1.9,3.67-3.95,5.5-6.19c3.21-3.95,4.2-9.26,2.61-14.1l-10.39-31.65
	c0,0-14.14,25.07-14.15,25.08c-2.05,3.64-2.45,7.61-1.77,11.68c0.65,3.91,2.52,7.31,1.25,11.36c-0.21,0.68-0.49,1.38-0.36,2.07
	c0.08,0.44,0.32,0.83,0.57,1.2c1.48,2.18,3.52,3.98,5.87,5.16c0.85,0.43,1.76,0.78,2.7,0.77c1.36-0.02,2.09,1.84,3.19,1.04
	C279.92,364.95,281.88,361.07,283.25,359.73"/>
<path class="st3" d="M278.13,339.33c-0.7,2.09-2.17,3.75-3.06,5.75c-0.85,1.91-0.99,4.1-1.24,6.15c-0.28,2.29-0.83,4.51-2.31,6.34
	c-0.76,0.94-4.02,3.02-4.39-0.02c-0.13-1.03,0.49-2.32,0.72-3.32c0.92-4.01-2.31-7.82-2.43-11.78c-0.14-4.75,3.33-9.54,4.99-13.83
	c0.06-0.15-0.17-0.23-0.25-0.1c-1.52,2.59-2.83,5.33-4.26,7.98c-1.27,2.35-1.98,4.93-1.69,7.59c0.32,2.91,2,5.47,2.29,8.41
	c0.2,2.09-1.76,4.59-0.54,6.61c2.42,3.99,6.93-0.23,8.2-2.94c1.07-2.29,1.12-4.95,1.33-7.41c0.29-3.47,2.34-6.04,3.03-9.33
	C278.59,339.17,278.21,339.08,278.13,339.33"/>
<path class="st3" d="M288.24,348.98c-3.28,2.22-4.87,6.36-7.2,9.44c-3.08,4.07-8.93,6.7-12.55,1.77c-0.36-0.49-1.35-0.22-1.08,0.45
	c1.68,4.21,6.86,4.39,10.38,2.59c5.63-2.88,6.37-9.9,10.68-13.94C288.64,349.14,288.42,348.86,288.24,348.98"/>
<path class="st3" d="M278.91,344.06c-0.12-0.38-0.64-0.22-0.58,0.16c0.38,2.42-0.44,4.51-1.9,6.4c-1,1.3-2.42,2.18-3.36,3.5
	c-0.35,0.48,0.32,0.94,0.75,0.74C277.52,353.09,280.1,348,278.91,344.06"/>
<path class="st3" d="M289.86,351.44c-2.97,3.62-5.77,7.4-8.83,10.94c-3.97,4.61-9.78,3.24-12.57-1.75c-0.23-0.4-0.8-0.12-0.71,0.3
	c0.95,4.54,6.27,7.12,10.52,5.22c2.3-1.02,3.74-2.81,5.18-4.81c2.29-3.19,4.54-6.41,6.75-9.65
	C290.33,351.5,290.01,351.26,289.86,351.44"/>
<path class="st9" d="M0.83,86.54c5.23,31.39,33.75,56.84,63.7,56.84s49.99-25.45,44.76-56.84c-5.23-31.39-33.75-56.84-63.7-56.84
	S-4.4,55.14,0.83,86.54"/>
<path class="st9" d="M98.1,104.14c1.67,10.28,10.77,18.62,20.33,18.62s15.96-8.34,14.29-18.62c-1.67-10.28-10.77-18.62-20.34-18.62
	C102.83,85.52,96.43,93.85,98.1,104.14"/>
<path class="st9" d="M135.36,86.87c0.89,5.49,5.75,9.94,10.86,9.94s8.52-4.45,7.63-9.94c-0.89-5.49-5.75-9.94-10.86-9.94
	S134.47,81.38,135.36,86.87"/>
<path class="st10" d="M74.2,53.8c-8.42-7.24-19.89-6.43-29.16-1.57c-6.7,3.51-15.21,13.01-9.3,20.62c1.29,1.66,3.08,3.03,5.16,3.38
	c5.34,0.91,8.54-6.85,12.46-9.44c1.92-1.27,4.33-1.9,6.51-1.61c2.57,0.34,3.82,1.42,5.04,3.35c0.54,0.85,0.32,3.03-0.28,4.52
	c-1.11,2.76-3.06,4.29-5.55,6.21c-7.45,5.75-11.79,14.68-8.64,24.05c1.19,3.53,4.72,5.86,8.43,5.6c4.1-0.29,8.52-4.4,7.68-8.84
	c-0.73-3.84-0.24-5.23,2.74-7.51c4.22-3.22,7.56-6.57,10.1-11.28C84.39,72.02,82.07,60.57,74.2,53.8"/>
<path class="st10" d="M70.1,120.25c-0.22-3.09-2.12-5.89-4.92-7.23c-2.03-0.97-4.41-1.11-6.54-0.39c-1.48,0.51-2.74,1.35-3.77,2.53
	c-1.02,1.19-1.68,2.55-1.98,4.09c-0.1,0.75-0.14,1.51-0.13,2.28c0.09,1.31,0.62,3.18,1.44,4.24c1.01,1.31,2.04,2.46,3.61,3.12
	c1.37,0.64,2.8,0.92,4.3,0.81c2.26-0.16,4.39-1.22,5.87-2.93c1.01-1.17,1.66-2.52,1.95-4.04c0-0.09,0.01-0.17,0.01-0.26
	C70.1,121.73,70.15,120.97,70.1,120.25"/>
</svg>
