<?xml version="1.0" encoding="utf-8"?>
<!-- Generator: Adobe Illustrator 23.0.1, SVG Export Plug-In . SVG Version: 6.00 Build 0)  -->
<svg version="1.1" id="Camada_1" xmlns="http://www.w3.org/2000/svg" xmlns:xlink="http://www.w3.org/1999/xlink" x="0px" y="0px"
	 viewBox="0 0 75.15 89.07" style="enable-background:new 0 0 75.15 89.07;" xml:space="preserve">
<style type="text/css">
	.st0{fill:#662D91;}
</style>
<path class="st0" d="M37.64,89.07c-0.37,0-0.76-0.1-1.09-0.3C35.06,87.86,0,66.2,0,45.6V2.3C0,1.17,0.97,0,2.1,0h71.09
	c1.13,0,1.96,1.17,1.96,2.3v43.38c0,20.6-35,42.18-36.49,43.09C38.34,88.97,38.01,89.07,37.64,89.07 M4.09,4.09V45.6
	c0,16.49,27.66,35.25,33.49,39.01c5.82-3.75,33.48-22.46,33.48-38.93V4.09H4.09z"/>
<path class="st0" d="M31.44,66.03c-1.13,0-2.05-0.91-2.05-2.04v-4.09c0-1.13,0.92-2.04,2.05-2.04c1.13,0,2.05,0.91,2.05,2.04v4.09
	C33.48,65.12,32.57,66.03,31.44,66.03"/>
<path class="st0" d="M31.44,42.34c-1.13,0-2.05-0.91-2.05-2.04v-4.09c0-1.13,0.92-2.04,2.05-2.04c1.13,0,2.05,0.91,2.05,2.04v4.09
	C33.48,41.42,32.57,42.34,31.44,42.34"/>
<path class="st0" d="M45,51.71h-4.09c-1.13,0-2.04-0.92-2.04-2.05c0-1.13,0.92-2.05,2.04-2.05H45c1.13,0,2.04,0.92,2.04,2.05
	C47.04,50.8,46.12,51.71,45,51.71"/>
<path class="st0" d="M21.3,51.71h-4.9c-1.13,0-2.04-0.92-2.04-2.05c0-1.13,0.92-2.05,2.04-2.05h4.9c1.13,0,2.04,0.92,2.04,2.05
	C23.34,50.8,22.43,51.71,21.3,51.71"/>
<path class="st0" d="M41.05,61.89c-0.52,0-1.05-0.2-1.44-0.6l-3.09-3.09c-0.8-0.8-0.8-2.09,0-2.89c0.8-0.8,2.09-0.8,2.89,0
	l3.09,3.09c0.8,0.8,0.8,2.09,0,2.89C42.1,61.69,41.57,61.89,41.05,61.89"/>
<path class="st0" d="M24.13,44.97c-0.52,0-1.05-0.2-1.44-0.6l-3.42-3.42c-0.8-0.8-0.8-2.09,0-2.89c0.8-0.8,2.09-0.8,2.89,0
	l3.41,3.41c0.8,0.8,0.8,2.09,0,2.89C25.18,44.77,24.65,44.97,24.13,44.97"/>
<path class="st0" d="M37.77,45.05c-0.52,0-1.05-0.2-1.44-0.6c-0.8-0.8-0.8-2.09,0-2.89l3.24-3.24c0.8-0.8,2.09-0.8,2.89,0
	c0.8,0.8,0.8,2.09,0,2.89l-3.24,3.24C38.81,44.85,38.29,45.05,37.77,45.05"/>
<path class="st0" d="M20.72,62.1c-0.52,0-1.05-0.2-1.44-0.6c-0.8-0.8-0.8-2.09,0-2.89l3.22-3.22c0.8-0.8,2.09-0.8,2.89,0
	c0.8,0.8,0.8,2.09,0,2.89l-3.22,3.22C21.76,61.91,21.24,62.1,20.72,62.1"/>
<path class="st0" d="M30.9,61.33c-6.26,0-11.36-5.1-11.36-11.36c0-6.26,5.09-11.36,11.36-11.36c6.26,0,11.36,5.1,11.36,11.36
	C42.26,56.24,37.17,61.33,30.9,61.33 M30.9,42.71c-4.01,0-7.27,3.26-7.27,7.27s3.26,7.27,7.27,7.27c4.01,0,7.27-3.26,7.27-7.27
	S34.91,42.71,30.9,42.71"/>
<path class="st0" d="M50.41,36.62c-1.13,0-2.05-0.91-2.05-2.04v-3.27c0-1.13,0.92-2.04,2.05-2.04c1.13,0,2.05,0.91,2.05,2.04v3.27
	C52.46,35.7,51.54,36.62,50.41,36.62"/>
<path class="st0" d="M50.41,18.64c-1.13,0-2.05-0.91-2.05-2.04v-3.27c0-1.13,0.92-2.04,2.05-2.04c1.13,0,2.05,0.91,2.05,2.04v3.27
	C52.46,17.72,51.54,18.64,50.41,18.64"/>
<path class="st0" d="M61.34,25.3h-4.09c-1.13,0-2.04-0.92-2.04-2.05s0.92-2.05,2.04-2.05h4.09c1.13,0,2.04,0.92,2.04,2.05
	S62.47,25.3,61.34,25.3"/>
<path class="st0" d="M42.54,25.3h-4.09c-1.13,0-2.04-0.92-2.04-2.05s0.91-2.05,2.04-2.05h4.09c1.13,0,2.04,0.92,2.04,2.05
	S43.67,25.3,42.54,25.3"/>
<path class="st0" d="M57.82,33.61c-0.52,0-1.05-0.2-1.45-0.6l-2.37-2.37c-0.8-0.8-0.8-2.09,0-2.89c0.8-0.8,2.09-0.8,2.89,0
	l2.37,2.37c0.8,0.8,0.8,2.09,0,2.89C58.87,33.41,58.35,33.61,57.82,33.61"/>
<path class="st0" d="M44.85,20.63c-0.52,0-1.05-0.2-1.45-0.6l-2.62-2.62c-0.8-0.8-0.8-2.09,0-2.89c0.8-0.8,2.09-0.8,2.89,0
	l2.62,2.62c0.8,0.8,0.8,2.09,0,2.89C45.89,20.43,45.37,20.63,44.85,20.63"/>
<path class="st0" d="M55.31,20.7c-0.52,0-1.05-0.2-1.44-0.6c-0.8-0.8-0.8-2.09,0-2.89l2.48-2.48c0.8-0.8,2.09-0.8,2.89,0
	c0.8,0.8,0.8,2.09,0,2.89l-2.48,2.48C56.35,20.5,55.83,20.7,55.31,20.7"/>
<path class="st0" d="M42.23,33.78c-0.52,0-1.05-0.2-1.44-0.6c-0.8-0.8-0.8-2.09,0-2.89l2.47-2.47c0.8-0.8,2.09-0.8,2.89,0
	c0.8,0.8,0.8,2.09,0,2.89l-2.47,2.47C43.28,33.58,42.75,33.78,42.23,33.78"/>
<path class="st0" d="M50.04,32.83c-4.87,0-8.83-3.96-8.83-8.83c0-4.87,3.96-8.83,8.83-8.83c4.87,0,8.83,3.96,8.83,8.83
	C58.87,28.87,54.91,32.83,50.04,32.83 M50.04,19.26c-2.62,0-4.75,2.13-4.75,4.74c0,2.61,2.13,4.74,4.75,4.74
	c2.62,0,4.74-2.13,4.74-4.74C54.79,21.38,52.66,19.26,50.04,19.26"/>
</svg>
