<?xml version="1.0" encoding="utf-8"?>
<!-- Generator: Adobe Illustrator 23.0.1, SVG Export Plug-In . SVG Version: 6.00 Build 0)  -->
<svg version="1.1" id="Camada_1" xmlns="http://www.w3.org/2000/svg" xmlns:xlink="http://www.w3.org/1999/xlink" x="0px" y="0px"
	 viewBox="0 0 123.24 123.54" style="enable-background:new 0 0 123.24 123.54;" xml:space="preserve">
<style type="text/css">
	.st0{fill:#FCDD7C;}
	.st1{fill:#F4ECCE;}
	.st2{fill:none;stroke:#004892;stroke-width:1.323;stroke-linecap:round;stroke-linejoin:round;stroke-miterlimit:10;}
	.st3{fill:#662D91;}
</style>
<path class="st0" d="M111.58,113.62l-87.04,9.84c-6.74,0.76-12.82-4.08-13.58-10.83L1.11,25.6C0.35,18.86,5.2,12.77,11.94,12.01
	l87.04-9.84c6.74-0.76,12.82,4.08,13.59,10.83l9.84,87.04C123.16,106.77,118.32,112.86,111.58,113.62"/>
<path class="st1" d="M110.49,117.46l-91.2,5.1c-7.06,0.39-13.11-5.01-13.5-12.08l-5.1-91.2c-0.4-7.06,5.01-13.11,12.07-13.5
	l91.2-5.1c7.06-0.4,13.11,5.01,13.5,12.08l5.1,91.2C122.96,111.02,117.55,117.07,110.49,117.46"/>
<path class="st2" d="M110.49,117.46l-91.2,5.1c-7.06,0.39-13.11-5.01-13.5-12.08l-5.1-91.2c-0.4-7.06,5.01-13.11,12.07-13.5
	l91.2-5.1c7.06-0.4,13.11,5.01,13.5,12.08l5.1,91.2C122.96,111.02,117.55,117.07,110.49,117.46z"/>
<path class="st3" d="M74.11,31.93c-2.01-0.79-4.23-0.47-5.94,0.86c-1.75,1.35-2.63,3.46-2.36,5.65c0.2,1.64,0.37,3.17,0.5,4.55
	c0.36,3.64-0.86,7.32-3.34,10.09c-0.86,0.96-1.66,1.86-2.42,2.7c-2.72-5.72-5.75-8.53-9.34-8.55c-8.35,0.98-11.1,8.86-12.7,16.44
	c-0.15,0.72-0.61,1.38-1.24,1.75c-0.37,0.22-0.96,0.45-1.66,0.24c-0.66-0.19-1.31-0.52-1.93-0.96c-0.51-0.37-0.87-0.93-0.97-1.55
	c-2.12-12.17,0.13-23.39,6.67-33.35c3.14-4.77,8.46-7.67,14-7.67c0.22,0,0.43,0,0.65,0.01c7.13,0.29,14.81,2.05,23.49,5.38
	c2.4,0.92,4.36,2.51,5.51,4.48c1.24,2.11,0.68,3.14,0.05,3.79c-0.39,0.41-1.05,0.46-1.54,0.14C78.77,34.12,76.34,32.81,74.11,31.93
	 M83.71,38.73c0.54-0.2,1.05-0.49,1.47-0.92c1.31-1.36,2.43-3.73,0.36-7.26c-1.49-2.53-3.96-4.56-6.97-5.71
	c-8.98-3.45-16.97-5.26-24.41-5.57c-6.79-0.26-13.37,3.16-17.18,8.96c-6.96,10.59-9.35,22.51-7.1,35.43c0.1,0.55,0.3,1.07,0.57,1.57
	l-5.11,17.45c-0.22,0.77,0.22,1.57,0.98,1.8c0.14,0.04,0.27,0.06,0.41,0.06c0.62,0,1.2-0.41,1.39-1.04l4.68-15.96
	c0.66,0.39,1.34,0.72,2.04,0.93c0.45,0.13,0.91,0.2,1.37,0.2c0.89,0,1.78-0.25,2.59-0.73c1.32-0.79,2.27-2.12,2.59-3.64
	c1.99-9.44,4.94-13.55,10.02-14.16c2.46,0.02,5.03,3.08,7.43,8.84c0.19,0.46,0.6,0.79,1.09,0.87c0.48,0.09,0.99-0.09,1.32-0.46
	c1.17-1.29,2.47-2.74,3.92-4.36c3.01-3.37,4.49-7.85,4.06-12.3c-0.14-1.41-0.31-2.96-0.52-4.62c-0.14-1.17,0.33-2.29,1.26-3.01
	c0.91-0.71,2.04-0.88,3.11-0.45c2.04,0.8,4.3,2.03,6.91,3.74c0.12,0.08,0.27,0.1,0.39,0.17c1.16,2.09,1.88,4.29,2.12,6.5l1.8,26.01
	l-3.42-1c-0.37-0.11-0.76-0.07-1.1,0.12c-0.34,0.18-0.59,0.49-0.69,0.86l-4.16,14.2c-0.81,2.76-3.71,4.34-6.47,3.54l-9.46-2.77
	c-0.76-0.23-1.57,0.21-1.8,0.98l-4.13,14.08c-0.22,0.76,0.21,1.57,0.98,1.79c0.14,0.04,0.27,0.06,0.41,0.06
	c0.63,0,1.2-0.41,1.39-1.04l3.72-12.7l8.07,2.37c0.76,0.22,1.52,0.33,2.27,0.33c3.51,0,6.75-2.3,7.78-5.83l3.76-12.82l4.03,1.18
	c0.45,0.14,0.94,0.04,1.31-0.26c0.37-0.3,0.57-0.75,0.54-1.22l-1.95-28.14C85.14,42.7,84.58,40.67,83.71,38.73"/>
<path class="st3" d="M81.47,81.45l9.03,2.86c0.15,0.05,0.29,0.07,0.44,0.07c0.61,0,1.18-0.4,1.38-1.01
	c0.24-0.76-0.18-1.57-0.94-1.81l-9.03-2.86c-0.76-0.24-1.57,0.18-1.81,0.94C80.28,80.39,80.7,81.21,81.47,81.45"/>
<path class="st3" d="M89.57,88.67c0.61,0,1.18-0.39,1.38-1.01c0.24-0.76-0.18-1.58-0.94-1.81l-9.03-2.86
	c-0.76-0.24-1.58,0.18-1.81,0.95c-0.24,0.76,0.18,1.57,0.94,1.81l9.03,2.86C89.28,88.65,89.42,88.67,89.57,88.67"/>
<path class="st3" d="M103.58,84.74c-0.56-1.09-1.42-1.96-2.46-2.55c0.28-2.87-1.47-5.65-4.33-6.55c-1.59-0.5-3.28-0.36-4.76,0.41
	c-0.71,0.37-0.99,1.24-0.61,1.95c0.26,0.5,0.76,0.78,1.28,0.78c0.23,0,0.45-0.05,0.66-0.16c0.8-0.41,1.7-0.49,2.56-0.22
	c0.86,0.27,1.55,0.86,1.96,1.65c0.41,0.79,0.49,1.7,0.22,2.56c-0.24,0.76,0.18,1.57,0.94,1.82c0.85,0.27,1.55,0.85,1.96,1.65
	c0.41,0.8,0.49,1.7,0.22,2.56c-0.27,0.85-0.86,1.55-1.65,1.96c-0.8,0.41-1.7,0.49-2.56,0.22c-0.76-0.24-1.58,0.18-1.81,0.95
	c-0.27,0.85-0.86,1.55-1.65,1.96c-0.8,0.42-1.71,0.49-2.56,0.22c-0.85-0.27-1.55-0.86-1.96-1.65c-0.37-0.71-1.24-0.99-1.95-0.62
	c-0.71,0.37-0.99,1.24-0.62,1.95c0.77,1.48,2.07,2.57,3.66,3.08c0.63,0.2,1.26,0.29,1.88,0.29c2.23,0,4.31-1.21,5.43-3.17
	c0.2,0.02,0.41,0.05,0.61,0.05c0.99,0,1.97-0.24,2.87-0.71c1.48-0.77,2.57-2.07,3.08-3.66C104.5,87.91,104.36,86.22,103.58,84.74"/>
</svg>
