<?xml version="1.0" encoding="utf-8"?>
<!-- Generator: Adobe Illustrator 23.0.1, SVG Export Plug-In . SVG Version: 6.00 Build 0)  -->
<svg version="1.1" id="Camada_1" xmlns="http://www.w3.org/2000/svg" xmlns:xlink="http://www.w3.org/1999/xlink" x="0px" y="0px"
	 viewBox="0 0 123.24 123.54" style="enable-background:new 0 0 123.24 123.54;" xml:space="preserve">
<style type="text/css">
	.st0{fill:#FCDD7C;}
	.st1{fill:#D2F4FF;}
	.st2{fill:none;stroke:#004892;stroke-width:1.323;stroke-linecap:round;stroke-linejoin:round;stroke-miterlimit:10;}
	.st3{fill:#662D91;}
	.st4{fill:#FFFFFF;}
	.st5{fill:none;stroke:#662D91;stroke-width:4;stroke-miterlimit:10;}
</style>
<path class="st0" d="M111.58,113.62l-87.04,9.84c-6.74,0.76-12.82-4.08-13.58-10.83L1.11,25.6C0.35,18.86,5.2,12.77,11.94,12.01
	l87.04-9.84c6.74-0.76,12.82,4.08,13.59,10.83l9.84,87.04C123.16,106.77,118.32,112.86,111.58,113.62"/>
<path class="st1" d="M110.49,117.46l-91.2,5.1c-7.06,0.39-13.11-5.01-13.5-12.08l-5.1-91.2c-0.4-7.06,5.01-13.11,12.07-13.5
	l91.2-5.1c7.06-0.4,13.11,5.01,13.5,12.08l5.1,91.2C122.96,111.02,117.55,117.07,110.49,117.46"/>
<path class="st2" d="M110.49,117.46l-91.2,5.1c-7.06,0.39-13.11-5.01-13.5-12.08l-5.1-91.2c-0.4-7.06,5.01-13.11,12.07-13.5
	l91.2-5.1c7.06-0.4,13.11,5.01,13.5,12.08l5.1,91.2C122.96,111.02,117.55,117.07,110.49,117.46z"/>
<path class="st3" d="M37.68,45.41c-13.17,0-18.66-12.53-18.71-12.66c-0.12-0.27-0.1-0.58,0.04-0.84
	c0.24-0.44,5.97-10.79,18.68-10.79c12.72,0,18.25,10.36,18.48,10.8c0.13,0.26,0.14,0.56,0.03,0.83
	C56.14,32.88,50.74,45.41,37.68,45.41 M20.96,32.43c1.04,2.14,6.05,11.03,16.72,11.03c10.58,0,15.51-8.93,16.52-11.04
	c-1.11-1.86-6.23-9.35-16.52-9.35C27.53,23.07,22.14,30.59,20.96,32.43"/>
<path class="st3" d="M37.68,42.28c-5.69,0-10.31-4.63-10.31-10.31c0-5.68,4.63-10.31,10.31-10.31c5.69,0,10.31,4.63,10.31,10.31
	C47.99,37.65,43.37,42.28,37.68,42.28 M37.68,23.6c-4.61,0-8.36,3.75-8.36,8.36c0,4.61,3.75,8.37,8.36,8.37
	c4.61,0,8.36-3.75,8.36-8.37C46.05,27.35,42.29,23.6,37.68,23.6"/>
<path class="st3" d="M37.68,27.43c-0.28,0-0.55,0.03-0.81,0.08c0.46,0.5,0.74,1.17,0.74,1.91c0,1.57-1.27,2.83-2.83,2.83
	c-0.6,0-1.16-0.19-1.62-0.51c0,0.08-0.01,0.15-0.01,0.22c0,2.5,2.03,4.53,4.53,4.53s4.53-2.03,4.53-4.53S40.18,27.43,37.68,27.43"/>
<path class="st3" d="M82.8,47.05c-0.46,0.76-1.82,0.78-3.04,0.04c-1.22-0.74-1.83-1.96-1.36-2.72c0.46-0.76,1.82-0.78,3.04-0.04
	C82.65,45.07,83.26,46.29,82.8,47.05"/>
<path class="st3" d="M82.24,50.58c-2.79,0-5.26-0.79-7.01-2.28c-1.68-1.44-2.57-3.41-2.57-5.72c0-2.81,1.84-5.47,4.68-6.77
	c1.66-0.76,2.63-1.66,3.02-4.22c1.83-12.01,6.13-13.4,9.21-13.4c6.11,0,7.98,6.77,9.02,13.4c0.39,2.54,1.49,3.53,3.02,4.22
	c2.84,1.3,4.68,3.96,4.68,6.77c0,2.31-0.89,4.28-2.57,5.72c-2.26,1.93-5.72,2.68-9.51,2.08c-0.51-0.08-0.85-0.56-0.77-1.06
	c0.08-0.5,0.56-0.85,1.06-0.77c3.2,0.51,6.2-0.11,8.01-1.66c1.28-1.09,1.92-2.54,1.92-4.31c0-2.09-1.41-4.08-3.6-5.08
	c-2.42-1.11-3.65-2.79-4.09-5.63c-1.62-10.42-4.54-11.82-7.18-11.82c-4.94,0-6.54,6.32-7.37,11.82c-0.51,3.36-2,4.68-4.09,5.63
	c-2.18,1-3.6,2.99-3.6,5.08c0,1.77,0.65,3.22,1.92,4.31c1.82,1.55,4.81,2.17,8.01,1.66c0.5-0.08,0.98,0.26,1.06,0.77
	c0.08,0.51-0.27,0.98-0.77,1.06C83.89,50.52,83.05,50.58,82.24,50.58"/>
<path class="st3" d="M96.15,47.05c0.46,0.76,1.82,0.78,3.04,0.04c1.22-0.74,1.83-1.96,1.36-2.72c-0.46-0.76-1.82-0.78-3.04-0.04
	C96.3,45.07,95.69,46.29,96.15,47.05"/>
<path class="st3" d="M89.45,52.04c-0.04,0-0.08,0-0.11,0C87,52,84.87,50.9,83.5,49.02l-0.27-0.37c-0.86-1.18-1.66-2.31-3.33-3.08
	c-0.46-0.21-0.67-0.77-0.45-1.23c0.22-0.46,0.77-0.67,1.23-0.45c2.11,0.98,3.14,2.41,4.05,3.67l0.26,0.36
	c1.03,1.41,2.62,2.23,4.37,2.26h0.09c1.69,0,3.25-0.76,4.29-2.09c0.14-0.18,0.28-0.37,0.42-0.55c0.95-1.25,2.02-2.67,4.11-3.64
	c0.47-0.21,1.02-0.01,1.23,0.45c0.21,0.46,0.01,1.01-0.45,1.23c-1.67,0.77-2.51,1.89-3.41,3.08c-0.14,0.19-0.29,0.39-0.44,0.57
	C93.81,51.02,91.72,52.04,89.45,52.04"/>
<path class="st3" d="M78.17,75.24c0.04-0.02,0.09-0.05,0.13-0.08c-2.86-0.27-4.96-0.69-6.49-1.14c1.47,1.03,3.19,1.94,5.29,2.66
	C77.18,76.26,77.45,75.73,78.17,75.24"/>
<path class="st3" d="M98.71,75.26c0.72,0.51,0.95,1.09,1.01,1.54c2.55-0.79,4.56-1.84,6.09-3.01c-1.57,0.53-3.88,1.07-7.25,1.38
	C98.6,75.19,98.66,75.22,98.71,75.26"/>
<path class="st3" d="M88.32,73.41l0.15,0c0.01,0,0.02,0,0.03,0c8.71,0.28,13.58-0.56,16.18-1.35c-3.55,0.55-9.52,1.29-16.29,1.29
	c-6.84,0-12.86-0.77-16.4-1.34C74.59,72.81,79.5,73.69,88.32,73.41"/>
<path class="st3" d="M70.17,73.47c-1.49-0.6-2.07-1.14-2.2-1.28c-0.14-0.15-0.22-0.33-0.25-0.52l-0.01,0
	c0.99,5.89,4.77,10.93,9.35,14.2v-2.53C73.96,80.81,71.38,77.38,70.17,73.47"/>
<path class="st3" d="M108.83,72.19c-0.13,0.14-0.71,0.69-2.21,1.29c-1.2,3.9-3.79,7.33-6.89,9.87v2.53
	c4.59-3.28,8.37-8.32,9.36-14.2l-0.01,0C109.04,71.86,108.96,72.04,108.83,72.19"/>
<path class="st3" d="M78.06,76.99c-0.33-0.1-0.65-0.2-0.96-0.3c-0.02,0.12-0.03,0.23-0.03,0.33v6.33c0.32,0.26,0.65,0.52,0.99,0.77
	v-7.1C78.05,77.01,78.06,77,78.06,76.99"/>
<path class="st3" d="M98.74,87.3c0,5.96-4.88,10.83-10.83,10.83c-5.44,0-9.85-4.41-9.85-9.85v-1.73c-0.33-0.21-0.66-0.43-0.99-0.67
	v2.4c0,5.98,4.86,10.84,10.84,10.84c6.52,0,11.82-5.3,11.82-11.82v-1.42c-0.33,0.23-0.66,0.45-0.99,0.67V87.3z"/>
<path class="st3" d="M99.71,76.79c-0.32,0.1-0.64,0.2-0.98,0.29v7.03c0.33-0.25,0.66-0.5,0.99-0.77v-6.33
	C99.73,76.94,99.72,76.87,99.71,76.79"/>
<path class="st3" d="M89.39,75.52c0.14-0.03,0.27-0.07,0.41-0.1c-0.14,0-0.28,0-0.41-0.01V75.52z"/>
<path class="st3" d="M80.5,75.32c-0.78-0.04-1.52-0.1-2.21-0.16c-0.04,0.03-0.09,0.05-0.13,0.08c-0.72,0.49-0.99,1.02-1.07,1.45
	c0.31,0.11,0.63,0.21,0.96,0.31C78.07,76.32,79.05,75.7,80.5,75.32"/>
<path class="st3" d="M87.09,75.42c0.1,0.03,0.21,0.06,0.31,0.09v-0.1C87.3,75.41,87.2,75.42,87.09,75.42"/>
<path class="st3" d="M98.71,75.26c-0.05-0.03-0.11-0.06-0.16-0.1c-0.71,0.07-1.47,0.12-2.28,0.17c1.48,0.33,2.47,0.93,2.47,1.69
	v0.07c0.34-0.09,0.65-0.19,0.98-0.29C99.66,76.35,99.43,75.77,98.71,75.26"/>
<path class="st3" d="M78.05,84.11c-0.34-0.24-0.67-0.5-0.99-0.77v2.53c0.33,0.23,0.66,0.45,0.99,0.67V84.11z"/>
<path class="st3" d="M98.74,84.11v2.43c0.33-0.21,0.66-0.44,0.99-0.67v-2.53C99.4,83.61,99.07,83.87,98.74,84.11"/>
<path class="st3" d="M97.75,77.32v7.48c0.33-0.22,0.66-0.45,0.99-0.69v-7.03C98.42,77.17,98.08,77.25,97.75,77.32"/>
<path class="st3" d="M97.75,87.3c0,5.43-4.42,9.85-9.84,9.85c-4.89,0-8.86-3.98-8.86-8.87v-1.13c-0.33-0.19-0.66-0.4-0.99-0.61v1.73
	c0,5.44,4.41,9.85,9.85,9.85c5.96,0,10.83-4.88,10.83-10.83v-0.75c-0.33,0.21-0.66,0.41-0.99,0.61V87.3z"/>
<path class="st3" d="M79.04,77.27c-0.34-0.09-0.67-0.18-0.99-0.27c0,0,0,0.01,0,0.02v7.1c0.33,0.24,0.66,0.46,0.99,0.68V77.27z"/>
<path class="st3" d="M96.27,75.33c-1.88,0.1-4.02,0.15-6.47,0.1c-0.14,0.03-0.28,0.06-0.41,0.1v1.03c3.99-1.13,7.99-0.2,8.36,0.49
	v0.28c0.33-0.08,0.67-0.15,0.99-0.24v-0.07C98.74,76.26,97.75,75.66,96.27,75.33"/>
<path class="st3" d="M87.41,76.55v-1.04c-0.1-0.03-0.21-0.06-0.31-0.09c-0.73,0.02-1.43,0.03-2.11,0.03c-1.64,0-3.13-0.04-4.49-0.12
	c-1.46,0.38-2.43,1-2.45,1.67c0.32,0.1,0.65,0.19,0.99,0.28v-0.19C79.53,76.32,83.61,75.3,87.41,76.55"/>
<path class="st3" d="M79.04,84.8c-0.33-0.22-0.66-0.44-0.99-0.68v2.43c0.33,0.21,0.66,0.41,0.99,0.61V84.8z"/>
<path class="st3" d="M97.75,87.15c0.33-0.19,0.66-0.39,0.99-0.6v-2.43c-0.33,0.24-0.66,0.47-0.99,0.68V87.15z"/>
<path class="st3" d="M87.41,78.29v9.58c0.27,0.02,0.53,0.03,0.79,0.03h0.39c0.26,0,0.53-0.01,0.79-0.03v-9.59
	c-0.33,0.01-0.65,0.02-0.99,0.02C88.06,78.3,87.73,78.3,87.41,78.29"/>
<path class="st3" d="M88.2,89.88c-0.26,0-0.53-0.01-0.79-0.02v1.57c0,0.55,0.44,0.99,0.99,0.99s0.99-0.44,0.99-0.99v-1.57
	c-0.27,0.01-0.53,0.02-0.79,0.02H88.2z"/>
<path class="st3" d="M87.99,76.75c-0.19-0.07-0.39-0.14-0.58-0.2v1.74c0.32,0.01,0.65,0.01,0.99,0.01c0.34,0,0.66-0.01,0.99-0.02
	v-1.73c-0.24,0.07-0.47,0.14-0.71,0.22C88.45,76.85,88.21,76.84,87.99,76.75"/>
<path class="st3" d="M88.2,87.9c-0.26,0-0.53-0.01-0.79-0.03v1.98c0.27,0.02,0.53,0.02,0.79,0.02h0.4c0.26,0,0.52-0.01,0.79-0.02
	v-1.98c-0.27,0.02-0.53,0.03-0.79,0.03H88.2z"/>
<path class="st3" d="M88.46,75.39h-0.11c-0.32,0.01-0.63,0.02-0.95,0.02v0.1c0.32,0.1,0.63,0.2,0.95,0.33
	c0.34-0.12,0.68-0.22,1.03-0.31v-0.11C89.08,75.41,88.78,75.4,88.46,75.39"/>
<path class="st3" d="M87.41,75.51v1.04c0.19,0.06,0.39,0.13,0.58,0.21c0.22,0.09,0.47,0.09,0.69,0.02c0.24-0.08,0.47-0.16,0.71-0.22
	v-1.02c-0.35,0.09-0.7,0.19-1.03,0.31C88.04,75.71,87.72,75.6,87.41,75.51"/>
<path class="st3" d="M105.8,73.78c0.3-0.1,0.57-0.2,0.82-0.3c0.05-0.17,0.11-0.35,0.16-0.52C106.48,73.23,106.15,73.51,105.8,73.78"
	/>
<path class="st3" d="M69.92,72.55c0.08,0.31,0.16,0.62,0.26,0.93c0.45,0.18,0.99,0.37,1.63,0.55C71.13,73.56,70.5,73.06,69.92,72.55
	"/>
<path class="st3" d="M68.69,71.4c0,0,0.1,0.02,0.29,0.06l0.69-0.12c0.01,0.09,0.04,0.17,0.05,0.26c0.56,0.11,1.33,0.25,2.29,0.4
	c-0.4-0.12-0.74-0.25-1.04-0.36c0.79-0.36,1.63-0.77,2.49-1.19c3.23-1.57,6.88-3.36,9.7-3.36c1.13,0,1.84,0.35,2.6,0.72
	c0.73,0.35,1.55,0.75,2.65,0.75c1.1,0,1.92-0.4,2.65-0.75c0.76-0.37,1.47-0.72,2.6-0.72c2.82,0,6.48,1.78,9.7,3.36
	c0.87,0.42,1.72,0.84,2.52,1.2c-0.32,0.13-0.71,0.27-1.17,0.4c1-0.15,1.8-0.3,2.38-0.4c0.02-0.11,0.04-0.21,0.06-0.31l0.83,0.14
	c0.09-0.02,0.15-0.03,0.15-0.03c-0.01,0.01-0.03,0.03-0.04,0.05l1.01,0.17c0.02-0.13,0.02-0.26-0.01-0.4
	c-0.08-0.33-0.32-0.59-0.63-0.7c-1.19-0.42-2.66-1.14-4.23-1.9c-3.42-1.67-7.29-3.55-10.57-3.55c-1.59,0-2.63,0.51-3.47,0.92
	c-0.64,0.31-1.14,0.55-1.78,0.55c-0.64,0-1.14-0.25-1.78-0.55c-0.84-0.41-1.88-0.92-3.47-0.92c-3.28,0-7.15,1.89-10.57,3.55
	c-1.56,0.76-3.04,1.48-4.23,1.9c-0.32,0.11-0.56,0.38-0.63,0.7c-0.03,0.13-0.03,0.26-0.01,0.39l1.07-0.18L68.69,71.4z"/>
<path class="st3" d="M78.3,75.16c1.85-1.16,5.68-1.61,9.12-0.67c0.06-0.49,0.47-0.88,0.98-0.88c0.52,0,0.94,0.4,0.98,0.91
	c3.34-0.8,7.29-0.55,9.17,0.65c3.37-0.31,5.68-0.85,7.25-1.38c0.35-0.27,0.67-0.54,0.97-0.83c0.12-0.43,0.21-0.86,0.3-1.29
	c-0.58,0.11-1.38,0.25-2.38,0.4c-2.6,0.79-7.47,1.63-16.18,1.35c-0.01,0-0.02,0-0.03,0l-0.16,0c-8.82,0.28-13.73-0.6-16.32-1.4
	c-0.96-0.16-1.73-0.29-2.29-0.4c0.06,0.32,0.13,0.63,0.2,0.94c0.58,0.51,1.21,1.01,1.89,1.48C73.34,74.47,75.44,74.89,78.3,75.16"/>
<path class="st3" d="M108.11,71.45c0,0-0.05,0.01-0.15,0.03l0.11,0.02C108.08,71.48,108.09,71.47,108.11,71.45"/>
<path class="st3" d="M68.69,71.4l0.1,0.1l0.19-0.03C68.79,71.42,68.69,71.4,68.69,71.4"/>
<path class="st3" d="M107.13,71.34c-0.02,0.1-0.04,0.21-0.06,0.31c0.43-0.08,0.73-0.14,0.89-0.17L107.13,71.34z"/>
<path class="st3" d="M69.66,71.34l-0.69,0.12c0.17,0.04,0.42,0.08,0.74,0.15C69.7,71.52,69.68,71.43,69.66,71.34"/>
<path class="st3" d="M106.77,72.95c-0.05,0.18-0.1,0.35-0.16,0.53c1.5-0.6,2.08-1.15,2.21-1.29c0.14-0.14,0.22-0.33,0.25-0.51
	l-1.01-0.17C107.71,72,107.27,72.48,106.77,72.95"/>
<path class="st3" d="M70.17,73.47c-0.09-0.31-0.18-0.61-0.26-0.92c-0.39-0.35-0.77-0.7-1.14-1.05l-1.07,0.18
	c0.03,0.19,0.11,0.37,0.25,0.52C68.1,72.33,68.69,72.87,70.17,73.47"/>
<path class="st3" d="M68.98,71.46l-0.19,0.03c0.36,0.36,0.74,0.71,1.13,1.06c-0.08-0.31-0.14-0.63-0.2-0.94
	C69.4,71.55,69.15,71.49,68.98,71.46"/>
<path class="st3" d="M108.07,71.5l-0.11-0.02c-0.16,0.04-0.47,0.09-0.89,0.17c-0.08,0.44-0.18,0.87-0.3,1.29
	C107.27,72.48,107.71,71.99,108.07,71.5"/>
<path class="st3" d="M89.39,75.41c0.14,0,0.28,0.01,0.41,0.01c2.28-0.52,4.72-0.49,6.47-0.1c0.81-0.04,1.57-0.1,2.28-0.17
	c-1.88-1.2-5.83-1.44-9.17-0.65c0,0.03,0.01,0.05,0.01,0.09V75.41z"/>
<path class="st3" d="M87.09,75.42c0.1,0,0.21,0,0.31-0.01V74.6c0-0.04,0.01-0.07,0.01-0.11c-3.44-0.94-7.27-0.49-9.12,0.67
	c0.69,0.07,1.43,0.12,2.21,0.16C82.27,74.87,84.74,74.78,87.09,75.42"/>
<path class="st3" d="M80.5,75.32c1.35,0.08,2.84,0.12,4.48,0.12c0.67,0,1.38-0.01,2.11-0.02C84.73,74.79,82.27,74.87,80.5,75.32"/>
<path class="st3" d="M89.8,75.42c2.45,0.05,4.59,0.01,6.47-0.1C94.52,74.93,92.08,74.9,89.8,75.42"/>
<path class="st3" d="M89.38,74.51c-0.04-0.51-0.46-0.9-0.98-0.9c-0.51,0-0.92,0.38-0.98,0.88c0.32,0.09,0.64,0.18,0.96,0.29
	C88.7,74.68,89.04,74.59,89.38,74.51"/>
<path class="st3" d="M87.41,75.41c0.31-0.01,0.62-0.01,0.94-0.02h0.11c0.32,0.01,0.62,0.01,0.93,0.02V74.6c0-0.03,0-0.06-0.01-0.09
	c-0.34,0.08-0.68,0.17-1.01,0.27c-0.31-0.11-0.63-0.21-0.95-0.3c0,0.04-0.01,0.07-0.01,0.11V75.41z"/>
<path class="st3" d="M58.08,77.08L58.08,77.08v6.65l-1.21,0.37v5.28c0,9.8-7.97,17.77-17.77,17.77c-9.8,0-17.77-7.97-17.77-17.77
	V67.71c0-1.42,1.16-2.58,2.58-2.58c1.43,0,2.58,1.16,2.58,2.58c0,0.67,0.54,1.21,1.21,1.21c0.67,0,1.21-0.54,1.21-1.21V60.6
	c0-1.42,1.16-2.58,2.58-2.58c1.43,0,2.58,1.16,2.58,2.58c0,0.67,0.54,1.21,1.21,1.21c0.67,0,1.21-0.54,1.21-1.21v-3.75
	c0-1.42,1.16-2.58,2.58-2.58c1.42,0,2.58,1.16,2.58,2.58v3.75c0,0.67,0.54,1.21,1.21,1.21c0.67,0,1.21-0.54,1.21-1.21
	c0-1.42,1.16-2.58,2.58-2.58c1.43,0,2.58,1.16,2.58,2.58v17.69c0,0.67,0.54,1.21,1.21,1.21v-5.19c0.06-1.17,0.53-2.04,1.21-2.63
	V60.6c0-2.76-2.25-5.01-5.01-5.01c-0.96,0-1.85,0.27-2.61,0.73c-0.27-2.52-2.4-4.48-4.98-4.48c-2.58,0-4.72,1.96-4.98,4.48
	c-0.76-0.47-1.65-0.73-2.61-0.73c-2.76,0-5.01,2.25-5.01,5.01v2.83c-0.75-0.46-1.64-0.72-2.58-0.72c-2.76,0-5.01,2.25-5.01,5.01
	v21.67c0,11.14,9.06,20.2,20.2,20.2c11.14,0,20.2-9.06,20.2-20.2V78.29C59.29,77.62,58.75,77.08,58.08,77.08"/>
<path class="st3" d="M50.48,87.24c-0.67,0-1.21-0.54-1.21-1.21V74.31c0-0.02,0-0.04,0-0.06c0.16-3.14,2.67-4.72,5.08-4.66
	c2.46,0.06,4.94,1.8,4.94,5.01v9.13c0,0.67-0.54,1.21-1.21,1.21c-0.67,0-1.21-0.54-1.21-1.21V74.6c0-1.99-1.62-2.56-2.58-2.59
	c-1.12-0.04-2.49,0.57-2.59,2.33v11.68C51.7,86.7,51.15,87.24,50.48,87.24"/>
<line class="st4" x1="27.7" y1="66.19" x2="27.7" y2="79.93"/>
<path class="st3" d="M27.7,81.14c-0.67,0-1.21-0.54-1.21-1.21V66.2c0-0.67,0.54-1.21,1.21-1.21c0.67,0,1.21,0.54,1.21,1.21v13.73
	C28.91,80.6,28.37,81.14,27.7,81.14"/>
<line class="st4" x1="35.29" y1="60.6" x2="35.29" y2="78.29"/>
<path class="st3" d="M35.29,79.5c-0.67,0-1.21-0.54-1.21-1.21V60.6c0-0.67,0.54-1.21,1.21-1.21c0.67,0,1.21,0.54,1.21,1.21v17.69
	C36.51,78.96,35.96,79.5,35.29,79.5"/>
<line class="st4" x1="42.89" y1="60.6" x2="42.89" y2="78.37"/>
<path class="st3" d="M42.89,79.59c-0.67,0-1.21-0.54-1.21-1.21V60.6c0-0.67,0.54-1.21,1.21-1.21c0.67,0,1.21,0.54,1.21,1.21v17.77
	C44.1,79.04,43.56,79.59,42.89,79.59"/>
<path class="st3" d="M38.49,93.41c-0.19,0-0.39-0.05-0.57-0.14c-0.59-0.32-0.81-1.05-0.5-1.64c2.23-4.16,7.29-6.84,12.9-6.84
	c0.67,0,1.21,0.54,1.21,1.21c0,0.67-0.54,1.21-1.21,1.21c-4.65,0-8.97,2.23-10.76,5.56C39.34,93.18,38.92,93.41,38.49,93.41"/>
<line class="st5" x1="62.29" y1="50.12" x2="19.29" y2="112.12"/>
</svg>
