<?xml version="1.0" encoding="utf-8"?>
<!-- Generator: Adobe Illustrator 23.0.1, SVG Export Plug-In . SVG Version: 6.00 Build 0)  -->
<svg version="1.1" id="Camada_1" xmlns="http://www.w3.org/2000/svg" xmlns:xlink="http://www.w3.org/1999/xlink" x="0px" y="0px"
	 viewBox="0 0 128.76 132.71" style="enable-background:new 0 0 128.76 132.71;" xml:space="preserve">
<style type="text/css">
	.st0{fill:#B6FFE5;}
	.st1{fill:none;stroke:#004892;stroke-width:0.669;stroke-linecap:round;stroke-linejoin:round;stroke-miterlimit:10;}
	.st2{fill:#FFFFFF;}
	.st3{fill:none;stroke:#231F20;stroke-width:0.93;stroke-miterlimit:10;}
	.st4{fill:#BE1E2D;}
	.st5{fill:#231F20;}
	.st6{fill:#3C3F68;}
	.st7{clip-path:url(#SVGID_2_);fill:url(#SVGID_3_);}
	.st8{fill:#999999;}
	.st9{fill:#FFC7A1;}
	.st10{fill:#6D553E;}
	.st11{fill:#CB4B57;}
	.st12{fill:#303351;}
	.st13{fill:none;stroke:#BE1E2D;stroke-width:0.679;stroke-linecap:round;stroke-linejoin:round;stroke-miterlimit:10;}
	.st14{fill:none;stroke:#BE1E2D;stroke-width:0.932;stroke-linecap:round;stroke-linejoin:round;stroke-miterlimit:10;}
	.st15{fill:none;stroke:#6D553E;stroke-width:0.932;stroke-linecap:round;stroke-linejoin:round;stroke-miterlimit:10;}
</style>
<path class="st0" d="M58.61,27.41l-41.4,67.49c-4.12,6.72,0.55,15.39,8.43,15.65l78.45,2.54c7.89,0.26,13.11-8.11,9.42-15.08
	L76.45,27.98C72.73,20.95,62.77,20.63,58.61,27.41"/>
<path class="st1" d="M56.3,24.11L14.1,95.96c-4.85,8.25,1.1,18.65,10.67,18.65h82.32c9.57,0,15.52-10.39,10.67-18.65l-42.2-71.85
	C71.24,16.76,60.61,16.76,56.3,24.11z"/>
<path class="st1" d="M18.4,79.55c0,1.4-1.12,2.53-2.5,2.53c-1.38,0-2.49-1.13-2.49-2.53c0-1.39,1.12-2.52,2.49-2.52
	C17.29,77.03,18.4,78.16,18.4,79.55z"/>
<path class="st1" d="M14.94,81.79c0,0.85-0.68,1.54-1.52,1.54s-1.52-0.69-1.52-1.54c0-0.85,0.68-1.54,1.52-1.54
	S14.94,80.94,14.94,81.79z"/>
<path class="st1" d="M106.29,56.3c0,1.4-1.12,2.53-2.5,2.53c-1.38,0-2.49-1.13-2.49-2.53c0-1.39,1.12-2.52,2.49-2.52
	C105.18,53.78,106.29,54.91,106.29,56.3z"/>
<path class="st1" d="M43.01,31.6c0,1.4-1.12,2.53-2.5,2.53c-1.38,0-2.49-1.13-2.49-2.53c0-1.39,1.12-2.52,2.49-2.52
	C41.89,29.08,43.01,30.2,43.01,31.6z"/>
<line class="st1" x1="35.08" y1="66.53" x2="12.56" y2="66.53"/>
<line class="st1" x1="18.03" y1="68.99" x2="0.33" y2="68.99"/>
<line class="st1" x1="115.57" y1="49.13" x2="127.29" y2="49.13"/>
<line class="st1" x1="110.13" y1="49.13" x2="113.78" y2="49.13"/>
<line class="st1" x1="99.62" y1="49.13" x2="107.98" y2="49.13"/>
<line class="st1" x1="99.69" y1="51.19" x2="111.42" y2="51.19"/>
<line class="st1" x1="94.25" y1="51.19" x2="97.9" y2="51.19"/>
<line class="st1" x1="83.75" y1="51.19" x2="92.1" y2="51.19"/>
<line class="st1" x1="33.58" y1="117.43" x2="7.12" y2="117.43"/>
<line class="st1" x1="40.51" y1="117.43" x2="36.86" y2="117.43"/>
<line class="st1" x1="81.21" y1="118.23" x2="107.67" y2="118.23"/>
<line class="st1" x1="73.63" y1="118.23" x2="77.28" y2="118.23"/>
<line class="st1" x1="87.72" y1="123.49" x2="99.45" y2="123.49"/>
<line class="st1" x1="82.28" y1="123.49" x2="85.93" y2="123.49"/>
<line class="st1" x1="71.77" y1="123.49" x2="80.13" y2="123.49"/>
<path class="st2" d="M123.63,90.98V37.89c0-3.43-2.81-6.24-6.24-6.24s-6.24,2.81-6.24,6.24v53.09c-2.82,1.97-4.66,5.24-4.66,8.94
	c0,6.03,4.88,10.91,10.91,10.91s10.91-4.88,10.91-10.91C128.29,96.22,126.44,92.95,123.63,90.98"/>
<path class="st3" d="M123.63,90.98V37.89c0-3.43-2.81-6.24-6.24-6.24s-6.24,2.81-6.24,6.24v53.09c-2.82,1.97-4.66,5.24-4.66,8.94
	c0,6.03,4.88,10.91,10.91,10.91s10.91-4.88,10.91-10.91C128.29,96.22,126.44,92.95,123.63,90.98z"/>
<path class="st4" d="M121.5,92.44V47.99h-8.24v44.45c-2.64,1.46-4.43,4.27-4.43,7.5c0,4.72,3.83,8.55,8.55,8.55
	c4.72,0,8.55-3.83,8.55-8.55C125.93,96.71,124.14,93.9,121.5,92.44"/>
<path class="st5" d="M123.51,89.14H120c-0.16,0-0.29-0.13-0.29-0.29v-0.21c0-0.16,0.13-0.29,0.29-0.29h3.51
	c0.16,0,0.29,0.13,0.29,0.29v0.21C123.8,89.01,123.67,89.14,123.51,89.14"/>
<path class="st5" d="M123.51,77.59H120c-0.16,0-0.29-0.13-0.29-0.29v-0.21c0-0.16,0.13-0.29,0.29-0.29h3.51
	c0.16,0,0.29,0.13,0.29,0.29v0.21C123.8,77.45,123.67,77.59,123.51,77.59"/>
<path class="st5" d="M123.64,85.29h-2.2c-0.16,0-0.29-0.13-0.29-0.29v-0.21c0-0.16,0.13-0.29,0.29-0.29h2.2
	c0.16,0,0.29,0.13,0.29,0.29V85C123.93,85.16,123.8,85.29,123.64,85.29"/>
<path class="st5" d="M123.64,81.44h-2.2c-0.16,0-0.29-0.13-0.29-0.29v-0.21c0-0.16,0.13-0.29,0.29-0.29h2.2
	c0.16,0,0.29,0.13,0.29,0.29v0.21C123.93,81.3,123.8,81.44,123.64,81.44"/>
<path class="st5" d="M123.45,66.03h-3.51c-0.16,0-0.29-0.13-0.29-0.29v-0.21c0-0.16,0.13-0.29,0.29-0.29h3.51
	c0.16,0,0.29,0.13,0.29,0.29v0.21C123.74,65.89,123.61,66.03,123.45,66.03"/>
<path class="st5" d="M123.57,73.73h-2.2c-0.16,0-0.29-0.13-0.29-0.29v-0.21c0-0.16,0.13-0.29,0.29-0.29h2.2
	c0.16,0,0.29,0.13,0.29,0.29v0.21C123.87,73.6,123.74,73.73,123.57,73.73"/>
<path class="st5" d="M123.57,69.88h-2.2c-0.16,0-0.29-0.13-0.29-0.29v-0.21c0-0.16,0.13-0.29,0.29-0.29h2.2
	c0.16,0,0.29,0.13,0.29,0.29v0.21C123.87,69.75,123.74,69.88,123.57,69.88"/>
<path class="st5" d="M123.38,54.47h-3.51c-0.16,0-0.29-0.13-0.29-0.29v-0.21c0-0.16,0.13-0.29,0.29-0.29h3.51
	c0.16,0,0.29,0.13,0.29,0.29v0.21C123.68,54.34,123.55,54.47,123.38,54.47"/>
<path class="st5" d="M123.51,62.17h-2.2c-0.16,0-0.29-0.13-0.29-0.29v-0.21c0-0.16,0.13-0.29,0.29-0.29h2.2
	c0.16,0,0.29,0.13,0.29,0.29v0.21C123.8,62.04,123.67,62.17,123.51,62.17"/>
<path class="st5" d="M123.51,58.32h-2.2c-0.16,0-0.29-0.13-0.29-0.29v-0.21c0-0.16,0.13-0.29,0.29-0.29h2.2
	c0.16,0,0.29,0.13,0.29,0.29v0.21C123.8,58.19,123.67,58.32,123.51,58.32"/>
<path class="st5" d="M123.32,42.91h-3.51c-0.16,0-0.29-0.13-0.29-0.29v-0.21c0-0.16,0.13-0.29,0.29-0.29h3.51
	c0.16,0,0.29,0.13,0.29,0.29v0.21C123.61,42.78,123.48,42.91,123.32,42.91"/>
<path class="st5" d="M123.45,50.62h-2.2c-0.16,0-0.29-0.13-0.29-0.29v-0.21c0-0.16,0.13-0.29,0.29-0.29h2.2
	c0.16,0,0.29,0.13,0.29,0.29v0.21C123.74,50.48,123.61,50.62,123.45,50.62"/>
<path class="st5" d="M123.45,46.76h-2.2c-0.16,0-0.29-0.13-0.29-0.29v-0.21c0-0.16,0.13-0.29,0.29-0.29h2.2
	c0.16,0,0.29,0.13,0.29,0.29v0.21C123.74,46.63,123.61,46.76,123.45,46.76"/>
<path class="st6" d="M55.09,65.91c0,0-5.04,3.96-7.64,10.24c-2.03,4.9-3.79,32.14-4.22,36.81c-0.43,4.67,0.31,15.35,0.31,15.35
	s7.99,3.3,21.06,4.22c13.68,0.96,22.27-2.19,22.27-2.19s1.26-10.74,1.26-16.31c0-5.56,0.34-29.69-2.42-37.16
	C83,69.6,79.14,65.91,79.14,65.91H55.09z"/>
<g>
	<defs>
		<path id="SVGID_1_" d="M66.35,17.04c-11.95-1.57-21.95,2.84-22.05,5.68c-0.1,2.84-0.1,8.82-0.2,11.17
			c-0.1,2.35-0.69,4.21-1.86,8.92c-1.18,4.7,1.37,13.82,5.97,19.89c4.61,6.07,18.13,5.88,18.13,5.88s13.53,0.2,18.13-5.88
			c4.61-6.08,7.16-15.19,5.98-19.89c-1.18-4.71-1.76-6.57-1.86-8.92c-0.1-2.35-0.1-8.33-0.2-11.17c-0.08-2.43-7.41-6.01-17.02-6.01
			C69.76,16.71,68.07,16.81,66.35,17.04"/>
	</defs>
	<clipPath id="SVGID_2_">
		<use xlink:href="#SVGID_1_"  style="overflow:visible;"/>
	</clipPath>
	
		<linearGradient id="SVGID_3_" gradientUnits="userSpaceOnUse" x1="-403.1199" y1="5695.6768" x2="-402.1199" y2="5695.6768" gradientTransform="matrix(0 -50.3562 -50.3562 0 286879.25 -20232.4258)">
		<stop  offset="0" style="stop-color:#FFC297"/>
		<stop  offset="0.4189" style="stop-color:#FFC297"/>
		<stop  offset="0.6748" style="stop-color:#FF9685"/>
		<stop  offset="0.8817" style="stop-color:#FF7979"/>
		<stop  offset="1" style="stop-color:#FF6E75"/>
	</linearGradient>
	<rect x="41.06" y="15.47" class="st7" width="50.57" height="53.31"/>
</g>
<path class="st8" d="M41.96,45.4c0,0,2.38-6.14,2.77-8.36c0.39-2.22,1.17-11.5,1.17-11.5s13.98,3.13,16.33,1.18
	c0,0,8.89,5.62,18.42-2.62c0,0,3.4,4.57,7.32,7.06c0,0-0.26,5.36,0,8.36c0.26,3.01,2.77,5.88,2.77,5.88s3.5-8.63,4.16-13.07
	c0.65-4.44,0.13-11.63-0.78-13.07c-0.92-1.44-0.65-5.88-2.48-7.45c-1.83-1.57-2.87-1.05-4.31-2.61c-1.44-1.57-3.01-4.31-6.01-5.23
	C78.3,3.06,73.99,2.8,71.25,2.14c-2.74-0.65-4.44-1.18-6.53-1.44c-2.09-0.26-5.49,1.17-8.23,1.7c-2.74,0.52-5.23,2.22-7.45,3.53
	c-2.22,1.31-3.4,1.57-4.7,3.4c-1.31,1.83-2.53,0.13-2.38,3.4C42.11,16,40.54,17.3,39.1,19c-1.44,1.7-3.14,4.7-2.22,8.49
	c0.91,3.79,1.83,9.67,2.22,11.89C39.5,41.6,41.96,45.4,41.96,45.4"/>
<path class="st9" d="M45.38,47.75c0,3.32-2.14,6.01-4.77,6.01c-2.63,0-4.77-2.69-4.77-6.01c0-3.32,2.14-6.01,4.77-6.01
	C43.24,41.74,45.38,44.43,45.38,47.75"/>
<path class="st9" d="M96.4,47.75c0,3.32-2.14,6.01-4.77,6.01c-2.63,0-4.77-2.69-4.77-6.01c0-3.32,2.14-6.01,4.77-6.01
	C94.26,41.74,96.4,44.43,96.4,47.75"/>
<path class="st10" d="M58.96,31.77c-0.38-0.4-6.53-2.63-8.06-2.25c-1.53,0.38-0.76,1.65,0,1.86c0.76,0.21,6.66,2.89,7.68,2.84
	C59.6,34.19,59.51,32.37,58.96,31.77"/>
<path class="st10" d="M73.73,31.05c0.38-0.4,6.53-2.63,8.06-2.25c1.53,0.38,0.76,1.65,0,1.87c-0.76,0.21-6.66,2.89-7.68,2.84
	C73.1,33.47,73.18,31.64,73.73,31.05"/>
<path class="st11" d="M77.5,59.11c0,3.48-4.99,2.64-11.15,2.64c-6.16,0-11.15,0.83-11.15-2.64c0-3.48,4.99-6.29,11.15-6.29
	C72.51,52.81,77.5,55.63,77.5,59.11"/>
<path class="st9" d="M67.81,81.68c0,0-0.95-1.25-1.21-1.58c-0.26-0.32,0.04-2.62-0.76-4.87c-0.38-1.09-2-2.96-2.37-3.51
	c-0.36-0.55-1.32,0.32-0.97,2.26c0.35,1.94,0.87,2.9,0.87,2.9s-5.82-6.18-7.63-5.87c-1.81,0.31,4.78,6.71,4.78,6.71
	s-6.68-7.04-8.22-6.06c-1.54,0.97,6.18,7.55,6.18,7.55s-5.57-5.37-7.11-4.4c-1.54,0.98,5.79,6.68,5.79,6.68s-4.05-3.96-5.44-3.26
	c-1.38,0.7,5.86,6.92,6.91,7.37c1.05,0.45,2.54,0.74,2.82,1.04c0.36,0.4,1.29,1.05,1.29,1.05L67.81,81.68z"/>
<path class="st12" d="M79.51,66.28c0,0,5.42,2.38,9.61,7.14c4.79,5.45,11.23,30.01,11.37,33.98c0.14,3.96-3.83,5.71-7.79,4.57
	c-3.96-1.13-31.41-24.59-31.41-24.59l6.02-7.03l19.31,12.71c0,0-6.85-15.97-7.78-20.5C78.06,68.71,79.51,66.28,79.51,66.28"/>
<path class="st13" d="M98.05,3.88c1.13,1.13,3.59,0.88,3.88,2.45c0.12,0.63-0.24,1.25-0.59,1.79c-0.71,1.12-1.42,2.24-2.14,3.36
	c-0.34,0.53-0.69,1.2-0.4,1.76c0.45,0.88,1.84,0.54,2.66,1.09c1.05,0.71,0.57,2.42-0.35,3.29c-0.92,0.88-2.18,1.47-2.72,2.62
	c-0.09,0.19-0.16,0.42-0.05,0.61c0.11,0.19,0.35,0.26,0.56,0.31c1.56,0.4,3.26,1.67,2.93,3.24c-0.22,1.03-1.2,1.67-1.97,2.38
	s-1.4,1.92-0.78,2.76c0.36,0.49,1.04,0.66,1.45,1.11c0.76,0.82,0.34,2.18-0.36,3.05c-0.7,0.87-1.66,1.57-2.07,2.61
	c-0.12,0.3-0.18,0.67,0,0.95c0.43,0.68,1.63,0.09,2.26,0.59c0.32,1,0.03,2.17-0.73,2.89c-0.53,0.51-1.36,1.06-1.1,1.75
	c0.14,0.37,0.55,0.56,0.83,0.84c0.58,0.59,0.45,1.72-0.25,2.16"/>
<path class="st13" d="M104.57,4.89c0.98-0.24,2.1,0.18,2.68,1.01c0.58,0.83,0.59,2.02,0.03,2.86c-0.45,0.67-1.2,1.1-1.72,1.72
	s-0.73,1.68-0.08,2.17c0.8,0.6,2.5,0.15,2.53,1.15c0.01,0.62-0.79,0.89-1.1,1.42c-0.71,1.24,1.56,2.36,1.47,3.79
	c-0.06,0.89-1,1.41-1.68,1.98c-0.69,0.58-1.12,1.83-0.32,2.25c0.54,0.29,1.36-0.05,1.73,0.44c0.14,0.18,0.16,0.43,0.14,0.65
	c-0.1,1.02-0.96,1.76-1.56,2.59c-0.6,0.83-0.87,2.17-0.02,2.74c0.26,0.17,0.58,0.23,0.84,0.42c0.93,0.68,0.21,2.16-0.62,2.96
	c-0.83,0.81-1.78,2.03-1.1,2.96c0.37,0.51,1.08,0.65,1.47,1.13c0.47,0.59,0.31,1.48-0.1,2.11c-0.41,0.63-1.02,1.11-1.48,1.71
	c-0.21,0.28-0.39,0.67-0.2,0.96c0.14,0.21,0.4,0.27,0.62,0.4c0.59,0.34,0.77,1.14,0.6,1.8c-0.17,0.65-0.62,1.2-1.05,1.72"/>
<path class="st14" d="M18.99,0.47c1.54,1.56,4.93,1.21,5.33,3.36c0.16,0.87-0.33,1.72-0.81,2.46c-0.98,1.54-1.96,3.07-2.93,4.61
	c-0.46,0.73-0.94,1.64-0.55,2.42c0.61,1.21,2.52,0.74,3.65,1.5c1.44,0.97,0.78,3.32-0.48,4.52c-1.26,1.21-2.99,2.02-3.73,3.6
	c-0.12,0.26-0.21,0.58-0.07,0.84c0.15,0.26,0.48,0.36,0.77,0.43c2.15,0.55,4.48,2.29,4.02,4.46c-0.3,1.41-1.65,2.29-2.71,3.27
	c-1.06,0.98-1.93,2.63-1.07,3.79c0.5,0.68,1.42,0.91,1.99,1.52c1.04,1.13,0.47,3-0.5,4.19c-0.96,1.19-2.28,2.15-2.84,3.58
	c-0.16,0.42-0.25,0.92,0,1.3c0.6,0.94,2.23,0.13,3.1,0.81c0.45,1.37,0.04,2.98-1,3.97c-0.73,0.7-1.86,1.46-1.51,2.41
	c0.19,0.51,0.76,0.76,1.14,1.15c0.8,0.82,0.62,2.36-0.34,2.97"/>
<path class="st14" d="M27.94,1.84c1.35-0.33,2.88,0.24,3.68,1.38c0.8,1.14,0.81,2.77,0.04,3.93c-0.62,0.93-1.65,1.5-2.36,2.36
	c-0.71,0.86-1,2.31-0.11,2.99c1.09,0.83,3.44,0.21,3.47,1.58c0.02,0.85-1.09,1.22-1.51,1.95c-0.97,1.7,2.15,3.25,2.02,5.21
	c-0.08,1.23-1.37,1.93-2.31,2.72c-0.94,0.79-1.53,2.5-0.45,3.08c0.74,0.4,1.86-0.06,2.38,0.6c0.19,0.25,0.22,0.58,0.19,0.89
	c-0.14,1.4-1.32,2.42-2.14,3.55c-0.82,1.14-1.19,2.98-0.03,3.76c0.36,0.24,0.8,0.32,1.15,0.57c1.29,0.93,0.29,2.96-0.84,4.07
	c-1.13,1.11-2.45,2.78-1.52,4.07c0.5,0.69,1.49,0.89,2.02,1.55c0.65,0.8,0.42,2.03-0.14,2.9c-0.56,0.87-1.4,1.52-2.03,2.35
	c-0.29,0.38-0.54,0.92-0.28,1.32c0.18,0.29,0.55,0.38,0.85,0.55c0.81,0.46,1.06,1.56,0.82,2.47c-0.24,0.9-0.85,1.65-1.44,2.37"/>
<path class="st15" d="M51.81,39.28c0,0,0.85-1.79,5.36-1.79c0,0-1.86-2.55-5.79-3.26"/>
<path class="st15" d="M80.47,39.28c0,0-0.86-1.79-5.36-1.79c0,0,1.86-2.55,5.79-3.26"/>
<path class="st2" d="M82.3,33.51H50.97c-3.08,0-5.59-2.52-5.59-5.59v-5.61c0-3.08,2.52-5.6,5.59-5.6H82.3c3.08,0,5.59,2.52,5.59,5.6
	v5.61C87.89,30.99,85.37,33.51,82.3,33.51"/>
<path class="st9" d="M44.6,28.67c0,0,0.79-1.38,0.91-1.78c0.12-0.4-1.03-2.41-1.14-4.8c-0.06-1.15,0.73-3.5,0.86-4.14
	c0.13-0.64,1.34-0.2,1.76,1.72c0.41,1.93,0.29,3.02,0.29,3.02s3.05-7.93,4.84-8.33c1.79-0.39-1.88,8.02-1.88,8.02
	s3.52-9.05,5.32-8.73c1.79,0.32-2.87,9.33-2.87,9.33s3.13-7.08,4.92-6.76c1.79,0.32-2.83,8.37-2.83,8.37s2.26-5.2,3.8-5.08
	c1.54,0.12-2.81,8.62-3.61,9.43c-0.8,0.82-2.07,1.64-2.22,2.03c-0.18,0.5-0.8,1.46-0.8,1.46L44.6,28.67z"/>
<path class="st12" d="M54.21,66.67c0,0-8.84,1.92-15.39,3.2l14.16-38.66c0,0-3.74-3.19-8.35-3.48c0,0-18.81,40.58-20.14,45.05
	c-1.33,4.47,2.43,9.68,5.02,10.84c2.59,1.16,16.28,1.2,16.28,1.2s0.69-5.17,1.91-8.72C49.16,71.86,54.21,66.67,54.21,66.67"/>
</svg>
