<?xml version="1.0" encoding="utf-8"?>
<!-- Generator: Adobe Illustrator 23.0.1, SVG Export Plug-In . SVG Version: 6.00 Build 0)  -->
<svg version="1.1" id="Camada_1" xmlns="http://www.w3.org/2000/svg" xmlns:xlink="http://www.w3.org/1999/xlink" x="0px" y="0px"
	 viewBox="0 0 707.39 323.3" style="enable-background:new 0 0 707.39 323.3;" xml:space="preserve">
<style type="text/css">
	.st0{fill:#FFEEFD;}
</style>
<path class="st0" d="M668.1,25.62c-15.06-9.82-32.64-15.06-50.23-18.73c-44.97-9.37-91.92-9.19-136.82,0.53
	C446.08,15,412.44,28.24,377.17,34.27c-91.72,15.68-187-18.46-278.19,0.03c-19.7,4-39.24,10.59-55.45,22.48
	c-30.35,22.25-45.58,61.65-43.3,99.21c2.27,37.56,20.46,72.99,45.76,100.84c39.72,43.72,99.03,70.4,157.93,65.99
	c78.08-5.84,144.19-62.25,221.44-75.01c50.63-8.36,102.38,2.63,153.67,0.98c15.79-0.51,31.71-2.25,46.64-7.42
	c33.7-11.67,59.98-40.68,72.15-74.21C714.27,121.83,712.63,54.67,668.1,25.62"/>
</svg>
