<?xml version="1.0" encoding="utf-8"?>
<!-- Generator: Adobe Illustrator 23.0.1, SVG Export Plug-In . SVG Version: 6.00 Build 0)  -->
<svg version="1.1" id="Camada_1" xmlns="http://www.w3.org/2000/svg" xmlns:xlink="http://www.w3.org/1999/xlink" x="0px" y="0px"
	 viewBox="0 0 703.59 313" style="enable-background:new 0 0 703.59 313;" xml:space="preserve">
<style type="text/css">
	.st0{fill:#D0E6BB;}
</style>
<path class="st0" d="M124.26,293.9c-31.95,11.26-68.99-0.43-92.66-26.14C7.92,242.06-2.66,204.09,0.56,168.05
	C3.78,132,19.95,98.09,42.74,71.47C83.5,23.88,144.75-0.43,204.87,0.01c72.36,0.53,142.21,34.09,214.54,32.01
	c39.28-1.13,77.54-12.74,115.79-22.45c29.02-7.36,60.87-13.35,87.57,0.94c18.96,10.15,32.39,29.12,43.99,48.2
	c21.9,36.02,40.36,77.61,36.25,120.43c-3.95,41.12-29.03,77.74-61.35,100.03s-71.16,31.55-109.5,33.45
	c-70.22,3.47-141.3-17.08-200.47-57.96c-30.41-21.01-77.95-64.92-114.5-37.37C185.34,241.29,162.52,280.43,124.26,293.9"/>
</svg>
