<?xml version="1.0" encoding="utf-8"?>
<!-- Generator: Adobe Illustrator 23.0.1, SVG Export Plug-In . SVG Version: 6.00 Build 0)  -->
<svg version="1.1" id="Camada_1" xmlns="http://www.w3.org/2000/svg" xmlns:xlink="http://www.w3.org/1999/xlink" x="0px" y="0px"
	 viewBox="0 0 219 181.29" style="enable-background:new 0 0 219 181.29;" xml:space="preserve">
<style type="text/css">
	.st0{fill:none;stroke:#662D91;stroke-width:2;stroke-linecap:round;stroke-linejoin:round;stroke-miterlimit:10;}
	.st1{fill:#B6FFE5;}
	.st2{fill:#662D91;}
</style>
<path class="st0" d="M31.88,134.19c0,2.39-1.91,4.32-4.27,4.32c-2.35,0-4.26-1.93-4.26-4.32c0-2.38,1.91-4.31,4.26-4.31
	C29.97,129.88,31.88,131.81,31.88,134.19z"/>
<path class="st0" d="M25.96,138.02c0,1.46-1.17,2.64-2.6,2.64c-1.44,0-2.6-1.18-2.6-2.64c0-1.45,1.17-2.63,2.6-2.63
	C24.79,135.38,25.96,136.56,25.96,138.02z"/>
<line class="st0" x1="31.25" y1="116.13" x2="1" y2="116.13"/>
<path class="st1" d="M100.6,16.08L29.85,131.44c-7.05,11.49,0.94,26.31,14.41,26.74l134.09,4.34c13.48,0.44,22.4-13.85,16.1-25.77
	l-63.33-119.7C124.74,5.02,107.72,4.48,100.6,16.08"/>
<path class="st0" d="M96.65,10.42L24.52,133.23c-8.28,14.1,1.89,31.88,18.24,31.88h140.7c16.36,0,26.53-17.77,18.24-31.88
	L129.58,10.42C122.2-2.14,104.03-2.14,96.65,10.42z"/>
<path class="st0" d="M182.11,65.46c0,2.39-1.91,4.32-4.27,4.32c-2.35,0-4.26-1.93-4.26-4.32c0-2.38,1.91-4.31,4.26-4.31
	C180.2,61.14,182.11,63.07,182.11,65.46z"/>
<path class="st0" d="M73.93,23.23c0,2.39-1.91,4.32-4.27,4.32c-2.35,0-4.26-1.93-4.26-4.32c0-2.38,1.91-4.31,4.26-4.31
	C72.03,18.92,73.93,20.84,73.93,23.23z"/>
<line class="st0" x1="60.38" y1="82.94" x2="21.89" y2="82.94"/>
<line class="st0" x1="197.96" y1="53.2" x2="218" y2="53.2"/>
<line class="st0" x1="188.66" y1="53.2" x2="194.9" y2="53.2"/>
<line class="st0" x1="170.7" y1="53.2" x2="184.99" y2="53.2"/>
<line class="st0" x1="170.83" y1="56.71" x2="190.87" y2="56.71"/>
<line class="st0" x1="161.53" y1="56.71" x2="167.77" y2="56.71"/>
<line class="st0" x1="143.57" y1="56.71" x2="157.86" y2="56.71"/>
<line class="st0" x1="57.83" y1="169.93" x2="12.61" y2="169.93"/>
<line class="st0" x1="69.67" y1="169.93" x2="63.43" y2="169.93"/>
<line class="st0" x1="139.24" y1="171.31" x2="184.47" y2="171.31"/>
<line class="st0" x1="126.28" y1="171.31" x2="132.52" y2="171.31"/>
<line class="st0" x1="150.37" y1="180.29" x2="170.41" y2="180.29"/>
<line class="st0" x1="141.07" y1="180.29" x2="147.31" y2="180.29"/>
<line class="st0" x1="123.11" y1="180.29" x2="137.4" y2="180.29"/>
<path class="st2" d="M144,75.83c0,11.51-3.43,17.41-16.58,29.74c-3.02,2.74-4.25,5.76-4.25,11.65v2.06h-28.1v-2.33
	c0-13.57,0.82-18.37,12.34-28.51c5.07-4.39,8.09-8.5,8.09-11.93c0-4.39-3.7-6.03-9.6-6.03c-9.87,0-18.64,2.19-26.32,5.89V55.54
	c7.81-4.11,17.68-6.58,31.53-6.58C134.54,48.96,144,57.46,144,75.83 M94.38,138.61v-3.84c0-5.48,4.8-7.95,14.67-7.95
	c9.87,0,14.67,2.47,14.67,7.95v3.84c0,5.48-4.8,7.95-14.67,7.95C99.18,146.56,94.38,144.09,94.38,138.61"/>
</svg>
