<?xml version="1.0" encoding="utf-8"?>
<!-- Generator: Adobe Illustrator 23.0.1, SVG Export Plug-In . SVG Version: 6.00 Build 0)  -->
<svg version="1.1" id="Camada_1" xmlns="http://www.w3.org/2000/svg" xmlns:xlink="http://www.w3.org/1999/xlink" x="0px" y="0px"
	 viewBox="0 0 189.2 164.74" style="enable-background:new 0 0 189.2 164.74;" xml:space="preserve">
<style type="text/css">
	.st0{fill:#FFF799;}
	.st1{fill:#FFFFFF;}
	.st2{fill:none;stroke:#662D91;stroke-width:3.041;stroke-miterlimit:10;}
	.st3{fill:#662D91;}
</style>
<path class="st0" d="M114.32,4.17L79.14,61.54c-3.5,5.71,0.47,13.08,7.17,13.3l66.68,2.16c6.7,0.22,11.14-6.89,8-12.82l-31.5-59.53
	C126.33-1.33,117.86-1.6,114.32,4.17"/>
<path class="st1" d="M173.4,132.46H15.79c-3.4,0-6.15-2.75-6.15-6.15c0-3.4,2.75-6.15,6.15-6.15H173.4c3.4,0,6.15,2.75,6.15,6.15
	C179.55,129.71,176.8,132.46,173.4,132.46"/>
<path class="st2" d="M173.4,132.46H15.79c-3.4,0-6.15-2.75-6.15-6.15c0-3.4,2.75-6.15,6.15-6.15H173.4c3.4,0,6.15,2.75,6.15,6.15
	C179.55,129.71,176.8,132.46,173.4,132.46z"/>
<polyline class="st1" points="65.01,140.22 3.08,140.22 3.08,132.1 179.55,132.1 179.55,140.22 146.96,140.22 "/>
<polyline class="st2" points="65.01,140.22 3.08,140.22 3.08,132.1 179.55,132.1 179.55,140.22 146.96,140.22 "/>
<polyline class="st1" points="9.64,128.5 9.64,163.22 1.52,163.22 1.52,64.29 9.64,64.29 9.64,82.56 "/>
<polyline class="st2" points="9.64,128.5 9.64,163.22 1.52,163.22 1.52,64.29 9.64,64.29 9.64,82.56 "/>
<polyline class="st1" points="187.68,128.5 187.68,163.22 179.55,163.22 179.55,64.29 187.68,64.29 187.68,82.56 "/>
<polyline class="st2" points="187.68,128.5 187.68,163.22 179.55,163.22 179.55,64.29 187.68,64.29 187.68,82.56 "/>
<path class="st1" d="M51.52,115.74c-4.08,5.33-16.07,3.02-26.78-5.18c-10.72-8.19-16.1-19.15-12.02-24.48
	c4.07-5.33,16.07-3.01,26.78,5.18C50.21,99.44,55.59,110.4,51.52,115.74"/>
<path class="st2" d="M51.52,115.74c-4.08,5.33-16.07,3.02-26.78-5.18c-10.72-8.19-16.1-19.15-12.02-24.48
	c4.07-5.33,16.07-3.01,26.78,5.18C50.21,99.44,55.59,110.4,51.52,115.74z"/>
<path class="st1" d="M39.49,91.25c0,0-11.78,6.33-2.84,20.17l11.49,8.79h32.82v-19.31l-20.25-3.08
	C60.71,97.83,51.85,85.69,39.49,91.25"/>
<path class="st2" d="M39.49,91.25c0,0-11.78,6.33-2.84,20.17l11.49,8.79h32.82v-19.31l-20.25-3.08
	C60.71,97.83,51.85,85.69,39.49,91.25z"/>
<path class="st1" d="M177.96,120.22H66.23V96.75c0-3.78,3.07-6.84,6.84-6.84l18.24,1.79l86.64,3.7V120.22z"/>
<path class="st2" d="M177.96,120.22H66.23V96.75c0-3.78,3.07-6.84,6.84-6.84l18.24,1.79l86.64,3.7V120.22z"/>
<path class="st1" d="M39.83,95.79L39.83,95.79c-3.93,2.61-4.39,8.21-0.94,11.42l12.45,11.58c0.99,0.92,2.29,1.43,3.64,1.43h25.98
	v-8.28l-23.04-3.4l-8.21-11.03"/>
<path class="st2" d="M39.83,95.79L39.83,95.79c-3.93,2.61-4.39,8.21-0.94,11.42l12.45,11.58c0.99,0.92,2.29,1.43,3.64,1.43h25.98
	v-8.28l-23.04-3.4l-8.21-11.03"/>
<path class="st1" d="M80.96,113.48c0,0,10.25-1.89,10.76,6.74H80.96V113.48z"/>
<path class="st2" d="M80.96,113.48c0,0,10.25-1.89,10.76,6.74H80.96V113.48z"/>
<path class="st1" d="M25.5,79.4c-5.27,2.6-0.73,7.54,2.5,5.83c7.17,11.68,32.78,5.46,22.11-13.88l-5.19-9.13l-17.65,4.62
	C27.27,66.83,25.83,77.41,25.5,79.4"/>
<path class="st2" d="M25.5,79.4c-5.27,2.6-0.73,7.54,2.5,5.83c7.17,11.68,32.78,5.46,22.11-13.88l-5.19-9.13l-17.65,4.62
	C27.27,66.83,25.83,77.41,25.5,79.4z"/>
<line class="st1" x1="34.61" y1="76.16" x2="31.98" y2="77.2"/>
<line class="st2" x1="34.61" y1="76.16" x2="31.98" y2="77.2"/>
<line class="st1" x1="46.31" y1="70.65" x2="44.03" y2="72.33"/>
<line class="st2" x1="46.31" y1="70.65" x2="44.03" y2="72.33"/>
<line class="st1" x1="43" y1="83" x2="45.04" y2="82.54"/>
<line class="st2" x1="43" y1="83" x2="45.04" y2="82.54"/>
<path class="st1" d="M23.88,80.13c-17.4-13.67-0.33-33.22,14.51-29.27c3.93,1.05,17.05,9.84,1.03,19.89c0,0-6.52,1.87-12.61-0.22
	l0.5,3.69c0.34,2.49-1.04,4.9-3.36,5.88L23.88,80.13z"/>
<path class="st2" d="M23.88,80.13c-17.4-13.67-0.33-33.22,14.51-29.27c3.93,1.05,17.05,9.84,1.03,19.89c0,0-6.52,1.87-12.61-0.22
	l0.5,3.69c0.34,2.49-1.04,4.9-3.36,5.88L23.88,80.13z"/>
<path class="st1" d="M22.67,64.6c0.07,0.36,0.12,5.07,4.13,5.93"/>
<path class="st2" d="M22.67,64.6c0.07,0.36,0.12,5.07,4.13,5.93"/>
<path class="st1" d="M43.1,53.51c0,0-7.94-4.09-11.25,3.6"/>
<path class="st2" d="M43.1,53.51c0,0-7.94-4.09-11.25,3.6"/>
<path class="st3" d="M120.4,64.26H90.99c-0.68,0-1.24-0.55-1.24-1.24V23.5c0-0.68,0.55-1.24,1.24-1.24h51.69
	c0.69,0,1.24,0.55,1.24,1.24v20.68c0,0.68-0.55,1.24-1.24,1.24c-0.68,0-1.24-0.56-1.24-1.24V24.74H92.23v37.05h28.18
	c0.68,0,1.24,0.55,1.24,1.24C121.64,63.71,121.09,64.26,120.4,64.26"/>
<path class="st3" d="M97.47,26.92c-0.69,0-1.24-0.55-1.24-1.24v-4.44c0-0.68,0.55-1.24,1.24-1.24c0.69,0,1.24,0.55,1.24,1.24v4.44
	C98.71,26.37,98.16,26.92,97.47,26.92"/>
<path class="st3" d="M103.95,26.92c-0.69,0-1.24-0.55-1.24-1.24v-4.44c0-0.68,0.55-1.24,1.24-1.24c0.68,0,1.24,0.55,1.24,1.24v4.44
	C105.19,26.37,104.64,26.92,103.95,26.92"/>
<path class="st3" d="M110.36,26.92c-0.69,0-1.24-0.55-1.24-1.24v-4.44c0-0.68,0.55-1.24,1.24-1.24c0.68,0,1.24,0.55,1.24,1.24v4.44
	C111.59,26.37,111.04,26.92,110.36,26.92"/>
<path class="st3" d="M116.83,26.92c-0.69,0-1.24-0.55-1.24-1.24v-4.44c0-0.68,0.55-1.24,1.24-1.24c0.69,0,1.24,0.55,1.24,1.24v4.44
	C118.07,26.37,117.52,26.92,116.83,26.92"/>
<path class="st3" d="M123.32,26.92c-0.69,0-1.24-0.55-1.24-1.24v-4.44c0-0.68,0.55-1.24,1.24-1.24c0.68,0,1.24,0.55,1.24,1.24v4.44
	C124.55,26.37,124,26.92,123.32,26.92"/>
<path class="st3" d="M129.72,26.92c-0.69,0-1.24-0.55-1.24-1.24v-4.44c0-0.68,0.55-1.24,1.24-1.24c0.68,0,1.24,0.55,1.24,1.24v4.44
	C130.96,26.37,130.41,26.92,129.72,26.92"/>
<path class="st3" d="M136.2,26.92c-0.69,0-1.24-0.55-1.24-1.24v-4.44c0-0.68,0.55-1.24,1.24-1.24c0.68,0,1.24,0.55,1.24,1.24v4.44
	C137.44,26.37,136.89,26.92,136.2,26.92"/>
<path class="st3" d="M142.68,32.74H90.99c-0.68,0-1.24-0.55-1.24-1.24c0-0.68,0.55-1.24,1.24-1.24h51.69c0.68,0,1.24,0.55,1.24,1.24
	C143.92,32.19,143.37,32.74,142.68,32.74"/>
<path class="st3" d="M110.14,38.86h-3.2c-0.68,0-1.24-0.55-1.24-1.24c0-0.68,0.55-1.24,1.24-1.24h3.2c0.68,0,1.24,0.55,1.24,1.24
	C111.37,38.3,110.82,38.86,110.14,38.86"/>
<path class="st3" d="M118.44,38.86h-3.2c-0.68,0-1.24-0.55-1.24-1.24c0-0.68,0.55-1.24,1.24-1.24h3.2c0.69,0,1.24,0.55,1.24,1.24
	C119.67,38.3,119.12,38.86,118.44,38.86"/>
<path class="st3" d="M126.74,38.86h-3.2c-0.68,0-1.24-0.55-1.24-1.24c0-0.68,0.55-1.24,1.24-1.24h3.2c0.68,0,1.24,0.55,1.24,1.24
	C127.97,38.3,127.42,38.86,126.74,38.86"/>
<path class="st3" d="M135.04,38.86h-3.2c-0.68,0-1.24-0.55-1.24-1.24c0-0.68,0.55-1.24,1.24-1.24h3.2c0.68,0,1.24,0.55,1.24,1.24
	C136.27,38.3,135.72,38.86,135.04,38.86"/>
<path class="st3" d="M101.84,45.26h-3.2c-0.69,0-1.24-0.55-1.24-1.24c0-0.68,0.55-1.24,1.24-1.24h3.2c0.68,0,1.24,0.55,1.24,1.24
	C103.08,44.71,102.52,45.26,101.84,45.26"/>
<path class="st3" d="M110.14,45.26h-3.2c-0.68,0-1.24-0.55-1.24-1.24c0-0.68,0.55-1.24,1.24-1.24h3.2c0.68,0,1.24,0.55,1.24,1.24
	C111.37,44.71,110.82,45.26,110.14,45.26"/>
<path class="st3" d="M118.44,45.26h-3.2c-0.68,0-1.24-0.55-1.24-1.24c0-0.68,0.55-1.24,1.24-1.24h3.2c0.69,0,1.24,0.55,1.24,1.24
	C119.67,44.71,119.12,45.26,118.44,45.26"/>
<path class="st3" d="M126.74,45.26h-3.2c-0.68,0-1.24-0.55-1.24-1.24c0-0.68,0.55-1.24,1.24-1.24h3.2c0.68,0,1.24,0.55,1.24,1.24
	C127.97,44.71,127.42,45.26,126.74,45.26"/>
<path class="st3" d="M135.04,45.26h-3.2c-0.68,0-1.24-0.55-1.24-1.24c0-0.68,0.55-1.24,1.24-1.24h3.2c0.68,0,1.24,0.55,1.24,1.24
	C136.27,44.71,135.72,45.26,135.04,45.26"/>
<path class="st3" d="M101.84,51.74h-3.2c-0.69,0-1.24-0.55-1.24-1.24c0-0.68,0.55-1.24,1.24-1.24h3.2c0.68,0,1.24,0.55,1.24,1.24
	C103.08,51.19,102.52,51.74,101.84,51.74"/>
<path class="st3" d="M110.14,51.74h-3.2c-0.68,0-1.24-0.55-1.24-1.24c0-0.68,0.55-1.24,1.24-1.24h3.2c0.68,0,1.24,0.55,1.24,1.24
	C111.37,51.19,110.82,51.74,110.14,51.74"/>
<path class="st3" d="M118.44,51.74h-3.2c-0.68,0-1.24-0.55-1.24-1.24c0-0.68,0.55-1.24,1.24-1.24h3.2c0.69,0,1.24,0.55,1.24,1.24
	C119.67,51.19,119.12,51.74,118.44,51.74"/>
<path class="st3" d="M126.74,51.74h-3.2c-0.68,0-1.24-0.55-1.24-1.24c0-0.68,0.55-1.24,1.24-1.24h3.2c0.68,0,1.24,0.55,1.24,1.24
	C127.97,51.19,127.42,51.74,126.74,51.74"/>
<path class="st3" d="M101.84,58.15h-3.2c-0.69,0-1.24-0.55-1.24-1.24c0-0.68,0.55-1.24,1.24-1.24h3.2c0.68,0,1.24,0.55,1.24,1.24
	C103.08,57.59,102.52,58.15,101.84,58.15"/>
<path class="st3" d="M110.14,58.15h-3.2c-0.68,0-1.24-0.55-1.24-1.24c0-0.68,0.55-1.24,1.24-1.24h3.2c0.68,0,1.24,0.55,1.24,1.24
	C111.37,57.59,110.82,58.15,110.14,58.15"/>
<path class="st3" d="M118.44,58.15h-3.2c-0.68,0-1.24-0.55-1.24-1.24c0-0.68,0.55-1.24,1.24-1.24h3.2c0.69,0,1.24,0.55,1.24,1.24
	C119.67,57.59,119.12,58.15,118.44,58.15"/>
<path class="st3" d="M139.48,77.37c-7.95,0-14.41-6.47-14.41-14.41c0-7.95,6.46-14.41,14.41-14.41c7.95,0,14.41,6.47,14.41,14.41
	C153.89,70.9,147.43,77.37,139.48,77.37 M139.48,51.02c-6.47,0-11.94,5.47-11.94,11.94c0,6.58,5.36,11.94,11.94,11.94
	c6.58,0,11.94-5.36,11.94-11.94S146.06,51.02,139.48,51.02"/>
<path class="st3" d="M139.48,53.93c-0.69,0-1.24-0.55-1.24-1.24v-2.91c0-0.68,0.55-1.24,1.24-1.24c0.68,0,1.24,0.55,1.24,1.24v2.91
	C140.71,53.37,140.16,53.93,139.48,53.93"/>
<path class="st3" d="M139.48,77.37c-0.69,0-1.24-0.55-1.24-1.24v-2.91c0-0.68,0.55-1.24,1.24-1.24c0.68,0,1.24,0.56,1.24,1.24v2.91
	C140.71,76.81,140.16,77.37,139.48,77.37"/>
<path class="st3" d="M129.21,64.19h-2.91c-0.68,0-1.24-0.55-1.24-1.24c0-0.68,0.55-1.24,1.24-1.24h2.91c0.69,0,1.24,0.55,1.24,1.24
	C130.45,63.64,129.9,64.19,129.21,64.19"/>
<path class="st3" d="M152.65,64.19h-2.91c-0.68,0-1.24-0.55-1.24-1.24c0-0.68,0.55-1.24,1.24-1.24h2.91c0.68,0,1.24,0.55,1.24,1.24
	C153.89,63.64,153.34,64.19,152.65,64.19"/>
<path class="st3" d="M142.61,64.19h-3.13c-0.68,0-1.24-0.55-1.24-1.24v-5.61c0-0.68,0.55-1.24,1.24-1.24c0.68,0,1.24,0.55,1.24,1.24
	v4.37h1.89c0.68,0,1.24,0.55,1.24,1.24C143.84,63.64,143.29,64.19,142.61,64.19"/>
</svg>
