<?xml version="1.0" encoding="utf-8"?>
<!-- Generator: Adobe Illustrator 23.0.1, SVG Export Plug-In . SVG Version: 6.00 Build 0)  -->
<svg version="1.1" id="Camada_1" xmlns="http://www.w3.org/2000/svg" xmlns:xlink="http://www.w3.org/1999/xlink" x="0px" y="0px"
	 viewBox="0 0 146 146" style="enable-background:new 0 0 146 146;" xml:space="preserve">
<style type="text/css">
	.st0{fill:#FCFFC5;}
	.st1{fill:#662D91;}
</style>
<path class="st0" d="M146,73c0,40.32-32.68,73-73,73S0,113.32,0,73C0,32.68,32.68,0,73,0S146,32.68,146,73"/>
<path class="st1" d="M131.2,138.75H86.42c-1.55,0-2.8-1.26-2.8-2.8c0-1.55,1.25-2.81,2.8-2.81h44.78c-0.07,0,0-0.26,0-0.42V93.6
	v-0.02c0-0.2-0.02-0.4-0.01-0.6l0.05-0.54c0.03-0.35,0.07-0.69,0.07-1.04c0-12.4-10.09-22.49-22.49-22.49
	c-12.41,0-22.51,10.09-22.51,22.49c0,1.55-1.25,2.8-2.8,2.8c-1.55,0-2.8-1.25-2.8-2.8c0-15.49,12.61-28.09,28.11-28.09
	c15.49,0,28.09,12.6,28.09,28.09c0,0.51-0.04,1.02-0.09,1.53l-0.02,0.2c0.02,0.24,0,0.44,0,0.59v39
	C136.81,135.96,134.31,138.75,131.2,138.75"/>
<path class="st1" d="M119.22,70.84c-1.55,0-2.81-1.25-2.81-2.8V55.62H98.57v12.42c0,1.55-1.26,2.8-2.81,2.8
	c-1.55,0-2.81-1.25-2.81-2.8V52.92c0-1.55,1.44-2.91,2.99-2.91h23.52c1.55,0,2.56,1.36,2.56,2.91v15.12
	C122.03,69.59,120.77,70.84,119.22,70.84"/>
<path class="st1" d="M115.9,52.82c0,1.55-1.25,2.8-2.8,2.8H102.9c-1.55,0-2.8-1.25-2.8-2.8V40.57c0-1.55,1.25-2.8,2.8-2.8h10.21
	c1.55,0,2.8,1.25,2.8,2.8V52.82z M105.71,50.01h4.08v-6.63h-4.08V50.01z"/>
<path class="st1" d="M134.03,117.33H88.66c-1.55,0-2.8-1.26-2.8-2.8s1.25-2.8,2.8-2.8h42.54V92.85H81.94c-1.55,0-2.8-1.26-2.8-2.81
	c0-1.55,1.25-2.81,2.8-2.81h52.08c1.55,0,2.79,1.1,2.79,2.65v24.64C136.81,116.07,135.57,117.33,134.03,117.33"/>
<path class="st1" d="M121.71,43.38H89.42c-1.55,0-2.8-1.37-2.8-2.92c0-6.27,5.22-11.88,11.17-11.88h23.92c1.55,0,2.87,1.5,2.87,3.05
	v8.96C124.58,42.15,123.25,43.38,121.71,43.38 M92.94,37.77h26.03V34.2H97.79C95.67,34.2,93.88,35.73,92.94,37.77"/>
<path class="st1" d="M87.25,138.75h-27.1c-10.77,0-19.53-8.72-19.53-19.35s8.76-19.31,19.53-19.31c0.74,0,1.49,0.03,2.25,0.12
	c2.09-7.12,8.65-12.19,16.32-12.19c9.38,0,17.02,7.63,17.02,17.01c0,3.05-0.8,5.98-2.3,8.55c4.41,2.21,7.32,6.73,7.32,11.85
	C100.75,132.85,94.82,138.75,87.25,138.75 M60.15,105.65c-7.81,0-13.93,6.07-13.93,13.74c0,7.67,6.12,13.74,13.93,13.74h27.1
	c4.43,0,7.9-3.43,7.9-7.72c0-3.86-2.77-7-6.74-7.59c-1.04-0.15-1.91-0.9-2.25-1.9c-0.33-1-0.07-2.11,0.67-2.86
	c2.13-2.15,3.3-5.01,3.3-8.03c0-6.3-5.12-11.42-11.42-11.42c-5.83,0-10.71,4.37-11.35,10.16c-0.09,0.82-0.53,1.55-1.21,2.01
	c-0.68,0.46-1.53,0.6-2.32,0.39C62.61,105.82,61.36,105.65,60.15,105.65"/>
<path class="st1" d="M59.26,93.27c-4.53,0-8.21-3.68-8.21-8.21c0-4.53,3.68-8.21,8.21-8.21c4.53,0,8.21,3.68,8.21,8.21
	C67.47,89.59,63.78,93.27,59.26,93.27 M59.26,82.45c-1.44,0-2.61,1.17-2.61,2.61c0,1.44,1.17,2.61,2.61,2.61
	c1.44,0,2.61-1.17,2.61-2.61C61.87,83.62,60.7,82.45,59.26,82.45"/>
<path class="st1" d="M75.52,78.6c-4.53,0-8.21-3.68-8.21-8.21c0-4.53,3.68-8.21,8.21-8.21c4.53,0,8.21,3.68,8.21,8.21
	C83.74,74.92,80.05,78.6,75.52,78.6 M75.52,67.78c-1.44,0-2.61,1.17-2.61,2.61c0,1.44,1.17,2.61,2.61,2.61
	c1.44,0,2.61-1.17,2.61-2.61C78.13,68.95,76.96,67.78,75.52,67.78"/>
<path class="st1" d="M51.15,65.82H40.95c-3.47,0-20.85-0.52-26.55-4.55C8.77,57.3,4.04,53.22,3.22,43.59
	c-0.77-9.16,2.24-15.25,10.4-21.02C19.96,18.09,28.2,13.22,33.65,10c2.29-1.35,4.1-2.42,4.81-2.91c6-4.04,9.87-1.25,11.25,0.14
	c1.4,1.4,2.14,3.31,2.08,5.36c-0.07,2.23-1.12,4.32-2.88,5.86c-0.14,0.13-1.96,1.97-3.89,3.5h23.81c4.32,0,7.58,3.18,7.58,7.29
	c0,1.21-0.3,2.41-0.87,3.43c1.78,1.41,2.93,3.63,2.93,6.1c0,2.48-1.15,4.75-2.91,6.22c0.54,1.06,0.84,2.31,0.85,3.68
	c0.01,1.91-0.7,3.68-1.99,4.98c-1.41,1.41-3.38,2.19-5.55,2.19c-0.03,0-0.38,0-0.92,0.01c0.18,0.62,0.28,1.28,0.28,1.95
	c0,4.31-3.39,7.81-7.55,7.81c-0.11,0-2.4,0.05-4.69,0.1C53.59,65.76,51.19,65.82,51.15,65.82 M44.42,10.6
	c-0.63,0-1.53,0.27-2.83,1.15c-0.85,0.57-2.63,1.62-5.09,3.08C31.13,18,23.01,22.79,16.86,27.14c-6.55,4.63-8.66,8.81-8.05,15.97
	c0.61,7.29,3.74,9.99,8.82,13.58c3.33,2.35,16.1,3.51,23.37,3.51h10.15c0.12,0,2.43-0.05,4.73-0.1c2.38-0.05,4.75-0.09,4.8-0.09
	c1.04,0,1.95-1.03,1.95-2.21c0-0.89-0.92-1.74-1.97-1.91c-1.36,0.01-2.35,0.01-2.38,0.01L45.02,56.1c-1.54,0.03-2.82-1.21-2.84-2.76
	c-0.02-1.55,1.21-2.82,2.76-2.84l14.88-0.33c0.15-0.02,0.3-0.16,0.45-0.16h0c0.23,0,0.47,0.14,0.69,0.16l2.47,0.05
	c2.67-0.02,5.39,0,5.43,0c0.66,0,1.24-0.18,1.58-0.52c0.25-0.25,0.37-0.73,0.36-1.15c-0.01-1.39-0.56-2.11-1.89-2.11H44.98
	c-1.55,0-2.8-1.26-2.8-2.81s1.25-2.81,2.8-2.81h25.9c1.01,0,1.82-1,1.82-2.2c0-1.13-0.65-1.95-2.18-1.95v0
	c0,0.01-2.22,0.07-11.14,0.07H43.86c-1.55,0-2.8-1.26-2.8-2.8s1.25-2.81,2.8-2.81h15.52h9.15h0.06h0c0.63,0,1.23-0.25,1.67-0.62
	c0.37-0.32,0.56-0.8,0.56-1.25c0-1.19-1.06-1.7-1.97-1.7H38.26c-1.55,0-2.8-1.18-2.8-2.73c0-1.03,0.56-1.9,1.39-2.38l-0.22-0.22
	c8.53-7.88,8.58-7.91,8.65-7.97c0.54-0.48,0.9-1.17,0.92-1.86c0.01-0.34-0.06-0.83-0.44-1.22C45.53,10.97,45.16,10.6,44.42,10.6"/>
<path class="st1" d="M75.22,129.57H61.34c-6.62,0-12.21-5.36-12.21-11.75c0-1.55,1.25-2.78,2.8-2.78c1.55,0,2.8,1.22,2.8,2.76
	c0,3.35,3.03,6.15,6.61,6.15h13.88c1.55,0,2.8,1.26,2.8,2.8S76.77,129.57,75.22,129.57"/>
</svg>
