<?xml version="1.0" encoding="utf-8"?>
<!-- Generator: Adobe Illustrator 23.0.1, SVG Export Plug-In . SVG Version: 6.00 Build 0)  -->
<svg version="1.1" id="Camada_1" xmlns="http://www.w3.org/2000/svg" xmlns:xlink="http://www.w3.org/1999/xlink" x="0px" y="0px"
	 viewBox="0 0 123.32 123.32" style="enable-background:new 0 0 123.32 123.32;" xml:space="preserve">
<style type="text/css">
	.st0{fill:#D0E6BB;}
	.st1{fill:none;stroke:#004892;stroke-width:1.323;stroke-linecap:round;stroke-linejoin:round;stroke-miterlimit:10;}
	.st2{fill:#662D91;}
</style>
<path class="st0" d="M105.46,118.94H17.87c-6.78,0-12.28-5.5-12.28-12.28V19.07c0-6.78,5.5-12.28,12.28-12.28h87.59
	c6.78,0,12.28,5.5,12.28,12.28v87.59C117.74,113.44,112.24,118.94,105.46,118.94"/>
<path class="st1" d="M103.94,122.64l-91.2-5.18c-7.06-0.4-12.46-6.45-12.06-13.51l5.18-91.2c0.4-7.06,6.45-12.46,13.51-12.06
	l91.2,5.18c7.06,0.4,12.46,6.45,12.06,13.51l-5.18,91.2C117.06,117.64,111.01,123.04,103.94,122.64z"/>
<path class="st2" d="M89.95,68.88L71.92,99.23c-4.63,7.8-14.86,10.44-22.8,5.89c-5.9-3.39-9.08-9.87-8.09-16.52
	c0-0.01-0.01-0.02,0-0.03c0-0.01,0.01-0.02,0.01-0.03l2.77-26.54c0.08-0.79,0.53-1.48,1.22-1.91c0.7-0.42,1.53-0.49,2.32-0.2
	c1.05,0.39,1.72,1.55,1.59,2.77l-1.42,15.16c-0.01,0.07,0.02,0.13,0.02,0.2c0.01,0.11,0.01,0.21,0.04,0.32
	c0.02,0.09,0.07,0.16,0.12,0.24c0.04,0.08,0.08,0.17,0.14,0.24c0.07,0.08,0.15,0.14,0.24,0.21c0.06,0.04,0.09,0.11,0.16,0.14
	c0.01,0,0.01,0,0.02,0.01c0.17,0.1,0.36,0.16,0.57,0.18c0.03,0,0.05-0.01,0.08-0.01c0.02,0,0.03,0.01,0.05,0.01
	c0.05,0,0.09-0.03,0.14-0.04c0.16-0.02,0.32-0.05,0.46-0.12c0.06-0.03,0.12-0.06,0.18-0.09c0.17-0.11,0.3-0.24,0.41-0.4
	c0.01-0.02,0.04-0.03,0.06-0.05l0.02-0.05l0,0L69.6,46c0.72-1.21,2.31-1.62,3.54-0.92c0.59,0.34,1.02,0.89,1.19,1.55
	c0.18,0.66,0.08,1.35-0.26,1.93L61.1,70.4c-0.4,0.67-0.17,1.53,0.51,1.93c0.68,0.39,1.56,0.17,1.96-0.51l3.76-6.34L79.3,45.35
	c0.35-0.58,0.91-1,1.58-1.17c0.67-0.17,1.37-0.08,1.96,0.26c1.23,0.71,1.65,2.27,0.93,3.48L71.82,68.05l-3.76,6.34
	c-0.4,0.67-0.17,1.54,0.51,1.93c0.69,0.39,1.56,0.17,1.96-0.51L83.5,53.96c0.72-1.21,2.31-1.62,3.54-0.92
	c0.59,0.34,1.02,0.89,1.19,1.55c0.18,0.66,0.08,1.35-0.26,1.93L83,64.89v0L72.95,81.82c-0.4,0.67-0.17,1.53,0.52,1.93
	c0.23,0.13,0.48,0.19,0.72,0.19c0.49,0,0.97-0.25,1.24-0.7l10.05-16.92c0.35-0.58,0.91-1,1.58-1.17c0.67-0.17,1.37-0.08,1.96,0.26
	C90.25,66.11,90.67,67.67,89.95,68.88 M53.92,66.82l-1.21,0.22c-0.78,0.14-1.3,0.87-1.15,1.63c0.08,0.42,0.35,0.75,0.7,0.95
	l-1.28,2.16l0.82-8.83c0.03-0.33,0.03-0.65,0.01-0.97l6.03-1.76L53.92,66.82z M17.34,76.75c-1.95-6.44,0.25-13.3,5.6-17.48
	c0.01-0.01,0.01-0.01,0.02-0.02c0.01-0.01,0.02-0.01,0.03-0.02L43.5,41.75c0.61-0.52,1.42-0.73,2.22-0.57
	c0.81,0.16,1.46,0.66,1.83,1.42c0.49,0.99,0.17,2.29-0.76,3.08l-7.16,6.12c-0.03,0.02-0.04,0.05-0.06,0.08
	c-1.18,1.06-2.11,2.33-2.76,3.7c-0.03,0.05-0.05,0.11-0.08,0.16c-0.84,1.85-1.17,3.86-0.84,5.74c0.43,2.39-0.43,4.77-2.29,6.36
	c-1.67,1.43-3.96,2-6.12,1.51c-0.78-0.17-1.54,0.3-1.71,1.07c-0.18,0.76,0.31,1.51,1.08,1.68c0.71,0.16,1.44,0.24,2.16,0.24
	c2.35,0,4.67-0.83,6.47-2.37c2.59-2.21,3.83-5.65,3.24-8.97c-0.2-1.13-0.04-2.36,0.4-3.54l24.64-7.19l-3.81,6.42l-9.05,2.64
	c-0.6-0.91-1.47-1.64-2.53-2.03c-1.62-0.61-3.39-0.44-4.84,0.44c-1.46,0.88-2.4,2.35-2.57,4.01l-2.72,26.02
	C28.42,90.13,20.08,85.8,17.34,76.75 M92.98,66.23c-0.37-1.39-1.27-2.55-2.52-3.27c-0.81-0.46-1.7-0.67-2.58-0.7l2.57-4.32
	c0.73-1.23,0.93-2.68,0.56-4.06c-0.37-1.39-1.27-2.55-2.52-3.27c-0.81-0.47-1.7-0.68-2.58-0.7l0.35-0.58
	c1.51-2.55,0.63-5.84-1.96-7.33c-1.25-0.72-2.72-0.92-4.14-0.55c-1.41,0.36-2.59,1.25-3.33,2.48l-0.35,0.58
	c-0.46-0.76-1.09-1.41-1.89-1.86c-2.6-1.48-5.94-0.62-7.46,1.93l-1.26,2.12L41.7,53.75l6.96-5.95c1.92-1.64,2.52-4.29,1.46-6.44
	c-0.76-1.53-2.16-2.61-3.83-2.94c-1.69-0.34-3.39,0.11-4.67,1.2L21.11,57.11c0,0-0.01,0.01-0.01,0.02
	c-6.22,4.9-8.78,12.91-6.51,20.43c2.6,8.6,9.78,13.66,18.51,13.66c1.59,0,3.24-0.23,4.91-0.58c-0.14,6.9,3.47,13.36,9.66,16.92
	c3.09,1.77,6.47,2.61,9.81,2.61c6.72,0,13.27-3.41,16.9-9.51c0,0,0,0,0-0.01L92.42,70.3C93.16,69.07,93.36,67.62,92.98,66.23"/>
<path class="st2" d="M63.03,36.7c-1.93,0-3.51-1.54-3.51-3.44c0-1.9,1.57-3.45,3.51-3.45c1.93,0,3.5,1.55,3.5,3.45
	C66.54,35.16,64.97,36.7,63.03,36.7 M63.03,27c-3.51,0-6.37,2.81-6.37,6.26c0,3.45,2.86,6.26,6.37,6.26c3.51,0,6.37-2.81,6.37-6.26
	C69.4,29.82,66.54,27,63.03,27"/>
<path class="st2" d="M96.96,81.41c-1.93,0-3.5-1.54-3.5-3.44c0-1.9,1.57-3.44,3.5-3.44c1.93,0,3.5,1.54,3.5,3.44
	C100.46,79.87,98.89,81.41,96.96,81.41 M96.96,71.72c-3.51,0-6.37,2.81-6.37,6.26s2.86,6.26,6.37,6.26c3.51,0,6.37-2.81,6.37-6.26
	S100.47,71.72,96.96,71.72"/>
<path class="st2" d="M78.54,22.57c-0.69,0-1.25-0.55-1.25-1.23c0-0.67,0.56-1.22,1.25-1.22c0.69,0,1.25,0.55,1.25,1.22
	C79.78,22.02,79.23,22.57,78.54,22.57 M82.65,21.35c0-2.23-1.85-4.04-4.11-4.04s-4.11,1.81-4.11,4.04c0,2.23,1.85,4.04,4.11,4.04
	S82.65,23.58,82.65,21.35"/>
<path class="st2" d="M63.22,15.85c0.69,0,1.25,0.55,1.25,1.23c0,0.67-0.56,1.22-1.25,1.22c-0.69,0-1.25-0.55-1.25-1.22
	C61.97,16.4,62.53,15.85,63.22,15.85 M63.22,21.12c2.27,0,4.11-1.81,4.11-4.04c0-2.23-1.85-4.04-4.11-4.04
	c-2.27,0-4.11,1.81-4.11,4.04C59.1,19.31,60.95,21.12,63.22,21.12"/>
<path class="st2" d="M83.9,33.71c-0.69,0-1.25-0.55-1.25-1.23c0-0.67,0.56-1.22,1.25-1.22c0.69,0,1.25,0.55,1.25,1.22
	C85.14,33.16,84.59,33.71,83.9,33.71 M83.9,28.44c-2.27,0-4.11,1.81-4.11,4.04c0,2.23,1.85,4.04,4.11,4.04
	c2.27,0,4.11-1.81,4.11-4.04C88.01,30.25,86.17,28.44,83.9,28.44"/>
<path class="st2" d="M107.85,63.07c-1.07,0-1.93-0.85-1.93-1.9c0-1.04,0.87-1.9,1.93-1.9c1.07,0,1.93,0.86,1.93,1.9
	C109.79,62.22,108.92,63.07,107.85,63.07 M107.85,56.45c-2.65,0-4.8,2.11-4.8,4.71c0,2.6,2.15,4.71,4.8,4.71
	c2.65,0,4.8-2.12,4.8-4.71C112.65,58.57,110.5,56.45,107.85,56.45"/>
<path class="st2" d="M96.96,44.74c1.07,0,1.93,0.85,1.93,1.9c0,1.04-0.87,1.9-1.93,1.9c-1.07,0-1.93-0.86-1.93-1.9
	C95.02,45.59,95.89,44.74,96.96,44.74 M96.96,51.35c2.65,0,4.8-2.11,4.8-4.71c0-2.6-2.15-4.71-4.8-4.71c-2.65,0-4.8,2.11-4.8,4.71
	C92.16,49.24,94.31,51.35,96.96,51.35"/>
<path class="st2" d="M42.79,30.31c-1.07,0-1.93-0.85-1.93-1.9c0-1.04,0.87-1.9,1.93-1.9c1.07,0,1.93,0.85,1.93,1.9
	C44.72,29.46,43.85,30.31,42.79,30.31 M42.79,23.7c-2.65,0-4.8,2.11-4.8,4.71c0,2.6,2.15,4.72,4.8,4.72c2.65,0,4.8-2.12,4.8-4.72
	C47.58,25.81,45.43,23.7,42.79,23.7"/>
</svg>
