<?xml version="1.0" encoding="utf-8"?>
<!-- Generator: Adobe Illustrator 23.0.1, SVG Export Plug-In . SVG Version: 6.00 Build 0)  -->
<svg version="1.1" id="Camada_1" xmlns="http://www.w3.org/2000/svg" xmlns:xlink="http://www.w3.org/1999/xlink" x="0px" y="0px"
	 viewBox="0 0 194.53 188.1" style="enable-background:new 0 0 194.53 188.1;" xml:space="preserve">
<style type="text/css">
	.st0{fill:#FFE2B0;}
	.st1{fill:#662D91;}
</style>
<path class="st0" d="M70.73,11.3L2.1,151.05c-6.83,13.92,3.9,30.03,19.38,29.08l154.05-9.46c15.49-0.95,24.17-18.28,15.66-31.25
	L105.77,9.13C97.19-3.96,77.63-2.75,70.73,11.3"/>
<path class="st1" d="M162.52,104.71c-1.86-3.12-4.71-5.1-8.16-5.72l0.01-0.19c3.32-4.88,6.61-15.6,5.81-39.13
	c-0.41-12.06-13.83-17.28-13.83-17.28s2.77-16.6-35.4-24.06c-38.17-7.47-71.08,18.26-71.08,18.26l9.41,2.77
	c0,0-13.56,9.96-15.21,33.19l4.69-2.72l1.13,29.16c-3.46,0.62-6.3,2.6-8.16,5.72c-3.5,5.87-3.07,15.28,1.04,22.88
	c4.18,7.74,9.05,10.22,12.01,11c1.11,5.2,3.96,16.2,9.34,24.03c0.17,2.43,0.55,2.98,0.81,3.35c5.83,8.43,15,15.12,26.54,19.35
	c5.05,1.85,10.36,2.78,15.67,2.78c5.31,0,10.62-0.93,15.67-2.78c11.53-4.23,20.71-10.92,26.54-19.35c0.26-0.38,0.64-0.93,0.81-3.36
	c5.38-7.83,8.23-18.82,9.34-24.02c2.96-0.78,7.83-3.27,12.01-11C165.59,119.99,166.02,110.58,162.52,104.71 M47.08,132.55
	c-1.09-0.11-4.94-1-8.72-8c-2.99-5.54-3.49-12.66-1.16-16.58c1.12-1.89,2.78-2.81,5.07-2.81c0.02,0,0.04-0.01,0.06-0.01
	c2.4,2.99,7.09,7.81,15.16,12.46c-1.64,14.49-2.56,24.54-3.04,31.56c-2.21-5.92-3.4-11.58-3.74-13.33
	C50.36,134.05,48.9,132.73,47.08,132.55 M133.83,162.71c-6.41,9.04-16.15,14.03-23.23,16.63c-8.69,3.19-18.26,3.19-26.95,0
	c-7.08-2.6-16.82-7.58-23.23-16.63c-0.52-3.37,0.88-20.66,2.77-38.49c0.18-1.7,1.94-2.77,3.52-2.11c5.03,2.07,10.91,3.93,17.79,5.36
	c4.19,0.87,8.41,1.31,12.63,1.31c4.22,0,8.44-0.44,12.63-1.31c6.88-1.43,12.76-3.29,17.79-5.36c1.58-0.65,3.33,0.42,3.51,2.11
	C132.95,142.05,134.34,159.33,133.83,162.71 M108.44,121.22c-7.52,1.56-15.14,1.56-22.65,0c-26.08-5.43-36.64-17.5-39.25-21.06
	c0.99-4.67,5.85-23.64,19.88-28.72c0,0-2.21,6.08-5.53,9.4c0,0,18.86,1.38,38.75-10.79c0,0-1.41,5.81-4.17,7.74
	c0,0,21.54,4.38,44.52-9.29l4.23,0.3c-0.38,6.18-0.66,20.25,3.25,31.71C144.5,104.45,133.96,115.91,108.44,121.22 M155.88,124.55
	c-3.79,7-7.63,7.9-8.72,8c-1.82,0.18-3.28,1.5-3.63,3.3c-0.34,1.75-1.53,7.41-3.74,13.33c-0.48-7.02-1.4-17.08-3.04-31.56
	c8.07-4.65,12.77-9.47,15.16-12.46c0.02,0,0.04,0.01,0.06,0.01c2.29,0,3.95,0.92,5.07,2.81
	C159.37,111.88,158.87,119.01,155.88,124.55"/>
<path class="st1" d="M122.33,131.25c-23.14,7.65-43.35,2.42-50.45,0.05c-1.56-0.52-3.25,0.24-3.91,1.74l-0.01,0.02
	c-0.76,1.72,0.13,3.7,1.9,4.31c4.83,1.65,14.63,4.33,27.19,4.33c8.14,0,17.44-1.13,27.29-4.4c1.72-0.57,2.62-2.46,1.98-4.15
	C125.72,131.55,123.96,130.71,122.33,131.25"/>
<path class="st1" d="M122.33,146.82c-23.14,7.65-43.35,2.42-50.45,0.04c-1.56-0.52-3.25,0.24-3.91,1.74l-0.01,0.02
	c-0.76,1.72,0.13,3.71,1.9,4.31c4.83,1.65,14.63,4.33,27.19,4.33c8.14,0,17.44-1.13,27.29-4.4c1.72-0.57,2.62-2.46,1.98-4.15
	C125.72,147.12,123.96,146.28,122.33,146.82"/>
<polygon class="st1" points="67.89,164.36 67.97,164.18 67.97,164.18 "/>
<path class="st1" d="M126.32,164.29c-0.6-1.61-2.37-2.44-4-1.9c-23.14,7.65-43.34,2.42-50.44,0.05c-1.56-0.52-3.25,0.24-3.91,1.74
	l-0.01,0.02c-0.76,1.72,0.12,3.71,1.9,4.31c4.83,1.65,14.63,4.33,27.19,4.33c8.14,0,17.44-1.13,27.29-4.4
	C126.05,167.88,126.96,165.99,126.32,164.29"/>
<polygon class="st1" points="67.97,164.18 67.97,164.18 69.18,161.44 "/>
</svg>
