<?xml version="1.0" encoding="utf-8"?>
<!-- Generator: Adobe Illustrator 23.0.1, SVG Export Plug-In . SVG Version: 6.00 Build 0)  -->
<svg version="1.1" id="Camada_1" xmlns="http://www.w3.org/2000/svg" xmlns:xlink="http://www.w3.org/1999/xlink" x="0px" y="0px"
	 viewBox="0 0 169.28 162.92" style="enable-background:new 0 0 169.28 162.92;" xml:space="preserve">
<style type="text/css">
	.st0{fill:#CBFFB8;}
	.st1{fill:#662D91;}
</style>
<path class="st0" d="M73.38,8.38L2.62,123.75c-7.05,11.49,0.94,26.31,14.41,26.74l134.09,4.34c13.48,0.44,22.4-13.85,16.1-25.78
	L103.88,9.35C97.52-2.67,80.49-3.21,73.38,8.38"/>
<path class="st1" d="M94.46,119.48c-0.8,0-1.61-0.28-2.26-0.85c-1.42-1.25-1.56-3.41-0.32-4.83c1.21-1.38,2.83-2.23,4.94-2.61
	c4.84-0.87,20.85-3.57,23.48-4.01c6.49-2.69,10.67-8.92,10.67-15.98c0-5.9-3.82-11.12-7.52-16.17l-0.56-0.76
	c-2.37-3.24-4.72-6.5-7.08-9.75c-1.84-2.54-3.67-5.08-5.52-7.61c-6.15-8.46-12.29-16.93-18.42-25.39
	c-3.8-5.25-7.61-10.5-11.41-15.75l-1.82-2.5c-1.73-2.38-3.46-4.76-5.19-7.15c-1.11-1.53-0.76-3.67,0.77-4.78
	c1.53-1.11,3.67-0.76,4.78,0.77c1.72,2.38,3.45,4.76,5.18,7.14l1.82,2.5c3.81,5.25,7.61,10.5,11.42,15.75
	c6.13,8.46,12.26,16.93,18.41,25.38c1.85,2.54,3.69,5.08,5.53,7.63c2.35,3.24,4.7,6.49,7.06,9.72l0.55,0.75
	c4.14,5.66,8.84,12.07,8.84,20.21c0,10.01-6.02,18.83-15.33,22.48l-0.33,0.13l-0.35,0.06c-0.18,0.03-18.56,3.13-23.78,4.06
	c-0.36,0.06-0.82,0.18-1,0.39C96.36,119.08,95.41,119.48,94.46,119.48"/>
<path class="st1" d="M88.04,133.17c4.21,7.05,7.26,13.42,7.29,15.62c0,4.02-3.27,7.29-7.29,7.29c-4.02,0-7.29-3.27-7.29-7.29
	C80.78,146.59,83.83,140.22,88.04,133.17 M88.04,120.5c0,0-14.14,20.47-14.14,28.28c0,7.81,6.33,14.14,14.14,14.14
	c7.81,0,14.14-6.33,14.14-14.14C102.18,140.97,88.04,120.5,88.04,120.5"/>
<path class="st1" d="M67.01,116.68c-11.04,0-20.02-8.98-20.02-20.02c0-5.43,2.14-10.52,6.03-14.32c1.35-1.32,3.52-1.3,4.84,0.05
	c1.32,1.35,1.3,3.52-0.05,4.84c-2.56,2.5-3.97,5.85-3.97,9.43c0,7.27,5.91,13.18,13.18,13.18c3.45,0,6.7-1.32,9.17-3.71
	c1.41-1.78,9.62-11.09,26.87-10.52c1.89,0.06,3.37,1.65,3.3,3.54c-0.06,1.89-1.65,3.37-3.54,3.31c-15-0.51-21.23,7.87-21.3,7.96
	l-0.36,0.42C77.39,114.6,72.36,116.68,67.01,116.68"/>
</svg>
