<?xml version="1.0" encoding="utf-8"?>
<!-- Generator: Adobe Illustrator 23.0.1, SVG Export Plug-In . SVG Version: 6.00 Build 0)  -->
<svg version="1.1" id="Camada_1" xmlns="http://www.w3.org/2000/svg" xmlns:xlink="http://www.w3.org/1999/xlink" x="0px" y="0px"
	 viewBox="0 0 271.01 222.85" style="enable-background:new 0 0 271.01 222.85;" xml:space="preserve">
<style type="text/css">
	.st0{fill:#FFE2B0;}
	.st1{fill:none;stroke:#662D91;stroke-width:2.637;stroke-linecap:round;stroke-linejoin:round;stroke-miterlimit:10;}
	.st2{fill:#E8E3CA;}
	.st3{fill:#D95959;}
	.st4{fill:#FFFEFA;}
	.st5{fill:#D0CCB5;}
	.st6{fill:#C35050;}
	.st7{fill:#E5E4E1;}
	.st8{fill:#F16D61;}
	.st9{fill:#FFFFFF;}
	.st10{opacity:0.11;}
	.st11{clip-path:url(#SVGID_2_);}
	.st12{clip-path:url(#SVGID_4_);}
	.st13{clip-path:url(#SVGID_6_);}
	.st14{clip-path:url(#SVGID_8_);}
	.st15{clip-path:url(#SVGID_10_);}
	.st16{clip-path:url(#SVGID_12_);}
	.st17{clip-path:url(#SVGID_14_);}
	.st18{clip-path:url(#SVGID_16_);}
	.st19{clip-path:url(#SVGID_18_);}
	.st20{clip-path:url(#SVGID_20_);}
	.st21{clip-path:url(#SVGID_22_);}
	.st22{clip-path:url(#SVGID_24_);}
	.st23{clip-path:url(#SVGID_26_);}
	.st24{clip-path:url(#SVGID_28_);}
	.st25{clip-path:url(#SVGID_30_);}
	.st26{clip-path:url(#SVGID_32_);}
</style>
<path class="st0" d="M123.19,20.59l-84.9,138.43c-9.29,15.15,1.23,34.68,19,35.26l160.9,5.21c17.77,0.57,29.54-18.26,21.22-33.98
	l-76-143.63C155.01,6.01,132.56,5.3,123.19,20.59"/>
<path class="st1" d="M118.27,13.74L31.93,160.73c-10.92,18.6,2.49,42.03,24.05,42.03h167.97c21.57,0,34.98-23.43,24.05-42.03
	L161.67,13.74C151.95-2.82,128-2.82,118.27,13.74z"/>
<path class="st1" d="M39.51,128.66c0,2.95-2.36,5.34-5.27,5.34c-2.91,0-5.28-2.39-5.28-5.34c0-2.95,2.36-5.34,5.28-5.34
	C37.15,123.32,39.51,125.71,39.51,128.66z"/>
<path class="st1" d="M32.18,133.39c0,1.8-1.44,3.26-3.22,3.26c-1.78,0-3.22-1.46-3.22-3.26c0-1.8,1.44-3.26,3.22-3.26
	C30.74,130.13,32.18,131.59,32.18,133.39z"/>
<path class="st1" d="M225.3,79.52c0,2.95-2.36,5.34-5.27,5.34s-5.27-2.39-5.27-5.34c0-2.95,2.36-5.34,5.27-5.34
	S225.3,76.57,225.3,79.52z"/>
<path class="st1" d="M91.52,27.29c0,2.95-2.36,5.34-5.27,5.34c-2.91,0-5.27-2.39-5.27-5.34c0-2.95,2.36-5.34,5.27-5.34
	C89.16,21.95,91.52,24.34,91.52,27.29z"/>
<line class="st1" x1="74.76" y1="101.14" x2="27.16" y2="101.14"/>
<line class="st1" x1="38.73" y1="106.32" x2="1.32" y2="106.32"/>
<line class="st1" x1="244.9" y1="64.35" x2="269.69" y2="64.35"/>
<line class="st1" x1="233.41" y1="64.35" x2="241.12" y2="64.35"/>
<line class="st1" x1="211.19" y1="64.35" x2="228.86" y2="64.35"/>
<line class="st1" x1="211.35" y1="68.7" x2="236.13" y2="68.7"/>
<line class="st1" x1="199.85" y1="68.7" x2="207.57" y2="68.7"/>
<line class="st1" x1="177.64" y1="68.7" x2="195.31" y2="68.7"/>
<line class="st1" x1="71.6" y1="208.72" x2="15.67" y2="208.72"/>
<line class="st1" x1="86.24" y1="208.72" x2="78.53" y2="208.72"/>
<line class="st1" x1="172.29" y1="210.43" x2="228.21" y2="210.43"/>
<line class="st1" x1="156.25" y1="210.43" x2="163.97" y2="210.43"/>
<line class="st1" x1="186.05" y1="221.53" x2="210.83" y2="221.53"/>
<line class="st1" x1="174.55" y1="221.53" x2="182.27" y2="221.53"/>
<line class="st1" x1="152.33" y1="221.53" x2="170" y2="221.53"/>
<path class="st2" d="M95.81,98.85v-6.25H64.66H33.52v6.25c0,3.17-1.11,6.23-3.14,8.66l-4.49,5.37c-2.03,2.43-3.14,5.5-3.14,8.66
	v74.26c0,5.07,4.11,9.18,9.18,9.18h32.74h32.74c5.07,0,9.18-4.11,9.18-9.18v-74.26c0-3.17-1.11-6.23-3.14-8.66l-4.49-5.37
	C96.92,105.09,95.81,102.02,95.81,98.85"/>
<path class="st3" d="M95.92,97.96h-62.5c-1.99,0-3.61-1.61-3.61-3.61V81.58c0-3.27,2.65-5.92,5.92-5.92H93.6
	c3.27,0,5.92,2.65,5.92,5.92v12.77C99.52,96.34,97.91,97.96,95.92,97.96"/>
<rect x="24.91" y="131.02" class="st4" width="63.55" height="50.63"/>
<path class="st5" d="M97.4,204.99H64.66v-23.34h41.92v14.16C106.58,200.88,102.47,204.99,97.4,204.99 M106.58,185.43H64.66V97.96
	h31.14v0.9c0,3.17,1.11,6.23,3.14,8.66l4.49,5.37c2.03,2.43,3.14,5.5,3.14,8.66v9.47"/>
<path class="st6" d="M95.92,97.96h-0.11H64.66v-22.3H93.6c3.27,0,5.92,2.65,5.92,5.92v12.77C99.52,96.34,97.91,97.96,95.92,97.96"/>
<path class="st7" d="M104.48,181.65L104.48,181.65H64.66V148.8h39.82V181.65z M104.48,150.32H64.66v-19.29h39.82v6.33"/>
<path class="st8" d="M164.29,90.76c-0.02,4.61-4.22,8.33-9.38,8.31c-5.16-0.03-9.32-3.79-9.3-8.4l0.08-17.08l18.69,0.09
	L164.29,90.76z"/>
<path class="st9" d="M155.15,48.21L155.15,48.21c5.16,0.03,9.32,3.79,9.3,8.4l-0.08,17.08l-18.69-0.09l0.08-17.08
	C145.79,51.9,149.99,48.18,155.15,48.21"/>
<g class="st10">
	<g>
		<defs>
			<rect id="SVGID_1_" x="154.73" y="73.64" width="9.64" height="25.43"/>
		</defs>
		<clipPath id="SVGID_2_">
			<use xlink:href="#SVGID_1_"  style="overflow:visible;"/>
		</clipPath>
		<g class="st11">
			<defs>
				<rect id="SVGID_3_" x="154.73" y="73.64" width="9.64" height="25.43"/>
			</defs>
			<clipPath id="SVGID_4_">
				<use xlink:href="#SVGID_3_"  style="overflow:visible;"/>
			</clipPath>
			<path class="st12" d="M154.73,99.07c0.06,0,0.12,0,0.17,0c5.16,0.02,9.36-3.69,9.38-8.31l0.08-17.08l-9.52-0.05L154.73,99.07z"/>
		</g>
	</g>
</g>
<g class="st10">
	<g>
		<defs>
			<rect id="SVGID_5_" x="154.86" y="48.21" width="9.6" height="25.48"/>
		</defs>
		<clipPath id="SVGID_6_">
			<use xlink:href="#SVGID_5_"  style="overflow:visible;"/>
		</clipPath>
		<g class="st13">
			<defs>
				<rect id="SVGID_7_" x="154.86" y="48.21" width="9.6" height="25.48"/>
			</defs>
			<clipPath id="SVGID_8_">
				<use xlink:href="#SVGID_7_"  style="overflow:visible;"/>
			</clipPath>
			<path class="st14" d="M155.15,48.21L155.15,48.21c-0.06,0-0.12,0-0.17,0l-0.13,25.43l9.52,0.05l0.08-17.08
				C164.48,51.99,160.31,48.23,155.15,48.21"/>
		</g>
	</g>
</g>
<path class="st8" d="M217.68,40.74c2.92,3.58,2.04,9.12-1.96,12.38c-4,3.26-9.6,3.01-12.52-0.57l-10.8-13.23l14.48-11.81
	L217.68,40.74z"/>
<path class="st9" d="M183.57,13.71L183.57,13.71c4-3.26,9.6-3.01,12.52,0.57l10.79,13.23l-14.48,11.81l-10.79-13.23
	C178.7,22.51,179.57,16.97,183.57,13.71"/>
<g class="st10">
	<g>
		<defs>
			<rect id="SVGID_9_" x="199.51" y="27.51" width="19.89" height="25.72"/>
		</defs>
		<clipPath id="SVGID_10_">
			<use xlink:href="#SVGID_9_"  style="overflow:visible;"/>
		</clipPath>
		<g class="st15">
			<defs>
				<rect id="SVGID_11_" x="199.51" y="27.51" width="19.89" height="25.72"/>
			</defs>
			<clipPath id="SVGID_12_">
				<use xlink:href="#SVGID_11_"  style="overflow:visible;"/>
			</clipPath>
			<path class="st16" d="M215.59,53.23l0.14-0.11c4-3.26,4.88-8.8,1.96-12.38l-10.8-13.23l-7.37,6.02L215.59,53.23z"/>
		</g>
	</g>
</g>
<g class="st10">
	<g>
		<defs>
			<rect id="SVGID_13_" x="183.44" y="11.42" width="23.45" height="22.11"/>
		</defs>
		<clipPath id="SVGID_14_">
			<use xlink:href="#SVGID_13_"  style="overflow:visible;"/>
		</clipPath>
		<g class="st17">
			<defs>
				<rect id="SVGID_15_" x="183.44" y="11.42" width="23.45" height="22.11"/>
			</defs>
			<clipPath id="SVGID_16_">
				<use xlink:href="#SVGID_15_"  style="overflow:visible;"/>
			</clipPath>
			<path class="st18" d="M183.57,13.71L183.57,13.71c-0.05,0.04-0.09,0.07-0.13,0.11l16.08,19.7l7.37-6.02l-10.79-13.23
				C193.17,10.7,187.57,10.45,183.57,13.71"/>
		</g>
	</g>
</g>
<path class="st8" d="M195.73,185.6c-1.74,7.74-10.18,12.44-18.84,10.49s-14.27-9.81-12.53-17.55l6.45-28.66l31.36,7.06L195.73,185.6
	z"/>
<path class="st9" d="M196.1,110.73L196.1,110.73c8.66,1.95,14.27,9.81,12.52,17.55l-6.45,28.66l-31.36-7.06l6.45-28.66
	C179.01,113.48,187.44,108.78,196.1,110.73"/>
<g class="st10">
	<g>
		<defs>
			<rect id="SVGID_17_" x="176.6" y="153.35" width="25.58" height="43.18"/>
		</defs>
		<clipPath id="SVGID_18_">
			<use xlink:href="#SVGID_17_"  style="overflow:visible;"/>
		</clipPath>
		<g class="st19">
			<defs>
				<rect id="SVGID_19_" x="176.6" y="153.35" width="25.57" height="43.18"/>
			</defs>
			<clipPath id="SVGID_20_">
				<use xlink:href="#SVGID_19_"  style="overflow:visible;"/>
			</clipPath>
			<path class="st20" d="M176.6,196.02c0.1,0.02,0.19,0.05,0.29,0.07c8.66,1.95,17.09-2.75,18.84-10.49l6.45-28.66l-15.97-3.59
				L176.6,196.02z"/>
		</g>
	</g>
</g>
<g class="st10">
	<g>
		<defs>
			<rect id="SVGID_21_" x="186.21" y="110.67" width="22.74" height="46.27"/>
		</defs>
		<clipPath id="SVGID_22_">
			<use xlink:href="#SVGID_21_"  style="overflow:visible;"/>
		</clipPath>
		<g class="st21">
			<defs>
				<rect id="SVGID_23_" x="186.21" y="110.67" width="22.74" height="46.27"/>
			</defs>
			<clipPath id="SVGID_24_">
				<use xlink:href="#SVGID_23_"  style="overflow:visible;"/>
			</clipPath>
			<path class="st22" d="M196.1,110.73L196.1,110.73c-0.1-0.02-0.2-0.04-0.29-0.06l-9.6,42.68l15.97,3.59l6.45-28.66
				C210.37,120.54,204.76,112.68,196.1,110.73"/>
		</g>
	</g>
</g>
<path class="st8" d="M135.96,147.53c2.13,2.81,6.41,3.16,9.56,0.78c3.15-2.38,3.97-6.6,1.84-9.42l-7.89-10.42l-11.4,8.64
	L135.96,147.53z"/>
<path class="st9" d="M122.01,117.28L122.01,117.28c-3.15,2.39-3.97,6.6-1.84,9.42l7.89,10.42l11.4-8.64l-7.89-10.42
	C129.44,115.24,125.16,114.89,122.01,117.28"/>
<g class="st10">
	<g>
		<defs>
			<rect id="SVGID_25_" x="128.07" y="132.71" width="17.56" height="17.18"/>
		</defs>
		<clipPath id="SVGID_26_">
			<use xlink:href="#SVGID_25_"  style="overflow:visible;"/>
		</clipPath>
		<g class="st23">
			<defs>
				<rect id="SVGID_27_" x="128.07" y="132.71" width="17.56" height="17.18"/>
			</defs>
			<clipPath id="SVGID_28_">
				<use xlink:href="#SVGID_27_"  style="overflow:visible;"/>
			</clipPath>
			<path class="st24" d="M145.63,148.22c-0.04,0.03-0.07,0.06-0.11,0.08c-3.15,2.39-7.43,2.04-9.56-0.78l-7.9-10.42l5.81-4.4
				L145.63,148.22z"/>
		</g>
	</g>
</g>
<g class="st10">
	<g>
		<defs>
			<rect id="SVGID_29_" x="118.99" y="117.2" width="14.89" height="19.91"/>
		</defs>
		<clipPath id="SVGID_30_">
			<use xlink:href="#SVGID_29_"  style="overflow:visible;"/>
		</clipPath>
		<g class="st25">
			<defs>
				<rect id="SVGID_31_" x="118.99" y="117.2" width="14.89" height="19.91"/>
			</defs>
			<clipPath id="SVGID_32_">
				<use xlink:href="#SVGID_31_"  style="overflow:visible;"/>
			</clipPath>
			<path class="st26" d="M122.01,117.28L122.01,117.28c0.03-0.03,0.07-0.05,0.11-0.08l11.76,15.51l-5.81,4.4l-7.89-10.42
				C118.04,123.88,118.86,119.66,122.01,117.28"/>
		</g>
	</g>
</g>
</svg>
