<?xml version="1.0" encoding="utf-8"?>
<!-- Generator: Adobe Illustrator 23.0.1, SVG Export Plug-In . SVG Version: 6.00 Build 0)  -->
<svg version="1.1" id="Camada_1" xmlns="http://www.w3.org/2000/svg" xmlns:xlink="http://www.w3.org/1999/xlink" x="0px" y="0px"
	 viewBox="0 0 213.35 202.43" style="enable-background:new 0 0 213.35 202.43;" xml:space="preserve">
<style type="text/css">
	.st0{fill:#FED7FF;}
	.st1{fill:#662D91;}
</style>
<path class="st0" d="M90.1,10.29L3.21,151.95c-8.65,14.11,1.15,32.31,17.69,32.84l164.66,5.33c16.55,0.54,27.51-17.01,19.76-31.65
	L127.56,11.48C119.75-3.28,98.84-3.95,90.1,10.29"/>
<path class="st1" d="M203.25,28.53H20.58c-5.57,0-10.1,4.52-10.1,10.1v118.73c0,5.58,4.52,10.1,10.1,10.1h77.34
	c-3.99-2.83-5.87-7.18-5.07-11.54H27.8c-3.19,0-5.77-2.58-5.77-5.77V45.83c0-3.19,2.58-5.77,5.77-5.77h168.25
	c3.19,0,5.77,2.58,5.77,5.77v104.31c0,3.19-2.58,5.77-5.77,5.77h-2.43l3.08,7.51c0.55,1.34,1.1,2.68,1.65,4.03h4.91
	c5.57,0,10.09-4.52,10.09-10.1V38.62C213.35,33.05,208.83,28.53,203.25,28.53"/>
<path class="st1" d="M130.31,128.95c1.32-5.12,3.68-7.96,7.69-8.39c6.39-0.7,8.84,3.61,10.45,8.84c0.72-0.53,0.43-1.09,0.44-1.59
	c0.04-4.14,2.81-7.62,6.67-8.36c4.27-0.82,8,1.16,9.68,5.16c0.07,0.17,0.14,0.34,0.21,0.51c0.99,2.4,0.99,2.4,3.27,1.21
	c4.15-2.17,9.51-0.19,11.37,4.3c4.68,11.29,9.31,22.61,13.96,33.92c2.12,5.17,4.24,10.35,6.35,15.52c1.13,2.75,0.46,4.34-2.36,5.5
	c-11.7,4.82-23.4,9.65-35.12,14.43c-8.31,3.39-6.08,3.53-13.39-1.36c-16.59-11.09-33.14-22.23-49.7-33.36
	c-3.67-2.47-5.11-6.44-3.75-10.2c1.86-5.18,7.86-7.25,12.57-4.22c4.44,2.86,8.77,5.88,13.15,8.82c0.41,0.27,0.81,0.55,1.23,0.81
	c0.41,0.25,0.82,0.24,1.19-0.08c0.33-0.28,0.3-0.65,0.17-1.01c-0.19-0.52-0.4-1.03-0.61-1.54c-6.73-16.36-13.45-32.73-20.18-49.09
	c-0.59-1.42-1.12-2.86-1.21-4.42c-0.23-4.25,2.57-7.81,6.88-8.76c3.79-0.84,7.87,1.39,9.49,5.3c3.63,8.74,7.2,17.5,10.8,26.25
	L130.31,128.95z"/>
<path class="st1" d="M84.82,139.45L84.82,139.45c3.08-1.31,3.87-5.41,1.38-7.66c-5.41-4.9-9.04-11.26-10.83-19.13
	c-4.4-19.3,8.65-39.33,28.13-43.14c23.7-4.64,43.98,13.41,43.54,36.11c-0.07,3.46,3.35,5.89,6.54,4.53l0.06-0.02
	c1.71-0.73,2.84-2.4,2.87-4.26c0.11-6.26-1.05-12.4-3.65-18.67c-0.8-1.5-1.61-3.54-2.75-5.46c-12.89-21.68-41.16-28.85-62.63-15.86
	c-19.39,11.73-27.29,35.12-18.89,56.22c2.61,6.57,6.4,12.04,11.27,16.5C81.19,139.85,83.14,140.17,84.82,139.45"/>
<path class="st1" d="M94.43,120.92L94.43,120.92c2.77-1.18,3.74-4.61,2.02-7.08c-0.21-0.3-0.38-0.57-0.47-0.76
	c-3.07-6.2-2.88-12.35,1.34-17.87c4.4-5.77,10.52-8.06,17.61-6.41c6.82,1.59,11.07,6.15,12.44,13.05c0,0.02,0.01,0.03,0.01,0.05
	c0.47,2.37,3.03,3.69,5.25,2.74c2.84-1.21,4.3-4.38,3.36-7.32c-0.74-2.32-1.84-4.57-3.33-6.76c-8.38-12.29-24.12-15.43-36.49-7.11
	c-8.43,5.67-12.3,13.97-11.37,24.05c0.41,4.42,1.68,8.28,3.75,11.6C89.79,121.07,92.3,121.83,94.43,120.92"/>
</svg>
