<?xml version="1.0" encoding="utf-8"?>
<!-- Generator: Adobe Illustrator 23.0.1, SVG Export Plug-In . SVG Version: 6.00 Build 0)  -->
<svg version="1.1" id="Camada_1" xmlns="http://www.w3.org/2000/svg" xmlns:xlink="http://www.w3.org/1999/xlink" x="0px" y="0px"
	 viewBox="0 0 127.62 140.62" style="enable-background:new 0 0 127.62 140.62;" xml:space="preserve">
<style type="text/css">
	.st0{fill:#B6FFE5;}
	.st1{fill:none;stroke:#004892;stroke-width:0.669;stroke-linecap:round;stroke-linejoin:round;stroke-miterlimit:10;}
	.st2{fill:#303351;}
	.st3{fill:#3C3F68;}
	.st4{fill:#FFC7A1;}
	.st5{fill:#999999;}
	.st6{fill:none;stroke:#846E5B;stroke-width:1.059;stroke-linecap:round;stroke-linejoin:round;stroke-miterlimit:10;}
	.st7{fill:#846E5B;}
	.st8{fill:#CB4B57;}
	.st9{fill:#FFFFFF;}
</style>
<path class="st0" d="M58.61,36.28l-41.4,67.49c-4.12,6.72,0.55,15.39,8.43,15.65l78.45,2.54c7.89,0.26,13.11-8.11,9.42-15.08
	L76.45,36.84C72.73,29.81,62.77,29.49,58.61,36.28"/>
<path class="st1" d="M56.3,32.97l-42.2,71.85c-4.85,8.25,1.1,18.65,10.67,18.65h82.32c9.57,0,15.52-10.39,10.67-18.65l-42.2-71.85
	C71.24,25.62,60.61,25.62,56.3,32.97z"/>
<path class="st1" d="M18.4,88.41c0,1.4-1.12,2.53-2.5,2.53c-1.38,0-2.5-1.13-2.5-2.53c0-1.39,1.12-2.52,2.5-2.52
	C17.29,85.89,18.4,87.02,18.4,88.41z"/>
<path class="st1" d="M14.94,90.65c0,0.85-0.68,1.54-1.52,1.54c-0.84,0-1.52-0.69-1.52-1.54c0-0.85,0.68-1.54,1.52-1.54
	C14.25,89.11,14.94,89.8,14.94,90.65z"/>
<path class="st1" d="M106.29,65.17c0,1.4-1.12,2.53-2.5,2.53c-1.38,0-2.49-1.13-2.49-2.53c0-1.39,1.12-2.52,2.49-2.52
	C105.18,62.64,106.29,63.77,106.29,65.17z"/>
<path class="st1" d="M43.01,40.46c0,1.4-1.12,2.53-2.5,2.53c-1.38,0-2.49-1.13-2.49-2.53c0-1.39,1.12-2.52,2.49-2.52
	C41.89,37.94,43.01,39.07,43.01,40.46z"/>
<line class="st1" x1="35.08" y1="75.39" x2="12.56" y2="75.39"/>
<line class="st1" x1="18.03" y1="77.85" x2="0.33" y2="77.85"/>
<line class="st1" x1="115.57" y1="57.99" x2="127.29" y2="57.99"/>
<line class="st1" x1="110.13" y1="57.99" x2="113.78" y2="57.99"/>
<line class="st1" x1="99.62" y1="57.99" x2="107.98" y2="57.99"/>
<line class="st1" x1="99.69" y1="60.05" x2="111.42" y2="60.05"/>
<line class="st1" x1="94.25" y1="60.05" x2="97.9" y2="60.05"/>
<line class="st1" x1="83.75" y1="60.05" x2="92.1" y2="60.05"/>
<line class="st1" x1="33.58" y1="126.29" x2="7.12" y2="126.29"/>
<line class="st1" x1="40.51" y1="126.29" x2="36.86" y2="126.29"/>
<line class="st1" x1="81.21" y1="127.1" x2="107.67" y2="127.1"/>
<line class="st1" x1="73.63" y1="127.1" x2="77.28" y2="127.1"/>
<line class="st1" x1="87.72" y1="132.35" x2="99.45" y2="132.35"/>
<line class="st1" x1="82.28" y1="132.35" x2="85.93" y2="132.35"/>
<line class="st1" x1="71.77" y1="132.35" x2="80.13" y2="132.35"/>
<path class="st2" d="M63.32,69.82c-1.47,1.74-15.89,25.56-15.89,25.56l2.84,6.85c0,0,2.8-0.4,6.55-3.45
	c3.75-3.04,15.75-19.98,18.3-25.04C77.66,68.69,66.76,65.73,63.32,69.82"/>
<path class="st3" d="M48.63,67.01c0,0,7.24,9.67,9.16,28.47c0.66,6.49-4.87,33.94-3.2,38.5c1.66,4.55,5.52,5.09,14.08,5.76
	c10.53,0.83,26.82,2.54,29.53-3.29c0.86-1.87,5.79-51.4-6.62-66.38C82.05,58.56,70.79,52.5,70.79,52.5L48.63,67.01z"/>
<path class="st4" d="M24.62,31.25c-1.92,6.16,4.26,15.05,6.07,17.22c0.62,0.74-0.56,7,2.17,13.19c1.92,4.37,7.56,7.67,13.38,8.24
	c5.4,0.53,10.72-0.83,17.09-3.5c4.69-1.96,12.47-8.46,13.3-11.34c0.84-2.88-2.67-22.35-8.96-31.79
	c-6.29-9.45-13.18-10.48-22.22-8.59C36.42,16.56,27.4,22.3,24.62,31.25"/>
<path class="st5" d="M76.64,55.06c0,0-10.76-0.4-14.12-4.52c0,0,1.61-6.01,0.01-12.46c-1.6-6.45-6.52-5.95-8.15-3.94
	s-3.58,3.49-0.8,11.23l-0.72,0.97c0,0-5.45-8.55-5.9-9.89c-0.45-1.34-0.46-6.84-1.03-8.88c-0.57-2.04-6.71-4.05-9.96-2.03
	c-3.25,2.01-1.96,9.43-6.07,11.25c-4.11,1.82-10.53,1.42-13.8-1.1C11.6,32.23,4,25.04,8.87,13.96c4.31-9.79,10.85,0.24,19.06-4.34
	c3.19-1.78,12.36-13.75,39.25-8.13c5.57,1.16-1.69,6.75-1.69,6.75s4.06-2.24,7.09,3.06c3.04,5.3,7.71,17.19,6.89,24.46
	C78.66,43.03,76.64,55.06,76.64,55.06"/>
<path class="st6" d="M37.54,40.5c0,0-4.12,3.07-5.3,7.22c0,0,1.43-1.71,5.28-2.58"/>
<path class="st7" d="M27.2,41.58c-0.08-2.04,2.05-3.85,6.02-5.01c2.8-0.81,4.92-1.23,5.9-0.38c1.39,1.2,0,1.03-3.41,1.54
	c-2.15,0.32-3.05,2.04-5.29,3.84C27.95,43.57,27.26,42.98,27.2,41.58"/>
<path class="st8" d="M49.02,55.66c1.3,2.11-0.64,5.65-4.31,7.91c-3.68,2.26-7.71,2.39-9.01,0.28c-1.3-2.11,0.63-5.65,4.31-7.91
	C43.69,53.68,47.72,53.55,49.02,55.66"/>
<path class="st9" d="M43.7,52.98c2.41,0.24,2.58,2.11,2.62,2.57c0.04,0.46,2.65,0.79,2.59,3.64c-0.07,2.85,0.69,2.23,0.78,3.78
	c0.1,1.54,2.99,5.33,2.34,7.59c-0.66,2.26-2.36,5.03-2.02,7.17c0.34,2.13-1.37,2.95-2.96,1.72c-1.36-1.05-4.49-2.45-5.94-2.26
	c-1.44,0.2-2.21,1.62-4.24-0.18c-2.03-1.8-1.49-8.09-2.57-10.52c-1.08-2.43-2.89-5.81-0.57-7.24c2.33-1.43,3.64-3.55,4.2-4.17
	C38.49,54.44,40.42,52.65,43.7,52.98"/>
<path class="st4" d="M32.93,60.24c-0.55,0.23-1.59,1.56-1.8,2.95c-0.2,1.37-0.41,6.59-0.15,8.28c0.26,1.69,3.9,5.59,4.1,6.14
	c0.21,0.56,0.8,1.94,0.96,2.07c0,0,5.8-2.02,5.72-2.27c-0.08-0.26-1.04-1.68-1.1-1.9c-0.06-0.22,0.19-3.54,0.09-4.55
	c-0.1-1.02-0.98-3.17-1.29-4.2c-0.22-0.74-1.79,0.07-1.36,1.85c0.2,0.83,0.34,3.46-0.16,3.66s-2.09-0.83-2.57-1.84
	c-0.99-2.06-1.33-6.78-1.42-8.24C33.85,60.73,33.94,59.83,32.93,60.24"/>
<path class="st4" d="M53.04,74.06c0,0-1.76-1.96-2.08-2.36c-0.31-0.4-0.75-4.08-0.99-4.91c-0.24-0.83-1.11-2.96-1.39-4.04
	c-0.28-1.09-1.57,0.47-1.5,1.23c0.19,1.87,0.84,3.27,0.84,3.27s-3.3-1.57-4.46-3.4c-1.16-1.83-2.51-5.47-2.85-6.91
	c-0.34-1.44-2.21,0.86-1.97,2.15c0,0-1.37-0.13-1.08,1.96c0,0-1.27,0.42-0.21,2.66c0,0-0.47,1.85,1.3,4.27
	c1.76,2.42,3.47,4.17,4.34,4.87c0.88,0.7,3.06,2.03,3.3,2.23c0.25,0.19,1.62,1.83,1.62,1.83L53.04,74.06z"/>
<path class="st2" d="M51.38,71.5c0,0-2.6,1.6-5.02,4.31c0,0,19.51,23.22,25.55,26.63c6.03,3.41,9.71-2.75,9.71-5.64
	c0-2.89-1.73-22.86-2.05-27.11c-0.32-4.25-11.07-2.18-11.46,0.33c-0.39,2.51,2.23,17.2,2.23,17.2L51.38,71.5z"/>
<path class="st2" d="M40.95,75.57c0,0-5.31,2-6.07,2.49c0,0,6.79,16.43,15.39,24.16c0.6,0.54,2.81-5.54,3.47-6.32
	c0.66-0.79-0.7-3.71-0.7-3.71L40.95,75.57z"/>
</svg>
