<?xml version="1.0" encoding="utf-8"?>
<!-- Generator: Adobe Illustrator 23.0.1, SVG Export Plug-In . SVG Version: 6.00 Build 0)  -->
<svg version="1.1" id="Camada_1" xmlns="http://www.w3.org/2000/svg" xmlns:xlink="http://www.w3.org/1999/xlink" x="0px" y="0px"
	 viewBox="0 0 123.32 123.32" style="enable-background:new 0 0 123.32 123.32;" xml:space="preserve">
<style type="text/css">
	.st0{fill:#B6FFE5;}
	.st1{fill:none;stroke:#004892;stroke-width:1.323;stroke-linecap:round;stroke-linejoin:round;stroke-miterlimit:10;}
	.st2{fill:#662D91;}
</style>
<path class="st0" d="M105.46,118.94H17.87c-6.78,0-12.28-5.5-12.28-12.28V19.07c0-6.78,5.5-12.28,12.28-12.28h87.59
	c6.78,0,12.28,5.5,12.28,12.28v87.59C117.74,113.44,112.24,118.94,105.46,118.94"/>
<path class="st1" d="M103.94,122.64l-91.2-5.18c-7.06-0.4-12.46-6.45-12.06-13.51l5.18-91.2c0.4-7.06,6.45-12.46,13.51-12.06
	l91.2,5.18c7.06,0.4,12.46,6.45,12.06,13.51l-5.18,91.2C117.06,117.64,111.01,123.04,103.94,122.64z"/>
<path class="st2" d="M51.11,46.76c-0.18-0.21-0.44-0.34-0.72-0.35l-35.24-1.25c-0.28-0.01-0.55,0.1-0.74,0.3
	c-0.19,0.2-0.29,0.47-0.27,0.75l3.23,47.16c0.03,0.5,0.44,0.9,0.94,0.91l25.45,0.91c0.5,0.02,0.93-0.35,1.01-0.84l6.56-46.82
	C51.37,47.26,51.29,46.98,51.11,46.76 M43.63,88.32l-24.71-0.88l-1.48-21.58c0.84,0.13,1.32,0.46,1.9,0.86
	c0.81,0.56,1.72,1.2,3.53,1.26c1.8,0.07,2.76-0.5,3.6-1.01c0.73-0.44,1.3-0.78,2.53-0.74c1.23,0.04,1.78,0.43,2.47,0.91
	c0.81,0.56,1.72,1.2,3.53,1.26c1.8,0.07,2.76-0.51,3.6-1.01c0.73-0.43,1.3-0.78,2.53-0.73c1.23,0.04,1.78,0.43,2.48,0.91
	c0.68,0.48,1.44,1,2.75,1.19L43.63,88.32z M19.26,92.35l-0.2-2.95l24.3,0.86l-0.41,2.92L19.26,92.35z M46.65,66.83
	c-0.85-0.13-1.33-0.46-1.9-0.86c-0.81-0.56-1.72-1.2-3.52-1.26c-1.81-0.07-2.76,0.51-3.61,1.01c-0.73,0.43-1.3,0.78-2.53,0.73
	c-1.23-0.04-1.78-0.43-2.48-0.91c-0.8-0.56-1.72-1.2-3.52-1.26c-1.81-0.06-2.76,0.51-3.61,1.01c-0.73,0.44-1.3,0.78-2.53,0.73
	c-1.23-0.04-1.78-0.42-2.47-0.91c-0.75-0.52-1.59-1.1-3.15-1.24l-1.14-16.71l33.07,1.17L46.65,66.83z"/>
<path class="st2" d="M71.49,43.44c0.01-0.96-0.73-1.76-1.7-1.82l-0.11-0.01c-0.99-0.06-1.85,0.7-1.91,1.7L67.01,56.2
	c-0.02,0.43-0.39,0.75-0.82,0.73c-0.42-0.03-0.74-0.37-0.73-0.79l0.22-13.03c0.02-0.97-0.73-1.77-1.7-1.83
	c-0.97-0.05-1.8,0.66-1.9,1.62l-1.3,12.96c-0.04,0.42-0.4,0.72-0.82,0.7c-0.43-0.03-0.75-0.39-0.73-0.82L60,42.86
	c0.06-1-0.7-1.85-1.69-1.91l-0.11-0.01c-0.96-0.05-1.8,0.65-1.9,1.61l-1.9,18.03c-0.13,1.26,0.54,2.48,1.68,3.04l3.19,1.57
	c0.54,0.27,0.86,0.83,0.81,1.43l-2.27,28.52c-0.06,0.74,0.16,1.48,0.62,2.07l0.04,0.05c0.53,0.68,1.33,1.1,2.19,1.15
	c0.86,0.05,1.7-0.27,2.3-0.89l0.05-0.04c0.52-0.53,0.83-1.24,0.86-1.99l1.08-28.58c0.02-0.6,0.4-1.12,0.97-1.32l3.35-1.19
	c1.19-0.42,2.01-1.56,2.02-2.83L71.49,43.44z M68.72,62.92l-3.35,1.19c-1.18,0.42-1.97,1.5-2.02,2.75l-1.08,28.58
	c-0.01,0.35-0.16,0.68-0.4,0.94l-0.04,0.04c-0.29,0.3-0.68,0.44-1.09,0.42c-0.41-0.02-0.78-0.22-1.03-0.55l-0.04-0.05
	c-0.22-0.28-0.32-0.63-0.29-0.98l2.27-28.52c0.1-1.25-0.56-2.41-1.69-2.96l-3.19-1.57c-0.55-0.27-0.87-0.86-0.81-1.47l1.9-18.03
	c0.01-0.12,0.12-0.21,0.24-0.21l0.11,0.01c0.13,0.01,0.22,0.12,0.22,0.24l-0.76,12.88c-0.08,1.29,0.92,2.41,2.21,2.49
	c1.26,0.07,2.35-0.86,2.48-2.11l1.3-12.96c0.01-0.12,0.12-0.21,0.24-0.21c0.12,0,0.22,0.11,0.22,0.23l-0.22,13.02
	c-0.02,1.26,0.95,2.31,2.21,2.39c1.29,0.08,2.41-0.92,2.48-2.21l0.76-12.89c0.01-0.13,0.12-0.22,0.24-0.21l0.11,0
	c0.12,0.01,0.22,0.11,0.22,0.23L69.7,61.56C69.69,62.17,69.3,62.72,68.72,62.92"/>
<path class="st2" d="M109.24,54.04c-0.23-0.22-0.57-0.27-0.86-0.14c-0.56,0.25-13.68,6.39-20.98,25.8l-1.82,4.83
	c-0.09,0.23-0.06,0.48,0.07,0.69l4.25,6.84l-4.84,10.54c-0.33,0.72-0.36,1.55-0.08,2.3c0.3,0.8,0.94,1.44,1.75,1.75
	c0.81,0.3,1.7,0.24,2.46-0.16l0.08-0.04c0.64-0.34,1.13-0.91,1.39-1.58l18.78-49.97C109.56,54.59,109.48,54.25,109.24,54.04
	 M89.19,104.3c-0.12,0.32-0.35,0.59-0.66,0.75l-0.08,0.04c-0.37,0.2-0.78,0.22-1.17,0.08c-0.39-0.14-0.68-0.44-0.83-0.82
	c-0.13-0.35-0.12-0.75,0.04-1.09l5.01-10.93c0.11-0.24,0.09-0.52-0.05-0.74l-4.26-6.86l1.68-4.47
	c5.47-14.54,14.49-21.48,18.33-23.89L89.19,104.3z"/>
<path class="st2" d="M90.81,81.82c0.41,0.15,0.86-0.05,1.01-0.46c2.55-6.77,6.14-12.55,10.68-17.16c0.3-0.31,0.3-0.81-0.01-1.11
	c-0.31-0.3-0.81-0.3-1.11,0.01c-4.7,4.77-8.41,10.73-11.04,17.71C90.2,81.21,90.4,81.67,90.81,81.82"/>
<path class="st2" d="M88.58,45.27c-4.53-1.35-10.31,4.75-12.08,10.69c-1.29,4.34-0.46,8.8,2.12,11.36c0.42,0.41,0.57,1,0.4,1.52
	l-8.79,27.45c-0.23,0.71-0.18,1.48,0.13,2.16l0.03,0.06c0.36,0.78,1.04,1.37,1.86,1.62c0.83,0.25,1.72,0.12,2.45-0.34l0.05-0.03
	c0.63-0.4,1.09-1.01,1.29-1.73l7.65-27.79c0.15-0.53,0.6-0.94,1.17-1.05c3.56-0.73,6.7-4.01,7.99-8.35
	C94.62,54.88,93.11,46.61,88.58,45.27 M84.54,67.63c-1.16,0.24-2.07,1.07-2.37,2.18l-7.65,27.78c-0.1,0.34-0.31,0.63-0.61,0.82
	l-0.05,0.03c-0.35,0.22-0.76,0.28-1.16,0.16c-0.4-0.12-0.71-0.39-0.88-0.77l-0.03-0.06c-0.15-0.32-0.17-0.68-0.06-1.02l8.79-27.45
	c0.35-1.09,0.04-2.29-0.79-3.12c-2.14-2.12-2.83-6.05-1.72-9.79c1.52-5.12,6.6-10.68,10.13-9.63c3.53,1.05,4.73,8.48,3.21,13.6
	C90.23,64.11,87.49,67.02,84.54,67.63"/>
<path class="st2" d="M87.68,48.28c-2.36-0.7-6.79,3.94-8.17,8.57c-0.12,0.42,0.11,0.86,0.53,0.98c0.42,0.12,0.85-0.11,0.98-0.53
	c1.38-4.63,5.34-7.77,6.21-7.51c0.42,0.12,0.85-0.11,0.98-0.53C88.33,48.85,88.09,48.41,87.68,48.28"/>
<path class="st2" d="M57.52,29.43c-0.97,0.75-2.36,0.59-3.09-0.36c-0.74-0.95-0.55-2.34,0.42-3.09c0.97-0.75,2.36-0.59,3.09,0.37
	C58.68,27.29,58.49,28.68,57.52,29.43 M53.76,24.56c-1.76,1.36-2.1,3.89-0.76,5.61c1.34,1.73,3.86,2.03,5.63,0.66
	c1.76-1.37,2.1-3.88,0.76-5.61C58.04,23.5,55.52,23.2,53.76,24.56"/>
<path class="st2" d="M91.91,38.66c-0.97,0.75-2.36,0.59-3.09-0.37c-0.74-0.95-0.55-2.33,0.42-3.09s2.36-0.59,3.09,0.36
	C93.06,36.53,92.87,37.91,91.91,38.66 M88.14,33.8c-1.76,1.37-2.1,3.88-0.76,5.61c1.34,1.73,3.86,2.03,5.63,0.66
	c1.76-1.36,2.1-3.88,0.76-5.61C92.42,32.73,89.9,32.44,88.14,33.8"/>
<path class="st2" d="M59.81,16.32c-0.35,0.26-0.84,0.21-1.1-0.13c-0.26-0.34-0.19-0.83,0.15-1.1c0.35-0.26,0.84-0.21,1.1,0.13
	C60.22,15.56,60.15,16.05,59.81,16.32 M61.39,14.1c-0.87-1.11-2.5-1.31-3.63-0.43c-1.14,0.88-1.36,2.51-0.49,3.62
	c0.87,1.12,2.49,1.31,3.63,0.43C62.04,16.85,62.26,15.22,61.39,14.1"/>
<path class="st2" d="M49.51,18.9c0.34-0.27,0.84-0.21,1.1,0.13c0.26,0.34,0.19,0.83-0.15,1.1c-0.35,0.27-0.84,0.21-1.1-0.13
	C49.1,19.66,49.17,19.17,49.51,18.9 M51.56,21.54c1.14-0.88,1.36-2.51,0.49-3.62c-0.87-1.12-2.49-1.31-3.63-0.43
	s-1.36,2.51-0.49,3.62C48.79,22.23,50.42,22.42,51.56,21.54"/>
<path class="st2" d="M66.82,19.82c-0.35,0.27-0.84,0.21-1.1-0.13c-0.26-0.34-0.19-0.83,0.15-1.1c0.34-0.26,0.84-0.21,1.1,0.13
	C67.23,19.06,67.16,19.55,66.82,19.82 M64.77,17.18c-1.14,0.88-1.36,2.51-0.49,3.62c0.87,1.12,2.49,1.31,3.63,0.43
	c1.14-0.88,1.36-2.51,0.49-3.62C67.54,16.49,65.91,16.3,64.77,17.18"/>
<path class="st2" d="M90.24,25.23c-0.54,0.41-1.3,0.33-1.71-0.2c-0.41-0.52-0.3-1.29,0.23-1.7c0.53-0.42,1.3-0.32,1.71,0.2
	C90.88,24.05,90.77,24.81,90.24,25.23 M87.67,21.91c-1.33,1.03-1.58,2.93-0.57,4.23c1.01,1.3,2.91,1.53,4.24,0.5
	c1.33-1.03,1.58-2.92,0.57-4.23C90.9,21.11,89,20.89,87.67,21.91"/>
<path class="st2" d="M77.65,20.27c0.53-0.41,1.3-0.33,1.71,0.2c0.41,0.52,0.3,1.29-0.23,1.7c-0.53,0.42-1.3,0.32-1.71-0.2
	C77.02,21.45,77.12,20.69,77.65,20.27 M80.22,23.59c1.33-1.03,1.58-2.92,0.57-4.23c-1.01-1.3-2.91-1.53-4.24-0.5
	c-1.33,1.03-1.58,2.92-0.57,4.23C77,24.4,78.9,24.62,80.22,23.59"/>
<path class="st2" d="M44.89,34.09c-0.53,0.41-1.3,0.33-1.71-0.2c-0.41-0.52-0.3-1.29,0.23-1.7c0.53-0.41,1.3-0.32,1.71,0.2
	C45.53,32.91,45.42,33.68,44.89,34.09 M42.32,30.77c-1.33,1.03-1.58,2.93-0.57,4.23c1.01,1.3,2.91,1.53,4.24,0.5
	c1.33-1.03,1.58-2.92,0.57-4.23C45.55,29.97,43.65,29.75,42.32,30.77"/>
</svg>
