<?xml version="1.0" encoding="utf-8"?>
<!-- Generator: Adobe Illustrator 23.0.1, SVG Export Plug-In . SVG Version: 6.00 Build 0)  -->
<svg version="1.1" id="Camada_1" xmlns="http://www.w3.org/2000/svg" xmlns:xlink="http://www.w3.org/1999/xlink" x="0px" y="0px"
	 viewBox="0 0 146 148.12" style="enable-background:new 0 0 146 148.12;" xml:space="preserve">
<style type="text/css">
	.st0{fill:#FFE2B0;}
	.st1{fill:#662D91;}
</style>
<path class="st0" d="M146,75.12c0,40.32-32.68,73-73,73s-73-32.68-73-73c0-40.32,32.68-73,73-73S146,34.8,146,75.12"/>
<path class="st1" d="M113.14,79.58c-1.15,0-2.28-0.03-3.37-0.09c-1.64-0.09-2.89-1.49-2.8-3.13c0.09-1.64,1.51-2.89,3.13-2.81
	c0.99,0.05,2.01,0.08,3.05,0.08c8.68,0,14.01-1.87,15.6-3c-1.6-1.13-6.93-2.99-15.6-2.99c-9.54,0-15.04,2.26-15.97,3.31
	c-0.16,1.49-1.42,2.66-2.95,2.66c-1.64,0-2.97-1.33-2.97-2.97c0-7.05,13.76-8.93,21.89-8.93c8.13,0,21.89,1.88,21.89,8.93
	C135.04,77.7,121.27,79.58,113.14,79.58"/>
<path class="st1" d="M113.14,94.66c-8.13,0-21.89-1.88-21.89-8.93V70.64c0-1.64,1.33-2.97,2.97-2.97s2.97,1.33,2.97,2.97v14.79
	c0.98,1.06,6.47,3.29,15.96,3.29c9.49,0,14.97-2.23,15.95-3.29V70.64c0-1.64,1.33-2.97,2.97-2.97s2.97,1.33,2.97,2.97v15.08
	C135.04,92.78,121.27,94.66,113.14,94.66"/>
<path class="st1" d="M112.99,147.06c-13.53,0-27.17-3.3-27.17-10.66l-0.02-35.93c0.02-2.48,0.98-4.78,2.72-6.52l6.94-6.95
	c1.16-1.16,3.04-1.16,4.2,0c1.16,1.16,1.16,3.04,0,4.2l-6.95,6.95c-0.63,0.62-0.97,1.45-0.98,2.34l0.02,35.91
	c0.51,1.27,7.6,4.72,21.23,4.72c13.47,0,20.66-3.35,21.45-4.79l0.02-35.87c-0.01-0.86-0.35-1.69-0.98-2.31l-6.93-6.93
	c-1.16-1.16-1.16-3.04,0-4.2c1.16-1.16,3.04-1.16,4.2,0l6.93,6.93c1.74,1.73,2.7,4.04,2.72,6.49l-0.02,35.61
	c0.01,0.11,0.02,0.22,0.02,0.33C140.4,143.76,126.63,147.06,112.99,147.06"/>
<path class="st1" d="M46.96,70.9c-0.76,0-1.52-0.29-2.1-0.87c-1.16-1.16-1.16-3.04,0-4.2l34.98-34.98c3.79-3.79,9.35-5.25,14.5-3.8
	l19.56,5.48c0.99,0.28,1.77,1.05,2.06,2.05l4.12,14.45c0.45,1.58-0.46,3.22-2.04,3.67c-1.57,0.45-3.22-0.47-3.67-2.04l-3.66-12.85
	l-17.96-5.03c-3.09-0.86-6.43,0.01-8.7,2.28L49.06,70.03C48.48,70.61,47.72,70.9,46.96,70.9"/>
<path class="st1" d="M70.06,137.01c-5.55,0-10.77-2.16-14.7-6.09l-4.2-4.2c-1.16-1.16-1.16-3.04,0-4.2c1.16-1.16,3.04-1.16,4.2,0
	l4.2,4.2c2.8,2.8,6.53,4.35,10.5,4.35c3.96,0,7.69-1.54,10.5-4.35c5.79-5.79,5.79-15.21,0-21l-37.79-37.8
	c-5.79-5.79-15.21-5.79-21,0c-5.79,5.79-5.79,15.21,0,21l4.2,4.2c1.16,1.16,1.16,3.04,0,4.2c-1.16,1.16-3.04,1.16-4.2,0l-4.2-4.2
	c-8.1-8.1-8.1-21.29,0-29.39s21.29-8.1,29.4,0l37.79,37.79c8.1,8.1,8.1,21.29,0,29.4C80.83,134.84,75.61,137.01,70.06,137.01"/>
<path class="st1" d="M113.1,38.35c-0.76,0-1.52-0.29-2.1-0.87c-1.16-1.16-1.16-3.04,0-4.2l27.3-27.3c1.16-1.16,3.04-1.16,4.2,0
	c1.16,1.16,1.16,3.04,0,4.2l-27.3,27.3C114.62,38.06,113.86,38.35,113.1,38.35"/>
<path class="st1" d="M34.47,147.07c-1.93,0-4.04-0.37-6.3-1.13c-5.19-1.73-10.69-5.33-15.5-10.13c-10.77-10.77-14.38-23.41-8.4-29.4
	c3.08-3.08,8.02-3.69,13.9-1.74c5.19,1.73,10.69,5.33,15.5,10.14c4.81,4.8,8.41,10.31,10.14,15.5c1.96,5.88,1.34,10.82-1.74,13.9
	C40.17,146.11,37.57,147.07,34.47,147.07 M11.91,109.5c-1.5,0-2.69,0.37-3.43,1.11c-2.97,2.97-0.01,12.58,8.4,21
	c4.17,4.17,8.85,7.26,13.18,8.7c3.53,1.18,6.45,1.07,7.82-0.3c1.37-1.37,1.48-4.29,0.3-7.82c-1.44-4.33-4.53-9.01-8.7-13.18
	c-4.17-4.17-8.85-7.26-13.18-8.7C14.67,109.77,13.18,109.5,11.91,109.5"/>
<path class="st1" d="M75.31,76.15c-0.76,0-1.52-0.29-2.1-0.87c-4.17-4.17-8.85-7.26-13.18-8.7c-3.53-1.18-6.46-1.07-7.82,0.3
	c-1.16,1.16-3.04,1.16-4.2,0c-1.16-1.16-1.16-3.04,0-4.2c3.08-3.08,8.01-3.69,13.9-1.74c5.19,1.73,10.69,5.33,15.5,10.14
	c1.16,1.16,1.16,3.04,0,4.2C76.83,75.86,76.07,76.15,75.31,76.15"/>
<path class="st1" d="M90,61.45c-0.76,0-1.52-0.29-2.1-0.87c-4.17-4.17-8.85-7.26-13.18-8.7c-3.53-1.18-6.46-1.07-7.82,0.3
	c-1.16,1.16-3.04,1.16-4.2,0c-1.16-1.16-1.16-3.04,0-4.2c3.08-3.08,8.02-3.7,13.9-1.74c5.19,1.73,10.69,5.33,15.5,10.14
	c1.16,1.16,1.16,3.04,0,4.2C91.52,61.16,90.76,61.45,90,61.45"/>
<path class="st1" d="M42.07,138.78c-0.76,0-1.52-0.29-2.1-0.87c-1.16-1.16-1.16-3.04,0-4.2l17.85-17.85
	c2.19-2.19,0.46-10.04-7.35-17.85c-3.56-3.55-7.71-6.3-11.39-7.52c-2.95-0.98-5.37-0.92-6.46,0.18l-17.85,17.85
	c-1.16,1.16-3.04,1.16-4.2,0c-1.16-1.16-1.16-3.04,0-4.2l17.85-17.85c2.8-2.8,7.25-3.37,12.54-1.61c4.59,1.53,9.46,4.71,13.71,8.96
	c9.57,9.58,12.73,20.86,7.35,26.25l-17.85,17.85C43.59,138.49,42.83,138.78,42.07,138.78"/>
<path class="st1" d="M31.57,119.88c-0.76,0-1.52-0.29-2.1-0.87c-1.16-1.16-1.16-3.04,0-4.2l21-21c1.16-1.16,3.04-1.16,4.2,0
	c1.16,1.16,1.16,3.04,0,4.2l-21,21C33.09,119.59,32.33,119.88,31.57,119.88"/>
<path class="st1" d="M20.88,40.23c-0.9,0-1.79-0.34-2.48-1.02c-1.37-1.37-1.37-3.58,0-4.95L51.64,1.02c1.37-1.37,3.58-1.37,4.95,0
	c1.37,1.37,1.37,3.58,0,4.95L23.36,39.21C22.67,39.89,21.78,40.23,20.88,40.23"/>
<path class="st1" d="M54.12,40.23c-0.9,0-1.79-0.34-2.48-1.02L18.41,5.97c-1.37-1.37-1.37-3.58,0-4.95c1.37-1.37,3.58-1.37,4.95,0
	l33.23,33.23c1.37,1.37,1.37,3.58,0,4.95C55.91,39.89,55.01,40.23,54.12,40.23"/>
</svg>
