<?xml version="1.0" encoding="utf-8"?>
<!-- Generator: Adobe Illustrator 23.0.1, SVG Export Plug-In . SVG Version: 6.00 Build 0)  -->
<svg version="1.1" id="Camada_1" xmlns="http://www.w3.org/2000/svg" xmlns:xlink="http://www.w3.org/1999/xlink" x="0px" y="0px"
	 viewBox="0 0 157.58 151.58" style="enable-background:new 0 0 157.58 151.58;" xml:space="preserve">
<style type="text/css">
	.st0{fill:#662D91;}
</style>
<path class="st0" d="M63.23,110.66c-0.88,0-1.76-0.32-2.45-0.98L49.09,98.47c-1.41-1.35-1.46-3.59-0.11-5
	c1.35-1.41,3.59-1.46,5-0.11l11.69,11.21c1.41,1.35,1.46,3.59,0.11,5C65.08,110.3,64.15,110.66,63.23,110.66"/>
<path class="st0" d="M50.15,124.3c-0.88,0-1.76-0.33-2.45-0.98l-11.69-11.21c-1.41-1.35-1.46-3.59-0.1-5c1.35-1.41,3.59-1.46,5-0.11
	l11.69,11.21c1.41,1.35,1.45,3.59,0.1,5C52.01,123.94,51.08,124.3,50.15,124.3"/>
<path class="st0" d="M76.31,97.03c-0.88,0-1.76-0.33-2.45-0.98L62.17,84.84c-1.41-1.35-1.46-3.59-0.11-5c1.35-1.41,3.59-1.46,5-0.1
	l11.69,11.21c1.41,1.35,1.46,3.59,0.1,5C78.17,96.66,77.24,97.03,76.31,97.03"/>
<path class="st0" d="M90.32,82.41c-0.88,0-1.76-0.33-2.45-0.98L76.18,70.22c-1.41-1.35-1.46-3.59-0.1-5c1.35-1.41,3.59-1.46,5-0.1
	l11.69,11.21c1.41,1.35,1.46,3.59,0.1,5C92.17,82.05,91.24,82.41,90.32,82.41"/>
<path class="st0" d="M38.94,135.99c-0.88,0-1.76-0.33-2.45-0.98l-20.46-19.62c-0.68-0.65-1.07-1.54-1.09-2.48
	c-0.02-0.94,0.33-1.84,0.98-2.52l67.26-70.14c0.65-0.68,1.54-1.07,2.48-1.09c0.9-0.03,1.84,0.33,2.52,0.98l20.45,19.62
	c1.41,1.35,1.46,3.59,0.1,5L41.49,134.9C40.8,135.63,39.87,135.99,38.94,135.99 M23.48,112.73l15.35,14.72l62.37-65.03L85.85,47.7
	L23.48,112.73z"/>
<path class="st0" d="M23.99,151.58c-0.88,0-1.76-0.33-2.45-0.98L1.09,130.98c-1.41-1.35-1.46-3.59-0.1-5c1.35-1.41,3.59-1.46,5-0.1
	l20.46,19.62c1.41,1.35,1.45,3.59,0.1,5C25.85,151.21,24.92,151.58,23.99,151.58"/>
<path class="st0" d="M44.78,141.59c-0.88,0-1.76-0.32-2.45-0.98l-32.15-30.83c-1.41-1.35-1.46-3.59-0.11-5
	c1.35-1.41,3.59-1.46,5-0.1l32.15,30.83c1.41,1.35,1.45,3.59,0.1,5C46.64,141.23,45.71,141.59,44.78,141.59"/>
<path class="st0" d="M14.25,142.23c-0.88,0-1.76-0.33-2.45-0.98c-1.41-1.35-1.45-3.59-0.1-5l14.95-15.58c1.35-1.41,3.59-1.46,5-0.11
	c1.41,1.35,1.46,3.59,0.11,5L16.8,141.15C16.11,141.87,15.18,142.23,14.25,142.23"/>
<path class="st0" d="M111.41,40.93c-0.88,0-1.76-0.33-2.45-0.98c-1.41-1.35-1.46-3.59-0.1-5l32.47-33.86c1.35-1.41,3.59-1.46,5-0.11
	c1.41,1.35,1.46,3.59,0.1,5l-32.47,33.86C113.26,40.56,112.34,40.93,111.41,40.93"/>
<path class="st0" d="M106.2,65.86c-0.9,0-1.78-0.34-2.45-0.98L83.3,45.25c-0.94-0.9-1.31-2.25-0.96-3.5
	c0.35-1.25,1.36-2.22,2.63-2.5l25.3-5.66c1.17-0.26,2.38,0.08,3.23,0.91c0.85,0.83,1.24,2.03,1.01,3.2l-4.84,25.28
	c-0.24,1.27-1.16,2.31-2.4,2.7C106.92,65.8,106.56,65.86,106.2,65.86 M92.95,44.71l11,10.56l2.61-13.6L92.95,44.71z"/>
<path class="st0" d="M109.29,41.11c-1.55,0-2.97-1.03-3.41-2.6c-0.52-1.88,0.59-3.83,2.47-4.35l1.79-0.49
	c1.89-0.53,3.83,0.59,4.35,2.47c0.52,1.88-0.59,3.83-2.47,4.35l-1.79,0.49C109.92,41.07,109.6,41.11,109.29,41.11"/>
<path class="st0" d="M144.46,37.63c-7.08,0-12.96-5.76-13.1-12.84c-0.12-5.84,7.34-18.92,9.63-22.78c0.62-1.05,1.75-1.71,2.97-1.73
	c1.21-0.09,2.37,0.58,3.04,1.6c2.45,3.77,10.46,16.52,10.58,22.36c0.15,7.23-5.61,13.23-12.84,13.38L144.46,37.63z M144.18,10.77
	c-3.14,5.88-5.8,11.52-5.76,13.55c0.07,3.26,2.78,5.58,6.04,5.58h0.13c3.33,0,5.99-2.51,5.92-5.84
	C150.46,22.03,147.56,16.51,144.18,10.77"/>
<path class="st0" d="M31.46,49.68c-0.9,0-1.79-0.34-2.48-1.02c-1.37-1.37-1.37-3.58,0-4.95l33.23-33.23c1.37-1.37,3.58-1.37,4.95,0
	c1.37,1.37,1.37,3.58,0,4.95L33.94,48.65C33.25,49.34,32.36,49.68,31.46,49.68"/>
<path class="st0" d="M64.69,49.68c-0.9,0-1.79-0.34-2.48-1.02L28.99,15.42c-1.37-1.37-1.37-3.58,0-4.95c1.37-1.37,3.58-1.37,4.95,0
	L67.17,43.7c1.37,1.37,1.37,3.58,0,4.95C66.49,49.34,65.59,49.68,64.69,49.68"/>
</svg>
