<?xml version="1.0" encoding="utf-8"?>
<!-- Generator: Adobe Illustrator 23.0.1, SVG Export Plug-In . SVG Version: 6.00 Build 0)  -->
<svg version="1.1" id="Camada_1" xmlns="http://www.w3.org/2000/svg" xmlns:xlink="http://www.w3.org/1999/xlink" x="0px" y="0px"
	 viewBox="0 0 311.15 195.59" style="enable-background:new 0 0 311.15 195.59;" xml:space="preserve">
<style type="text/css">
	.st0{fill:none;}
	.st1{fill:#1E9BA5;}
	.st2{fill:#2BB5BF;}
	.st3{fill:#28A9BC;}
	.st4{fill:#32BCC6;}
	.st5{fill:#DFB28B;}
	.st6{fill:#E2B593;}
	.st7{fill:#36C4D0;}
	.st8{fill:#42CCD3;}
	.st9{fill:#ECF0F1;}
	.st10{fill:#F2CC61;}
	.st11{fill:#A30000;}
	.st12{fill:#AFAEAE;}
	.st13{fill:#D91E18;}
	.st14{fill:#B51515;}
	.st15{fill:#EF4836;}
	.st16{fill:#FFFFFF;}
	.st17{fill:#662D91;}
</style>
<path class="st0" d="M298.62-5782.32"/>
<path class="st0" d="M298.62,5469.07"/>
<path class="st0" d="M298.62-5782.32"/>
<path class="st0" d="M298.62,5469.07"/>
<path class="st0" d="M238.21,123"/>
<path class="st0" d="M298.62-5782.32"/>
<path class="st0" d="M298.62,5469.07"/>
<path class="st1" d="M111.98,94.82h-6.5c-3.9,0-7.09-3.19-7.09-7.09V71.96c0-3.9,3.19-7.09,7.09-7.09h6.5c3.9,0,7.09,3.19,7.09,7.09
	v15.77C119.07,91.63,115.88,94.82,111.98,94.82"/>
<path class="st2" d="M94.79,34.52C88.85,40.9,82.01,46.4,75.23,51.84c-11.56,9.27-13.48,9.09-7.4,23.78
	c4.46,10.78,9.98,26.53,20.22,33.6c7.98,5.51,25.29,7.43,29.99-4.21c5.34-13.21-11.52-14.05-14.93-24.29
	c-4.46-13.38,3.4-3.31,4.96-13.14C109.31,59.8,97.86,42.15,94.79,34.52"/>
<path class="st3" d="M100.78,112.76c-10.73-7.4-16.5-23.9-21.18-35.19c-6.37-15.39-4.36-15.2,7.75-24.91
	c3.92-3.14,7.84-6.3,11.62-9.63c-1.75-3.35-3.31-6.34-4.18-8.52C88.85,40.9,82.01,46.4,75.23,51.84
	c-11.56,9.27-13.48,9.09-7.4,23.78c4.46,10.78,9.98,26.53,20.22,33.6c3.49,2.41,8.77,4.13,14,4.33
	C101.61,113.3,101.18,113.04,100.78,112.76"/>
<path class="st4" d="M119.11,30.35c7.26-1.24,23.63-2.56,30.87,2.32c3.92,2.64,10.8,13.46,11.77,18.09
	C156.45,48,117.66,35.75,119.11,30.35"/>
<path class="st5" d="M223.87,159.85c5.84,5.36,29.43,11.99,36.99,14.34c17.93,5.58,33.98,12.08,50.29,21.4v-76.69
	c0,0-15.92-3.28-22.25-4.36c-12.41-2.13-24.82-4.25-37.22-6.38c-2.58-0.44-5.78-0.63-7.22,1.55c-0.57,0.87-0.71,1.94-0.82,2.98
	c-0.65,6.18-0.69,12.42-0.14,18.61c0.48,5.32,1.37,10.89-0.61,15.86c-1.06,2.67-2.89,4.96-4.07,7.59
	C237.65,157.37,223.87,159.85,223.87,159.85"/>
<path class="st6" d="M284.85,141.96c-13.67-2.34-27.33-4.68-41-7.02c-0.11-1.21-0.24-2.43-0.35-3.63
	c-0.56-6.19-0.51-12.43,0.14-18.61c0.11-1.03,0.25-2.11,0.82-2.98c1.44-2.19,4.65-2,7.22-1.55c12.41,2.13,24.82,4.25,37.22,6.38
	c6.33,1.08,22.25,4.36,22.25,4.36s-0.09,12.9,0,28.17C304.02,145.59,291.16,143.04,284.85,141.96"/>
<path class="st7" d="M29.92,176.31c4.13,10.33,21.58,4.5,36.25-2.28c9.35-4.32,46.16-26.79,88.72-17.92
	c17.32,3.61,35.67,2.15,51.83,10.03c7.76,3.78,12.5,8.92,18.17,9.23c8.9,0.49,17.68-6.85,25.6-18.98
	c8.06-12.35,12.5-30.58,8.55-45.02c-1.97-7.19-5.95-13.64-11.26-16.06c-10.81-4.94-26.38-3.16-37.83-7.61
	c-20.98-8.17-32.91-25.61-48.59-40.44c-16.5-15.62-34.83-19.46-53.37-30.67C88.91,5.05,72.76,7.56,50.75,3.64
	C43.45,2.34-1.8-7.42,0.06,11.68C1.37,25.2,51.49,28.94,62.49,32.06c10.47,2.97,22.06,4.43,28.85,13.33
	c4.51,5.9,4.2,15.61,8.72,22.14c5.3,7.65,11.05,6.96,13.1,17.22c1.65,8.21-2.04,17.51-7.37,23.72
	c-5.53,6.44-13.04,11.39-19.16,17.37c-7.72,7.54-13.93,13.88-23.64,19.32C53.7,150.38,23.53,160.31,29.92,176.31"/>
<path class="st8" d="M20.85,7.17c25.88,6.59,70.65,8.98,92.38,24.39c21.11,14.98,17.32,17.21,35.6,37.26
	c17.38,19.05,30.07,40.88,54.35,52.45c13.25,6.31,31.96,5.55,44.41,12.39c3.75,2.06,6.77,5.88,8.95,10.55
	c3.9-10.57,5.29-22.65,2.5-32.84c-1.97-7.19-5.96-13.64-11.26-16.06c-10.81-4.94-26.38-3.16-37.83-7.61
	c-20.98-8.17-32.91-25.61-48.59-40.45c-16.5-15.62-34.83-19.46-53.37-30.67C88.91,5.05,72.76,7.56,50.75,3.64
	C44.99,2.62,15.58-3.68,4.36,3.11C12.02,4.74,18.34,6.53,20.85,7.17"/>
<path class="st3" d="M91.34,45.39c4.51,5.9,4.2,15.61,8.72,22.14c5.3,7.65,10.7,6.76,12.75,17.02c0.1,0.52,0.19,1.05,0.25,1.59
	c0.27-2.43,0.21-4.87-0.25-7.2c-2.06-10.26-7.46-9.37-12.75-17.02c-4.52-6.53-4.22-16.24-8.72-22.14
	c-6.79-8.9-18.39-10.37-28.85-13.33C51.94,23.46,5.4,19.89,0.46,7.67c-0.4,1.17-0.55,2.5-0.4,4.01
	C1.37,25.2,51.49,28.95,62.49,32.06C72.95,35.03,84.55,36.5,91.34,45.39"/>
<path class="st3" d="M64.03,26.79c3.81,0.79,7.59,1.7,11.31,2.78c8.13,2.37,16.55,6.05,20.97,13.28c4.26,6.96,4.06,16.06,8.75,22.74
	c2.98,4.25,7.66,7.06,10.68,11.28c5.69,7.96,4.15,19.33-0.98,27.66c-5.13,8.33-13.18,14.34-20.9,20.34
	c-10.05,7.82-36.88,28.12-44.08,33.24c-4.56,3.25-21.68,2.98-19.24,15.5c0.92,4.73,5.97,6.39,10.45,6.13
	c2.57-0.15,5.1-0.76,7.56-1.5c2.81-0.85,5.55-1.91,8.25-3.05c2.76-1.16,5.47-2.41,8.19-3.66c0.58-0.27,1.17-0.54,1.76-0.81
	c9.35-4.32,45.7-29.1,88.27-20.23c17.32,3.61,35.67,2.15,51.83,10.03c7.76,3.78,12.5,8.92,18.17,9.23
	c8.9,0.49,17.68-6.85,25.6-18.98c5.53-8.47,9.35-19.7,9.93-30.58c0.69,12.51-3.45,26.26-9.93,36.19
	c-7.92,12.12-16.7,19.47-25.6,18.98c-5.67-0.31-10.42-5.45-18.17-9.23c-16.16-7.88-34.51-6.42-51.83-10.03
	c-42.57-8.87-79.38,13.6-88.72,17.92c-14.67,6.78-31.37,12.28-36.25,2.28c-0.84-1.71-1.35-3.59-1.32-5.5
	c0.01-0.79,0.05-1.61,0.31-2.35c0.27-0.77,0.59-1.52,0.96-2.25c1.48-2.94,3.7-5.46,6.21-7.56c2.02-1.69,4.25-3.14,6.57-4.39
	c6.16-3.32,12.91-5.45,18.99-8.92c9.34-5.32,16.64-13.52,24.83-20.48c7.31-6.21,15.52-11.62,21.17-19.38
	c5.64-7.76,8.11-18.91,2.76-26.87c-3.02-4.5-8.08-7.35-10.99-11.92c-3.67-5.77-3.34-13.34-6.73-19.28
	c-3.51-6.16-10.39-9.54-17.11-11.79c-21.64-7.27-45.51-6.65-66.57-15.46C4.93,18.4,0.37,15.22,0,10.7
	C19.54,20.99,42.32,22.27,64.03,26.79"/>
<path class="st9" d="M43.75,155.3l0.89-0.22c5.26-1.28,8.45-6.46,7.13-11.58L23.83,34.84L3.91,39.69l27.94,108.67
	C33.17,153.48,38.49,156.58,43.75,155.3"/>
<polygon class="st10" points="37.54,88.15 41.69,104.31 21.77,109.16 16.46,90.3 "/>
<path class="st11" d="M41.69,104.31l10.08,39.21c1.32,5.11-1.88,10.3-7.13,11.58l-0.89,0.22c-5.26,1.28-10.58-1.83-11.89-6.94
	L21.3,106.88L41.69,104.31z"/>
<path class="st12" d="M31.3,148.5L3.22,39.29l21.02-5.12l28.08,109.21c1.39,5.4-2,10.9-7.55,12.25l-0.89,0.22
	C38.34,157.2,32.69,153.9,31.3,148.5 M4.61,40.1l27.8,108.13c1.24,4.81,6.26,7.74,11.2,6.54l0.89-0.22c4.94-1.2,7.95-6.09,6.72-10.9
	L23.42,35.51L4.61,40.1z"/>
<path class="st13" d="M20.25,21.29c-0.53-1.63-2.11-2.63-3.63-2.26L3.13,22.31c-0.65,0.16-1.19,0.55-1.57,1.07
	c-0.51,0.69-0.72,1.63-0.54,2.59c-0.75,0.76-1.09,1.95-0.78,3.16l5.43,21.11c0.09,0.36,0.43,0.59,0.76,0.51l21.04-5.12
	c0.33-0.08,0.52-0.44,0.42-0.8l-5.43-21.11C22.15,22.51,21.28,21.61,20.25,21.29"/>
<path class="st14" d="M7.15,46.24L6.1,46.5c-0.2,0.05-0.39-0.07-0.44-0.26L1.84,31.37c-0.05-0.19,0.07-0.38,0.26-0.43l1.05-0.25
	c0.19-0.05,0.39,0.07,0.44,0.26l3.83,14.87C7.46,46,7.34,46.2,7.15,46.24"/>
<path class="st15" d="M6.85,46.32L6.4,46.43c-0.1,0.02-0.2-0.03-0.22-0.13l-3.9-15.16c-0.02-0.1,0.04-0.19,0.14-0.22l0.46-0.11
	c0.1-0.02,0.2,0.03,0.22,0.13l3.9,15.16C7.01,46.19,6.95,46.29,6.85,46.32"/>
<path class="st14" d="M9.8,45.6l-1.05,0.26c-0.2,0.05-0.39-0.07-0.44-0.26L4.49,30.72c-0.05-0.19,0.07-0.38,0.26-0.43l1.05-0.25
	c0.19-0.05,0.39,0.07,0.44,0.26l3.82,14.87C10.11,45.36,9.99,45.55,9.8,45.6"/>
<path class="st15" d="M9.5,45.67l-0.46,0.11c-0.1,0.02-0.2-0.03-0.22-0.13L4.91,30.44c-0.02-0.1,0.04-0.19,0.13-0.22l0.46-0.11
	c0.1-0.02,0.2,0.03,0.22,0.13l3.91,15.21C9.66,45.55,9.6,45.65,9.5,45.67"/>
<path class="st14" d="M12.45,44.95l-1.05,0.26c-0.19,0.05-0.39-0.07-0.44-0.26L7.14,30.08c-0.05-0.19,0.07-0.38,0.26-0.43l1.05-0.25
	c0.19-0.05,0.39,0.07,0.44,0.26l3.82,14.87C12.76,44.71,12.64,44.91,12.45,44.95"/>
<path class="st15" d="M12.16,45.03l-0.46,0.11c-0.1,0.02-0.2-0.03-0.22-0.13L7.56,29.8C7.54,29.7,7.6,29.6,7.7,29.58l0.46-0.11
	c0.1-0.02,0.2,0.03,0.22,0.13l3.91,15.21C12.31,44.9,12.25,45,12.16,45.03"/>
<path class="st14" d="M15.1,44.31l-1.05,0.26c-0.19,0.05-0.39-0.07-0.44-0.26L9.79,29.43c-0.05-0.19,0.07-0.38,0.26-0.43l1.05-0.25
	c0.19-0.05,0.39,0.07,0.44,0.26l3.82,14.87C15.41,44.07,15.29,44.26,15.1,44.31"/>
<path class="st15" d="M14.81,44.38l-0.46,0.11c-0.1,0.02-0.2-0.04-0.22-0.13l-3.91-15.21c-0.02-0.1,0.04-0.19,0.13-0.22l0.46-0.11
	c0.1-0.02,0.2,0.03,0.22,0.13l3.91,15.21C14.96,44.26,14.9,44.36,14.81,44.38"/>
<path class="st14" d="M17.75,43.66l-1.05,0.26c-0.19,0.05-0.39-0.07-0.44-0.26l-3.82-14.87c-0.05-0.19,0.07-0.38,0.26-0.43
	l1.05-0.25c0.19-0.05,0.39,0.07,0.44,0.26l3.83,14.87C18.06,43.42,17.94,43.62,17.75,43.66"/>
<path class="st15" d="M17.46,43.73L17,43.85c-0.1,0.02-0.2-0.04-0.22-0.13l-3.91-15.21c-0.02-0.1,0.04-0.19,0.14-0.22l0.46-0.11
	c0.1-0.02,0.2,0.03,0.22,0.13l3.91,15.21C17.61,43.61,17.55,43.71,17.46,43.73"/>
<path class="st14" d="M20.4,43.02l-1.05,0.26c-0.19,0.05-0.39-0.07-0.44-0.26l-3.82-14.87c-0.05-0.19,0.07-0.38,0.26-0.43l1.05-0.25
	c0.19-0.05,0.39,0.07,0.44,0.26l3.83,14.87C20.71,42.78,20.6,42.97,20.4,43.02"/>
<path class="st15" d="M20.11,43.09l-0.46,0.11c-0.1,0.02-0.2-0.04-0.22-0.13l-3.91-15.21c-0.02-0.1,0.04-0.19,0.14-0.22l0.46-0.11
	c0.1-0.02,0.2,0.03,0.22,0.13l3.91,15.21C20.26,42.97,20.2,43.06,20.11,43.09"/>
<path class="st14" d="M23.05,42.37L22,42.63c-0.19,0.05-0.39-0.07-0.44-0.26L17.74,27.5c-0.05-0.19,0.07-0.38,0.26-0.43l1.05-0.25
	c0.19-0.05,0.39,0.07,0.44,0.26l3.83,14.87C23.36,42.13,23.25,42.32,23.05,42.37"/>
<path class="st15" d="M22.76,42.44l-0.46,0.11c-0.1,0.02-0.2-0.04-0.22-0.13l-3.91-15.21c-0.02-0.1,0.03-0.19,0.14-0.22l0.46-0.11
	c0.1-0.02,0.2,0.03,0.22,0.13l3.91,15.21C22.91,42.32,22.85,42.42,22.76,42.44"/>
<path class="st14" d="M25.7,41.73l-1.05,0.26c-0.19,0.05-0.39-0.07-0.44-0.26l-3.82-14.87c-0.05-0.19,0.07-0.38,0.26-0.43l1.05-0.25
	c0.2-0.05,0.39,0.07,0.44,0.26l3.83,14.87C26.01,41.49,25.89,41.68,25.7,41.73"/>
<path class="st15" d="M25.41,41.8l-0.46,0.11c-0.1,0.02-0.2-0.04-0.22-0.13l-3.91-15.21c-0.02-0.1,0.03-0.19,0.13-0.22l0.46-0.11
	c0.1-0.02,0.2,0.03,0.22,0.13l3.91,15.21C25.57,41.68,25.51,41.77,25.41,41.8"/>
<path class="st13" d="M27.69,45.57L5.7,50.93c-0.64,0.16-1.3-0.3-1.49-1.03L4,49.07c-0.18-0.72,0.18-1.43,0.82-1.59l21.99-5.35
	c0.5-0.12,1.01,0.13,1.3,0.59c0.08,0.13,0.14,0.27,0.19,0.43l0.21,0.82C28.69,44.71,28.33,45.42,27.69,45.57"/>
<path class="st15" d="M27.92,42.48c-0.29-0.3-0.7-0.45-1.1-0.35L4.8,47.49C4.4,47.59,4.11,47.9,4,48.3L27.92,42.48z"/>
<path class="st15" d="M16.61,19.03L3.13,22.31c-0.65,0.16-1.19,0.54-1.57,1.07c-0.26,0.36-0.44,0.79-0.54,1.24l18.57-4.52
	C18.85,19.22,17.72,18.76,16.61,19.03"/>
<path class="st16" d="M26.78,114.18l8.65-2.11c1.63-0.4,2.61-2,2.21-3.58l-11.26-43.8c-0.2-0.79-0.72-1.43-1.38-1.82
	c-0.67-0.39-1.48-0.53-2.3-0.33l-8.65,2.11c-1.63,0.4-2.62,2-2.21,3.58l11.26,43.8C23.51,113.61,25.16,114.57,26.78,114.18"/>
<path class="st13" d="M14.05,64.64l8.65-2.1c0.81-0.2,1.63-0.06,2.3,0.33c0.67,0.39,1.18,1.03,1.38,1.82l0.22,0.85l-14.54,3.54
	l-0.22-0.85C11.43,66.64,12.42,65.04,14.05,64.64"/>
<polygon class="st17" points="23.78,68.66 23.64,68.1 13.46,70.58 13.61,71.14 "/>
<polygon class="st17" points="23.94,69.27 23.85,68.95 13.68,71.43 13.76,71.75 "/>
<polygon class="st17" points="24.16,70.13 24.08,69.81 13.9,72.29 13.98,72.61 "/>
<polygon class="st17" points="24.53,71.56 24.44,71.25 14.27,73.72 14.35,74.04 "/>
<polygon class="st17" points="24.75,72.44 24.67,72.13 14.5,74.6 14.58,74.92 "/>
<polygon class="st17" points="25.66,75.96 25.57,75.64 15.4,78.12 15.48,78.44 "/>
<polygon class="st17" points="25.79,76.49 25.71,76.17 15.54,78.65 15.62,78.97 "/>
<polygon class="st17" points="26.17,77.98 26.09,77.66 15.92,80.14 16,80.46 "/>
<polygon class="st17" points="26.85,80.59 26.76,80.27 16.59,82.75 16.67,83.07 "/>
<polygon class="st17" points="27,81.19 26.92,80.87 16.74,83.35 16.83,83.66 "/>
<polygon class="st17" points="27.66,83.76 27.58,83.44 17.41,85.92 17.49,86.24 "/>
<polygon class="st17" points="27.8,84.3 27.72,83.99 17.55,86.47 17.63,86.78 "/>
<polygon class="st17" points="28.18,85.79 28.1,85.47 17.93,87.95 18.01,88.27 "/>
<polygon class="st17" points="29.46,90.75 29.38,90.43 19.2,92.91 19.28,93.22 "/>
<polygon class="st17" points="30.04,93.02 29.96,92.7 19.79,95.18 19.87,95.5 "/>
<polygon class="st17" points="30.27,93.91 30.19,93.6 20.02,96.07 20.1,96.39 "/>
<polygon class="st17" points="30.72,95.65 30.64,95.34 20.46,97.81 20.55,98.13 "/>
<polygon class="st17" points="31.09,97.1 31.01,96.79 20.84,99.26 20.92,99.58 "/>
<polygon class="st17" points="31.69,99.43 31.61,99.12 21.44,101.6 21.52,101.91 "/>
<polygon class="st17" points="31.92,100.33 31.84,100.01 21.67,102.49 21.75,102.81 "/>
<polygon class="st17" points="32.51,102.61 32.43,102.3 22.25,104.77 22.34,105.09 "/>
<polygon class="st17" points="33.33,105.8 33.25,105.49 23.07,107.96 23.16,108.28 "/>
<polygon class="st17" points="34.22,109.28 34.14,108.97 23.97,111.45 24.05,111.76 "/>
<polygon class="st17" points="25.19,74.15 25.05,73.59 14.87,76.07 15.02,76.63 "/>
<polygon class="st17" points="25.42,75.06 25.28,74.49 15.11,76.97 15.25,77.53 "/>
<polygon class="st17" points="26.7,80.01 26.38,78.78 16.21,81.26 16.52,82.49 "/>
<polygon class="st17" points="27.51,83.16 27.19,81.94 17.02,84.42 17.34,85.64 "/>
<polygon class="st17" points="29.89,92.42 29.57,91.2 19.4,93.67 19.72,94.9 "/>
<polygon class="st17" points="31.47,98.56 31.15,97.34 20.98,99.81 21.29,101.04 "/>
<polygon class="st17" points="32.37,102.07 32.05,100.84 21.88,103.32 22.19,104.54 "/>
<polygon class="st17" points="32.9,104.12 32.64,103.12 22.47,105.6 22.72,106.6 "/>
<polygon class="st17" points="34.09,108.75 33.83,107.75 23.66,110.23 23.91,111.23 "/>
<polygon class="st17" points="29.21,89.8 29.07,89.24 18.9,91.72 19.04,92.28 "/>
<polygon class="st17" points="30.48,94.73 30.34,94.17 20.17,96.65 20.31,97.21 "/>
<polygon class="st17" points="33.17,105.17 33.02,104.61 22.85,107.09 22.99,107.65 "/>
<polygon class="st17" points="33.62,106.95 33.48,106.39 23.31,108.87 23.45,109.43 "/>
<polygon class="st17" points="34.44,110.1 34.29,109.54 24.12,112.02 24.26,112.58 "/>
<polygon class="st17" points="28.92,88.66 28.78,88.1 18.6,90.58 18.75,91.14 "/>
<polygon class="st17" points="28.7,87.82 28.56,87.26 18.39,89.73 18.53,90.3 "/>
<polygon class="st17" points="28.49,86.97 28.34,86.41 18.17,88.89 18.31,89.45 "/>
<path class="st0" d="M298.62-5782.32"/>
<path class="st0" d="M298.62,5469.07"/>
<path class="st0" d="M298.62-5782.32"/>
<path class="st0" d="M298.62,5469.07"/>
<path class="st0" d="M298.62-5782.32"/>
<path class="st0" d="M298.62,5469.07"/>
<path class="st0" d="M298.62-5782.32"/>
<path class="st0" d="M298.62,5469.07"/>
<path class="st0" d="M298.62-5782.32"/>
<path class="st0" d="M298.62,5469.07"/>
<path class="st0" d="M298.62-5782.32"/>
<path class="st0" d="M298.62,5469.07"/>
<path class="st0" d="M298.62-5782.32"/>
<path class="st0" d="M298.62,5469.07"/>
<path class="st0" d="M298.62-5782.32"/>
<path class="st0" d="M298.62,5469.07"/>
<path class="st0" d="M298.62-5782.32"/>
<path class="st0" d="M298.62,5469.07"/>
<path class="st0" d="M298.62-5782.32"/>
<path class="st0" d="M298.62,5469.07"/>
<path class="st0" d="M298.62-5782.32"/>
<path class="st0" d="M298.62,5469.07"/>
<path class="st0" d="M298.62-5782.32"/>
<path class="st0" d="M298.62,5469.07"/>
<path class="st0" d="M298.62-5782.32"/>
<path class="st0" d="M298.62,5469.07"/>
<path class="st0" d="M298.62-5782.32"/>
<path class="st0" d="M298.62,5469.07"/>
<path class="st0" d="M298.62-5782.32"/>
<path class="st0" d="M298.62,5469.07"/>
<path class="st0" d="M298.62-5782.32"/>
<path class="st0" d="M298.62,5469.07"/>
<path class="st0" d="M298.62-5782.32"/>
<path class="st0" d="M298.62,5469.07"/>
<path class="st0" d="M298.62-5782.32"/>
<path class="st0" d="M298.62,5469.07"/>
<path class="st0" d="M298.62-5782.32"/>
<path class="st0" d="M298.62,5469.07"/>
<path class="st0" d="M298.62-5782.32"/>
<path class="st0" d="M298.62,5469.07"/>
<path class="st0" d="M298.62-5782.32"/>
<path class="st0" d="M298.62,5469.07"/>
<path class="st0" d="M298.62-5782.32"/>
<path class="st0" d="M298.62,5469.07"/>
<path class="st0" d="M298.62-5782.32"/>
<path class="st0" d="M298.62,5469.07"/>
<path class="st0" d="M298.62-5782.32"/>
<path class="st0" d="M298.62,5469.07"/>
<path class="st0" d="M298.62-5782.32"/>
<path class="st0" d="M298.62,5469.07"/>
<path class="st0" d="M298.62-5782.33"/>
<path class="st0" d="M298.62,5469.07"/>
</svg>
